SplineFontDB: 3.0
FontName: ShaidurovUnicode
FullName: Shaidurov Unicode
FamilyName: Shaidurov Unicode
Weight: Medium
Copyright: Copyright 2013-2018 Nikita Simmons and Aleksandr Andreev.\n\nThis font is part of the Ponomar Project Slavonic Computing Initiative. See http://www.ponomar.net/ for more information.\n\nOriginal glyph design by Nikita Simmons. OpenType features and reencoding by Aleksandr Andreev.
Version: 0.5
ItalicAngle: 0
UnderlinePosition: -100
UnderlineWidth: 50
Ascent: 800
Descent: 200
LayerCount: 3
Layer: 0 1 "Back"  1
Layer: 1 1 "TTF"  0
Layer: 2 0 "OTF"  0
XUID: [1021 187 1807321670 9536001]
FSType: 8
OS2Version: 4
OS2_WeightWidthSlopeOnly: 0
OS2_UseTypoMetrics: 0
CreationTime: 1357765429
ModificationTime: 1521009869
PfmFamily: 17
TTFWeight: 500
TTFWidth: 5
LineGap: 90
VLineGap: 0
Panose: 2 0 6 3 0 0 0 0 0 0
OS2TypoAscent: 800
OS2TypoAOffset: 0
OS2TypoDescent: -200
OS2TypoDOffset: 0
OS2TypoLinegap: 90
OS2WinAscent: 1115
OS2WinAOffset: 0
OS2WinDescent: 517
OS2WinDOffset: 0
HheadAscent: 1115
HheadAOffset: 0
HheadDescent: -517
HheadDOffset: 0
OS2SubXSize: 650
OS2SubYSize: 700
OS2SubXOff: 0
OS2SubYOff: 140
OS2SupXSize: 650
OS2SupYSize: 700
OS2SupXOff: 0
OS2SupYOff: 480
OS2StrikeYSize: 49
OS2StrikeYPos: 258
OS2Vendor: 'PfEd'
OS2CodePages: 00000004.00000000
OS2UnicodeRanges: 84000263.1200e04e.0c000001.00000000
Lookup: 4 0 0 "'ccpm' Znamenny Ligatures"  {"'ccpm' Znamenny Ligatures-1"  } ['ccmp' ('DFLT' <'dflt' > 'cyrl' <'dflt' > 'geor' <'dflt' > 'latn' <'dflt' > ) ]
Lookup: 4 0 0 "'ccmp' More Znamenny Ligatures"  {"'ccmp' More Znamenny Ligatures-1"  } ['ccmp' ('DFLT' <'dflt' > 'cyrl' <'dflt' > 'geor' <'dflt' > 'latn' <'dflt' > ) ]
Lookup: 4 0 0 "'ccmp' Canonical Equivalence for cyrl and latn"  {"'ccmp' Glyph Composition/Decomposition lookup 0 subtable"  } ['ccmp' ('DFLT' <'dflt' > 'cyrl' <'dflt' > 'geor' <'dflt' > 'latn' <'dflt' > ) ]

StartChar: .notdef
Encoding: 1114112 -1 0
Width: 364
Flags: W
LayerCount: 3
Fore
SplineSet
33 0 m 1,0,-1
 33 666 l 1,1,-1
 298 666 l 1,2,-1
 298 0 l 1,3,-1
 33 0 l 1,0,-1
66 33 m 1,4,-1
 265 33 l 1,5,-1
 265 633 l 1,6,-1
 66 633 l 1,7,-1
 66 33 l 1,4,-1
EndSplineSet
Validated: 1
Layer: 2
SplineSet
33 0 m 1
 33 666 l 1
 298 666 l 1
 298 0 l 1
 33 0 l 1
66 33 m 1
 265 33 l 1
 265 633 l 1
 66 633 l 1
 66 33 l 1
EndSplineSet
EndChar

StartChar: uni0001
Encoding: 1 1 3
Width: 427
GlyphClass: 2
Flags: W
LayerCount: 3
Fore
SplineSet
0 770 m 1,0,-1
 427 770 l 1,1,-1
 427 0 l 1,2,-1
 0 0 l 1,3,-1
 0 770 l 1,0,-1
29 748 m 1,4,-1
 213 398 l 1,5,-1
 398 748 l 1,6,-1
 29 748 l 1,4,-1
221 383 m 1,7,-1
 405 34 l 1,8,-1
 405 733 l 1,9,-1
 221 383 l 1,7,-1
398 19 m 1,10,-1
 213 369 l 1,11,-1
 29 19 l 1,12,-1
 398 19 l 1,10,-1
22 733 m 1,13,-1
 22 34 l 1,14,-1
 206 383 l 1,15,-1
 22 733 l 1,13,-1
EndSplineSet
Validated: 1
Layer: 2
SplineSet
0 770 m 1
 427 770 l 1
 427 0 l 1
 0 0 l 1
 0 770 l 1
29 748 m 1
 213 398 l 1
 398 748 l 1
 29 748 l 1
221 383 m 1
 405 34 l 1
 405 733 l 1
 221 383 l 1
398 19 m 1
 213 369 l 1
 29 19 l 1
 398 19 l 1
22 733 m 1
 22 34 l 1
 206 383 l 1
 22 733 l 1
EndSplineSet
EndChar

StartChar: uni0002
Encoding: 2 2 4
Width: 427
GlyphClass: 2
Flags: W
LayerCount: 3
Fore
SplineSet
0 770 m 1,0,-1
 427 770 l 1,1,-1
 427 0 l 1,2,-1
 0 0 l 1,3,-1
 0 770 l 1,0,-1
29 748 m 1,4,-1
 213 398 l 1,5,-1
 398 748 l 1,6,-1
 29 748 l 1,4,-1
221 383 m 1,7,-1
 405 34 l 1,8,-1
 405 733 l 1,9,-1
 221 383 l 1,7,-1
398 19 m 1,10,-1
 213 369 l 1,11,-1
 29 19 l 1,12,-1
 398 19 l 1,10,-1
22 733 m 1,13,-1
 22 34 l 1,14,-1
 206 383 l 1,15,-1
 22 733 l 1,13,-1
EndSplineSet
Validated: 1
Layer: 2
SplineSet
0 770 m 1
 427 770 l 1
 427 0 l 1
 0 0 l 1
 0 770 l 1
29 748 m 1
 213 398 l 1
 398 748 l 1
 29 748 l 1
221 383 m 1
 405 34 l 1
 405 733 l 1
 221 383 l 1
398 19 m 1
 213 369 l 1
 29 19 l 1
 398 19 l 1
22 733 m 1
 22 34 l 1
 206 383 l 1
 22 733 l 1
EndSplineSet
EndChar

StartChar: uni0003
Encoding: 3 3 5
Width: 427
GlyphClass: 2
Flags: W
LayerCount: 3
Fore
SplineSet
0 770 m 1,0,-1
 427 770 l 1,1,-1
 427 0 l 1,2,-1
 0 0 l 1,3,-1
 0 770 l 1,0,-1
29 748 m 1,4,-1
 213 398 l 1,5,-1
 398 748 l 1,6,-1
 29 748 l 1,4,-1
221 383 m 1,7,-1
 405 34 l 1,8,-1
 405 733 l 1,9,-1
 221 383 l 1,7,-1
398 19 m 1,10,-1
 213 369 l 1,11,-1
 29 19 l 1,12,-1
 398 19 l 1,10,-1
22 733 m 1,13,-1
 22 34 l 1,14,-1
 206 383 l 1,15,-1
 22 733 l 1,13,-1
EndSplineSet
Validated: 1
Layer: 2
SplineSet
0 770 m 1
 427 770 l 1
 427 0 l 1
 0 0 l 1
 0 770 l 1
29 748 m 1
 213 398 l 1
 398 748 l 1
 29 748 l 1
221 383 m 1
 405 34 l 1
 405 733 l 1
 221 383 l 1
398 19 m 1
 213 369 l 1
 29 19 l 1
 398 19 l 1
22 733 m 1
 22 34 l 1
 206 383 l 1
 22 733 l 1
EndSplineSet
EndChar

StartChar: uni0004
Encoding: 4 4 6
Width: 427
GlyphClass: 2
Flags: W
LayerCount: 3
Fore
SplineSet
0 770 m 1,0,-1
 427 770 l 1,1,-1
 427 0 l 1,2,-1
 0 0 l 1,3,-1
 0 770 l 1,0,-1
29 748 m 1,4,-1
 213 398 l 1,5,-1
 398 748 l 1,6,-1
 29 748 l 1,4,-1
221 383 m 1,7,-1
 405 34 l 1,8,-1
 405 733 l 1,9,-1
 221 383 l 1,7,-1
398 19 m 1,10,-1
 213 369 l 1,11,-1
 29 19 l 1,12,-1
 398 19 l 1,10,-1
22 733 m 1,13,-1
 22 34 l 1,14,-1
 206 383 l 1,15,-1
 22 733 l 1,13,-1
EndSplineSet
Validated: 1
Layer: 2
SplineSet
0 770 m 1
 427 770 l 1
 427 0 l 1
 0 0 l 1
 0 770 l 1
29 748 m 1
 213 398 l 1
 398 748 l 1
 29 748 l 1
221 383 m 1
 405 34 l 1
 405 733 l 1
 221 383 l 1
398 19 m 1
 213 369 l 1
 29 19 l 1
 398 19 l 1
22 733 m 1
 22 34 l 1
 206 383 l 1
 22 733 l 1
EndSplineSet
EndChar

StartChar: uni0005
Encoding: 5 5 7
Width: 427
GlyphClass: 2
Flags: W
LayerCount: 3
Fore
SplineSet
0 770 m 1,0,-1
 427 770 l 1,1,-1
 427 0 l 1,2,-1
 0 0 l 1,3,-1
 0 770 l 1,0,-1
29 748 m 1,4,-1
 213 398 l 1,5,-1
 398 748 l 1,6,-1
 29 748 l 1,4,-1
221 383 m 1,7,-1
 405 34 l 1,8,-1
 405 733 l 1,9,-1
 221 383 l 1,7,-1
398 19 m 1,10,-1
 213 369 l 1,11,-1
 29 19 l 1,12,-1
 398 19 l 1,10,-1
22 733 m 1,13,-1
 22 34 l 1,14,-1
 206 383 l 1,15,-1
 22 733 l 1,13,-1
EndSplineSet
Validated: 1
Layer: 2
SplineSet
0 770 m 1
 427 770 l 1
 427 0 l 1
 0 0 l 1
 0 770 l 1
29 748 m 1
 213 398 l 1
 398 748 l 1
 29 748 l 1
221 383 m 1
 405 34 l 1
 405 733 l 1
 221 383 l 1
398 19 m 1
 213 369 l 1
 29 19 l 1
 398 19 l 1
22 733 m 1
 22 34 l 1
 206 383 l 1
 22 733 l 1
EndSplineSet
EndChar

StartChar: uni0006
Encoding: 6 6 8
Width: 427
GlyphClass: 2
Flags: W
LayerCount: 3
Fore
SplineSet
0 770 m 1,0,-1
 427 770 l 1,1,-1
 427 0 l 1,2,-1
 0 0 l 1,3,-1
 0 770 l 1,0,-1
29 748 m 1,4,-1
 213 398 l 1,5,-1
 398 748 l 1,6,-1
 29 748 l 1,4,-1
221 383 m 1,7,-1
 405 34 l 1,8,-1
 405 733 l 1,9,-1
 221 383 l 1,7,-1
398 19 m 1,10,-1
 213 369 l 1,11,-1
 29 19 l 1,12,-1
 398 19 l 1,10,-1
22 733 m 1,13,-1
 22 34 l 1,14,-1
 206 383 l 1,15,-1
 22 733 l 1,13,-1
EndSplineSet
Validated: 1
Layer: 2
SplineSet
0 770 m 1
 427 770 l 1
 427 0 l 1
 0 0 l 1
 0 770 l 1
29 748 m 1
 213 398 l 1
 398 748 l 1
 29 748 l 1
221 383 m 1
 405 34 l 1
 405 733 l 1
 221 383 l 1
398 19 m 1
 213 369 l 1
 29 19 l 1
 398 19 l 1
22 733 m 1
 22 34 l 1
 206 383 l 1
 22 733 l 1
EndSplineSet
EndChar

StartChar: uni0007
Encoding: 7 7 9
Width: 427
GlyphClass: 2
Flags: W
LayerCount: 3
Fore
SplineSet
0 770 m 1,0,-1
 427 770 l 1,1,-1
 427 0 l 1,2,-1
 0 0 l 1,3,-1
 0 770 l 1,0,-1
29 748 m 1,4,-1
 213 398 l 1,5,-1
 398 748 l 1,6,-1
 29 748 l 1,4,-1
221 383 m 1,7,-1
 405 34 l 1,8,-1
 405 733 l 1,9,-1
 221 383 l 1,7,-1
398 19 m 1,10,-1
 213 369 l 1,11,-1
 29 19 l 1,12,-1
 398 19 l 1,10,-1
22 733 m 1,13,-1
 22 34 l 1,14,-1
 206 383 l 1,15,-1
 22 733 l 1,13,-1
EndSplineSet
Validated: 1
Layer: 2
SplineSet
0 770 m 1
 427 770 l 1
 427 0 l 1
 0 0 l 1
 0 770 l 1
29 748 m 1
 213 398 l 1
 398 748 l 1
 29 748 l 1
221 383 m 1
 405 34 l 1
 405 733 l 1
 221 383 l 1
398 19 m 1
 213 369 l 1
 29 19 l 1
 398 19 l 1
22 733 m 1
 22 34 l 1
 206 383 l 1
 22 733 l 1
EndSplineSet
EndChar

StartChar: uni000B
Encoding: 11 11 13
Width: 427
GlyphClass: 2
Flags: W
LayerCount: 3
Fore
SplineSet
0 770 m 1,0,-1
 427 770 l 1,1,-1
 427 0 l 1,2,-1
 0 0 l 1,3,-1
 0 770 l 1,0,-1
29 748 m 1,4,-1
 213 398 l 1,5,-1
 398 748 l 1,6,-1
 29 748 l 1,4,-1
221 383 m 1,7,-1
 405 34 l 1,8,-1
 405 733 l 1,9,-1
 221 383 l 1,7,-1
398 19 m 1,10,-1
 213 369 l 1,11,-1
 29 19 l 1,12,-1
 398 19 l 1,10,-1
22 733 m 1,13,-1
 22 34 l 1,14,-1
 206 383 l 1,15,-1
 22 733 l 1,13,-1
EndSplineSet
Validated: 1
Layer: 2
SplineSet
0 770 m 1
 427 770 l 1
 427 0 l 1
 0 0 l 1
 0 770 l 1
29 748 m 1
 213 398 l 1
 398 748 l 1
 29 748 l 1
221 383 m 1
 405 34 l 1
 405 733 l 1
 221 383 l 1
398 19 m 1
 213 369 l 1
 29 19 l 1
 398 19 l 1
22 733 m 1
 22 34 l 1
 206 383 l 1
 22 733 l 1
EndSplineSet
EndChar

StartChar: uni000C
Encoding: 12 12 14
Width: 427
GlyphClass: 2
Flags: W
LayerCount: 3
Fore
SplineSet
0 770 m 1,0,-1
 427 770 l 1,1,-1
 427 0 l 1,2,-1
 0 0 l 1,3,-1
 0 770 l 1,0,-1
29 748 m 1,4,-1
 213 398 l 1,5,-1
 398 748 l 1,6,-1
 29 748 l 1,4,-1
221 383 m 1,7,-1
 405 34 l 1,8,-1
 405 733 l 1,9,-1
 221 383 l 1,7,-1
398 19 m 1,10,-1
 213 369 l 1,11,-1
 29 19 l 1,12,-1
 398 19 l 1,10,-1
22 733 m 1,13,-1
 22 34 l 1,14,-1
 206 383 l 1,15,-1
 22 733 l 1,13,-1
EndSplineSet
Validated: 1
Layer: 2
SplineSet
0 770 m 1
 427 770 l 1
 427 0 l 1
 0 0 l 1
 0 770 l 1
29 748 m 1
 213 398 l 1
 398 748 l 1
 29 748 l 1
221 383 m 1
 405 34 l 1
 405 733 l 1
 221 383 l 1
398 19 m 1
 213 369 l 1
 29 19 l 1
 398 19 l 1
22 733 m 1
 22 34 l 1
 206 383 l 1
 22 733 l 1
EndSplineSet
EndChar

StartChar: uni000E
Encoding: 14 14 15
Width: 427
GlyphClass: 2
Flags: W
LayerCount: 3
Fore
SplineSet
0 770 m 1,0,-1
 427 770 l 1,1,-1
 427 0 l 1,2,-1
 0 0 l 1,3,-1
 0 770 l 1,0,-1
29 748 m 1,4,-1
 213 398 l 1,5,-1
 398 748 l 1,6,-1
 29 748 l 1,4,-1
221 383 m 1,7,-1
 405 34 l 1,8,-1
 405 733 l 1,9,-1
 221 383 l 1,7,-1
398 19 m 1,10,-1
 213 369 l 1,11,-1
 29 19 l 1,12,-1
 398 19 l 1,10,-1
22 733 m 1,13,-1
 22 34 l 1,14,-1
 206 383 l 1,15,-1
 22 733 l 1,13,-1
EndSplineSet
Validated: 1
Layer: 2
SplineSet
0 770 m 1
 427 770 l 1
 427 0 l 1
 0 0 l 1
 0 770 l 1
29 748 m 1
 213 398 l 1
 398 748 l 1
 29 748 l 1
221 383 m 1
 405 34 l 1
 405 733 l 1
 221 383 l 1
398 19 m 1
 213 369 l 1
 29 19 l 1
 398 19 l 1
22 733 m 1
 22 34 l 1
 206 383 l 1
 22 733 l 1
EndSplineSet
EndChar

StartChar: uni000F
Encoding: 15 15 16
Width: 427
GlyphClass: 2
Flags: W
LayerCount: 3
Fore
SplineSet
0 770 m 1,0,-1
 427 770 l 1,1,-1
 427 0 l 1,2,-1
 0 0 l 1,3,-1
 0 770 l 1,0,-1
29 748 m 1,4,-1
 213 398 l 1,5,-1
 398 748 l 1,6,-1
 29 748 l 1,4,-1
221 383 m 1,7,-1
 405 34 l 1,8,-1
 405 733 l 1,9,-1
 221 383 l 1,7,-1
398 19 m 1,10,-1
 213 369 l 1,11,-1
 29 19 l 1,12,-1
 398 19 l 1,10,-1
22 733 m 1,13,-1
 22 34 l 1,14,-1
 206 383 l 1,15,-1
 22 733 l 1,13,-1
EndSplineSet
Validated: 1
Layer: 2
SplineSet
0 770 m 1
 427 770 l 1
 427 0 l 1
 0 0 l 1
 0 770 l 1
29 748 m 1
 213 398 l 1
 398 748 l 1
 29 748 l 1
221 383 m 1
 405 34 l 1
 405 733 l 1
 221 383 l 1
398 19 m 1
 213 369 l 1
 29 19 l 1
 398 19 l 1
22 733 m 1
 22 34 l 1
 206 383 l 1
 22 733 l 1
EndSplineSet
EndChar

StartChar: uni0010
Encoding: 16 16 17
Width: 427
GlyphClass: 2
Flags: W
LayerCount: 3
Fore
SplineSet
0 770 m 1,0,-1
 427 770 l 1,1,-1
 427 0 l 1,2,-1
 0 0 l 1,3,-1
 0 770 l 1,0,-1
29 748 m 1,4,-1
 213 398 l 1,5,-1
 398 748 l 1,6,-1
 29 748 l 1,4,-1
221 383 m 1,7,-1
 405 34 l 1,8,-1
 405 733 l 1,9,-1
 221 383 l 1,7,-1
398 19 m 1,10,-1
 213 369 l 1,11,-1
 29 19 l 1,12,-1
 398 19 l 1,10,-1
22 733 m 1,13,-1
 22 34 l 1,14,-1
 206 383 l 1,15,-1
 22 733 l 1,13,-1
EndSplineSet
Validated: 1
Layer: 2
SplineSet
0 770 m 1
 427 770 l 1
 427 0 l 1
 0 0 l 1
 0 770 l 1
29 748 m 1
 213 398 l 1
 398 748 l 1
 29 748 l 1
221 383 m 1
 405 34 l 1
 405 733 l 1
 221 383 l 1
398 19 m 1
 213 369 l 1
 29 19 l 1
 398 19 l 1
22 733 m 1
 22 34 l 1
 206 383 l 1
 22 733 l 1
EndSplineSet
EndChar

StartChar: uni0011
Encoding: 17 17 18
Width: 427
GlyphClass: 2
Flags: W
LayerCount: 3
Fore
SplineSet
0 770 m 1,0,-1
 427 770 l 1,1,-1
 427 0 l 1,2,-1
 0 0 l 1,3,-1
 0 770 l 1,0,-1
29 748 m 1,4,-1
 213 398 l 1,5,-1
 398 748 l 1,6,-1
 29 748 l 1,4,-1
221 383 m 1,7,-1
 405 34 l 1,8,-1
 405 733 l 1,9,-1
 221 383 l 1,7,-1
398 19 m 1,10,-1
 213 369 l 1,11,-1
 29 19 l 1,12,-1
 398 19 l 1,10,-1
22 733 m 1,13,-1
 22 34 l 1,14,-1
 206 383 l 1,15,-1
 22 733 l 1,13,-1
EndSplineSet
Validated: 1
Layer: 2
SplineSet
0 770 m 1
 427 770 l 1
 427 0 l 1
 0 0 l 1
 0 770 l 1
29 748 m 1
 213 398 l 1
 398 748 l 1
 29 748 l 1
221 383 m 1
 405 34 l 1
 405 733 l 1
 221 383 l 1
398 19 m 1
 213 369 l 1
 29 19 l 1
 398 19 l 1
22 733 m 1
 22 34 l 1
 206 383 l 1
 22 733 l 1
EndSplineSet
EndChar

StartChar: uni0012
Encoding: 18 18 19
Width: 427
GlyphClass: 2
Flags: W
LayerCount: 3
Fore
SplineSet
0 770 m 1,0,-1
 427 770 l 1,1,-1
 427 0 l 1,2,-1
 0 0 l 1,3,-1
 0 770 l 1,0,-1
29 748 m 1,4,-1
 213 398 l 1,5,-1
 398 748 l 1,6,-1
 29 748 l 1,4,-1
221 383 m 1,7,-1
 405 34 l 1,8,-1
 405 733 l 1,9,-1
 221 383 l 1,7,-1
398 19 m 1,10,-1
 213 369 l 1,11,-1
 29 19 l 1,12,-1
 398 19 l 1,10,-1
22 733 m 1,13,-1
 22 34 l 1,14,-1
 206 383 l 1,15,-1
 22 733 l 1,13,-1
EndSplineSet
Validated: 1
Layer: 2
SplineSet
0 770 m 1
 427 770 l 1
 427 0 l 1
 0 0 l 1
 0 770 l 1
29 748 m 1
 213 398 l 1
 398 748 l 1
 29 748 l 1
221 383 m 1
 405 34 l 1
 405 733 l 1
 221 383 l 1
398 19 m 1
 213 369 l 1
 29 19 l 1
 398 19 l 1
22 733 m 1
 22 34 l 1
 206 383 l 1
 22 733 l 1
EndSplineSet
EndChar

StartChar: uni0013
Encoding: 19 19 20
Width: 427
GlyphClass: 2
Flags: W
LayerCount: 3
Fore
SplineSet
0 770 m 1,0,-1
 427 770 l 1,1,-1
 427 0 l 1,2,-1
 0 0 l 1,3,-1
 0 770 l 1,0,-1
29 748 m 1,4,-1
 213 398 l 1,5,-1
 398 748 l 1,6,-1
 29 748 l 1,4,-1
221 383 m 1,7,-1
 405 34 l 1,8,-1
 405 733 l 1,9,-1
 221 383 l 1,7,-1
398 19 m 1,10,-1
 213 369 l 1,11,-1
 29 19 l 1,12,-1
 398 19 l 1,10,-1
22 733 m 1,13,-1
 22 34 l 1,14,-1
 206 383 l 1,15,-1
 22 733 l 1,13,-1
EndSplineSet
Validated: 1
Layer: 2
SplineSet
0 770 m 1
 427 770 l 1
 427 0 l 1
 0 0 l 1
 0 770 l 1
29 748 m 1
 213 398 l 1
 398 748 l 1
 29 748 l 1
221 383 m 1
 405 34 l 1
 405 733 l 1
 221 383 l 1
398 19 m 1
 213 369 l 1
 29 19 l 1
 398 19 l 1
22 733 m 1
 22 34 l 1
 206 383 l 1
 22 733 l 1
EndSplineSet
EndChar

StartChar: uni0014
Encoding: 20 20 21
Width: 427
GlyphClass: 2
Flags: W
LayerCount: 3
Fore
SplineSet
0 770 m 1,0,-1
 427 770 l 1,1,-1
 427 0 l 1,2,-1
 0 0 l 1,3,-1
 0 770 l 1,0,-1
29 748 m 1,4,-1
 213 398 l 1,5,-1
 398 748 l 1,6,-1
 29 748 l 1,4,-1
221 383 m 1,7,-1
 405 34 l 1,8,-1
 405 733 l 1,9,-1
 221 383 l 1,7,-1
398 19 m 1,10,-1
 213 369 l 1,11,-1
 29 19 l 1,12,-1
 398 19 l 1,10,-1
22 733 m 1,13,-1
 22 34 l 1,14,-1
 206 383 l 1,15,-1
 22 733 l 1,13,-1
EndSplineSet
Validated: 1
Layer: 2
SplineSet
0 770 m 1
 427 770 l 1
 427 0 l 1
 0 0 l 1
 0 770 l 1
29 748 m 1
 213 398 l 1
 398 748 l 1
 29 748 l 1
221 383 m 1
 405 34 l 1
 405 733 l 1
 221 383 l 1
398 19 m 1
 213 369 l 1
 29 19 l 1
 398 19 l 1
22 733 m 1
 22 34 l 1
 206 383 l 1
 22 733 l 1
EndSplineSet
EndChar

StartChar: uni0015
Encoding: 21 21 22
Width: 427
GlyphClass: 2
Flags: W
LayerCount: 3
Fore
SplineSet
0 770 m 1,0,-1
 427 770 l 1,1,-1
 427 0 l 1,2,-1
 0 0 l 1,3,-1
 0 770 l 1,0,-1
29 748 m 1,4,-1
 213 398 l 1,5,-1
 398 748 l 1,6,-1
 29 748 l 1,4,-1
221 383 m 1,7,-1
 405 34 l 1,8,-1
 405 733 l 1,9,-1
 221 383 l 1,7,-1
398 19 m 1,10,-1
 213 369 l 1,11,-1
 29 19 l 1,12,-1
 398 19 l 1,10,-1
22 733 m 1,13,-1
 22 34 l 1,14,-1
 206 383 l 1,15,-1
 22 733 l 1,13,-1
EndSplineSet
Validated: 1
Layer: 2
SplineSet
0 770 m 1
 427 770 l 1
 427 0 l 1
 0 0 l 1
 0 770 l 1
29 748 m 1
 213 398 l 1
 398 748 l 1
 29 748 l 1
221 383 m 1
 405 34 l 1
 405 733 l 1
 221 383 l 1
398 19 m 1
 213 369 l 1
 29 19 l 1
 398 19 l 1
22 733 m 1
 22 34 l 1
 206 383 l 1
 22 733 l 1
EndSplineSet
EndChar

StartChar: uni0016
Encoding: 22 22 23
Width: 427
GlyphClass: 2
Flags: W
LayerCount: 3
Fore
SplineSet
0 770 m 1,0,-1
 427 770 l 1,1,-1
 427 0 l 1,2,-1
 0 0 l 1,3,-1
 0 770 l 1,0,-1
29 748 m 1,4,-1
 213 398 l 1,5,-1
 398 748 l 1,6,-1
 29 748 l 1,4,-1
221 383 m 1,7,-1
 405 34 l 1,8,-1
 405 733 l 1,9,-1
 221 383 l 1,7,-1
398 19 m 1,10,-1
 213 369 l 1,11,-1
 29 19 l 1,12,-1
 398 19 l 1,10,-1
22 733 m 1,13,-1
 22 34 l 1,14,-1
 206 383 l 1,15,-1
 22 733 l 1,13,-1
EndSplineSet
Validated: 1
Layer: 2
SplineSet
0 770 m 1
 427 770 l 1
 427 0 l 1
 0 0 l 1
 0 770 l 1
29 748 m 1
 213 398 l 1
 398 748 l 1
 29 748 l 1
221 383 m 1
 405 34 l 1
 405 733 l 1
 221 383 l 1
398 19 m 1
 213 369 l 1
 29 19 l 1
 398 19 l 1
22 733 m 1
 22 34 l 1
 206 383 l 1
 22 733 l 1
EndSplineSet
EndChar

StartChar: uni0017
Encoding: 23 23 24
Width: 427
GlyphClass: 2
Flags: W
LayerCount: 3
Fore
SplineSet
0 770 m 1,0,-1
 427 770 l 1,1,-1
 427 0 l 1,2,-1
 0 0 l 1,3,-1
 0 770 l 1,0,-1
29 748 m 1,4,-1
 213 398 l 1,5,-1
 398 748 l 1,6,-1
 29 748 l 1,4,-1
221 383 m 1,7,-1
 405 34 l 1,8,-1
 405 733 l 1,9,-1
 221 383 l 1,7,-1
398 19 m 1,10,-1
 213 369 l 1,11,-1
 29 19 l 1,12,-1
 398 19 l 1,10,-1
22 733 m 1,13,-1
 22 34 l 1,14,-1
 206 383 l 1,15,-1
 22 733 l 1,13,-1
EndSplineSet
Validated: 1
Layer: 2
SplineSet
0 770 m 1
 427 770 l 1
 427 0 l 1
 0 0 l 1
 0 770 l 1
29 748 m 1
 213 398 l 1
 398 748 l 1
 29 748 l 1
221 383 m 1
 405 34 l 1
 405 733 l 1
 221 383 l 1
398 19 m 1
 213 369 l 1
 29 19 l 1
 398 19 l 1
22 733 m 1
 22 34 l 1
 206 383 l 1
 22 733 l 1
EndSplineSet
EndChar

StartChar: uni0018
Encoding: 24 24 25
Width: 427
GlyphClass: 2
Flags: W
LayerCount: 3
Fore
SplineSet
0 770 m 1,0,-1
 427 770 l 1,1,-1
 427 0 l 1,2,-1
 0 0 l 1,3,-1
 0 770 l 1,0,-1
29 748 m 1,4,-1
 213 398 l 1,5,-1
 398 748 l 1,6,-1
 29 748 l 1,4,-1
221 383 m 1,7,-1
 405 34 l 1,8,-1
 405 733 l 1,9,-1
 221 383 l 1,7,-1
398 19 m 1,10,-1
 213 369 l 1,11,-1
 29 19 l 1,12,-1
 398 19 l 1,10,-1
22 733 m 1,13,-1
 22 34 l 1,14,-1
 206 383 l 1,15,-1
 22 733 l 1,13,-1
EndSplineSet
Validated: 1
Layer: 2
SplineSet
0 770 m 1
 427 770 l 1
 427 0 l 1
 0 0 l 1
 0 770 l 1
29 748 m 1
 213 398 l 1
 398 748 l 1
 29 748 l 1
221 383 m 1
 405 34 l 1
 405 733 l 1
 221 383 l 1
398 19 m 1
 213 369 l 1
 29 19 l 1
 398 19 l 1
22 733 m 1
 22 34 l 1
 206 383 l 1
 22 733 l 1
EndSplineSet
EndChar

StartChar: uni0019
Encoding: 25 25 26
Width: 427
GlyphClass: 2
Flags: W
LayerCount: 3
Fore
SplineSet
0 770 m 1,0,-1
 427 770 l 1,1,-1
 427 0 l 1,2,-1
 0 0 l 1,3,-1
 0 770 l 1,0,-1
29 748 m 1,4,-1
 213 398 l 1,5,-1
 398 748 l 1,6,-1
 29 748 l 1,4,-1
221 383 m 1,7,-1
 405 34 l 1,8,-1
 405 733 l 1,9,-1
 221 383 l 1,7,-1
398 19 m 1,10,-1
 213 369 l 1,11,-1
 29 19 l 1,12,-1
 398 19 l 1,10,-1
22 733 m 1,13,-1
 22 34 l 1,14,-1
 206 383 l 1,15,-1
 22 733 l 1,13,-1
EndSplineSet
Validated: 1
Layer: 2
SplineSet
0 770 m 1
 427 770 l 1
 427 0 l 1
 0 0 l 1
 0 770 l 1
29 748 m 1
 213 398 l 1
 398 748 l 1
 29 748 l 1
221 383 m 1
 405 34 l 1
 405 733 l 1
 221 383 l 1
398 19 m 1
 213 369 l 1
 29 19 l 1
 398 19 l 1
22 733 m 1
 22 34 l 1
 206 383 l 1
 22 733 l 1
EndSplineSet
EndChar

StartChar: uni001A
Encoding: 26 26 27
Width: 427
GlyphClass: 2
Flags: W
LayerCount: 3
Fore
SplineSet
0 770 m 1,0,-1
 427 770 l 1,1,-1
 427 0 l 1,2,-1
 0 0 l 1,3,-1
 0 770 l 1,0,-1
29 748 m 1,4,-1
 213 398 l 1,5,-1
 398 748 l 1,6,-1
 29 748 l 1,4,-1
221 383 m 1,7,-1
 405 34 l 1,8,-1
 405 733 l 1,9,-1
 221 383 l 1,7,-1
398 19 m 1,10,-1
 213 369 l 1,11,-1
 29 19 l 1,12,-1
 398 19 l 1,10,-1
22 733 m 1,13,-1
 22 34 l 1,14,-1
 206 383 l 1,15,-1
 22 733 l 1,13,-1
EndSplineSet
Validated: 1
Layer: 2
SplineSet
0 770 m 1
 427 770 l 1
 427 0 l 1
 0 0 l 1
 0 770 l 1
29 748 m 1
 213 398 l 1
 398 748 l 1
 29 748 l 1
221 383 m 1
 405 34 l 1
 405 733 l 1
 221 383 l 1
398 19 m 1
 213 369 l 1
 29 19 l 1
 398 19 l 1
22 733 m 1
 22 34 l 1
 206 383 l 1
 22 733 l 1
EndSplineSet
EndChar

StartChar: uni001B
Encoding: 27 27 28
Width: 427
GlyphClass: 2
Flags: W
LayerCount: 3
Fore
SplineSet
0 770 m 1,0,-1
 427 770 l 1,1,-1
 427 0 l 1,2,-1
 0 0 l 1,3,-1
 0 770 l 1,0,-1
29 748 m 1,4,-1
 213 398 l 1,5,-1
 398 748 l 1,6,-1
 29 748 l 1,4,-1
221 383 m 1,7,-1
 405 34 l 1,8,-1
 405 733 l 1,9,-1
 221 383 l 1,7,-1
398 19 m 1,10,-1
 213 369 l 1,11,-1
 29 19 l 1,12,-1
 398 19 l 1,10,-1
22 733 m 1,13,-1
 22 34 l 1,14,-1
 206 383 l 1,15,-1
 22 733 l 1,13,-1
EndSplineSet
Validated: 1
Layer: 2
SplineSet
0 770 m 1
 427 770 l 1
 427 0 l 1
 0 0 l 1
 0 770 l 1
29 748 m 1
 213 398 l 1
 398 748 l 1
 29 748 l 1
221 383 m 1
 405 34 l 1
 405 733 l 1
 221 383 l 1
398 19 m 1
 213 369 l 1
 29 19 l 1
 398 19 l 1
22 733 m 1
 22 34 l 1
 206 383 l 1
 22 733 l 1
EndSplineSet
EndChar

StartChar: uni001C
Encoding: 28 28 29
Width: 427
GlyphClass: 2
Flags: W
LayerCount: 3
Fore
SplineSet
0 770 m 1,0,-1
 427 770 l 1,1,-1
 427 0 l 1,2,-1
 0 0 l 1,3,-1
 0 770 l 1,0,-1
29 748 m 1,4,-1
 213 398 l 1,5,-1
 398 748 l 1,6,-1
 29 748 l 1,4,-1
221 383 m 1,7,-1
 405 34 l 1,8,-1
 405 733 l 1,9,-1
 221 383 l 1,7,-1
398 19 m 1,10,-1
 213 369 l 1,11,-1
 29 19 l 1,12,-1
 398 19 l 1,10,-1
22 733 m 1,13,-1
 22 34 l 1,14,-1
 206 383 l 1,15,-1
 22 733 l 1,13,-1
EndSplineSet
Validated: 1
Layer: 2
SplineSet
0 770 m 1
 427 770 l 1
 427 0 l 1
 0 0 l 1
 0 770 l 1
29 748 m 1
 213 398 l 1
 398 748 l 1
 29 748 l 1
221 383 m 1
 405 34 l 1
 405 733 l 1
 221 383 l 1
398 19 m 1
 213 369 l 1
 29 19 l 1
 398 19 l 1
22 733 m 1
 22 34 l 1
 206 383 l 1
 22 733 l 1
EndSplineSet
EndChar

StartChar: uni001E
Encoding: 30 30 31
Width: 427
GlyphClass: 2
Flags: W
LayerCount: 3
Fore
SplineSet
0 770 m 1,0,-1
 427 770 l 1,1,-1
 427 0 l 1,2,-1
 0 0 l 1,3,-1
 0 770 l 1,0,-1
29 748 m 1,4,-1
 213 398 l 1,5,-1
 398 748 l 1,6,-1
 29 748 l 1,4,-1
221 383 m 1,7,-1
 405 34 l 1,8,-1
 405 733 l 1,9,-1
 221 383 l 1,7,-1
398 19 m 1,10,-1
 213 369 l 1,11,-1
 29 19 l 1,12,-1
 398 19 l 1,10,-1
22 733 m 1,13,-1
 22 34 l 1,14,-1
 206 383 l 1,15,-1
 22 733 l 1,13,-1
EndSplineSet
Validated: 1
Layer: 2
SplineSet
0 770 m 1
 427 770 l 1
 427 0 l 1
 0 0 l 1
 0 770 l 1
29 748 m 1
 213 398 l 1
 398 748 l 1
 29 748 l 1
221 383 m 1
 405 34 l 1
 405 733 l 1
 221 383 l 1
398 19 m 1
 213 369 l 1
 29 19 l 1
 398 19 l 1
22 733 m 1
 22 34 l 1
 206 383 l 1
 22 733 l 1
EndSplineSet
EndChar

StartChar: uni001F
Encoding: 31 31 32
Width: 427
GlyphClass: 2
Flags: W
LayerCount: 3
Fore
SplineSet
0 770 m 1,0,-1
 427 770 l 1,1,-1
 427 0 l 1,2,-1
 0 0 l 1,3,-1
 0 770 l 1,0,-1
29 748 m 1,4,-1
 213 398 l 1,5,-1
 398 748 l 1,6,-1
 29 748 l 1,4,-1
221 383 m 1,7,-1
 405 34 l 1,8,-1
 405 733 l 1,9,-1
 221 383 l 1,7,-1
398 19 m 1,10,-1
 213 369 l 1,11,-1
 29 19 l 1,12,-1
 398 19 l 1,10,-1
22 733 m 1,13,-1
 22 34 l 1,14,-1
 206 383 l 1,15,-1
 22 733 l 1,13,-1
EndSplineSet
Validated: 1
Layer: 2
SplineSet
0 770 m 1
 427 770 l 1
 427 0 l 1
 0 0 l 1
 0 770 l 1
29 748 m 1
 213 398 l 1
 398 748 l 1
 29 748 l 1
221 383 m 1
 405 34 l 1
 405 733 l 1
 221 383 l 1
398 19 m 1
 213 369 l 1
 29 19 l 1
 398 19 l 1
22 733 m 1
 22 34 l 1
 206 383 l 1
 22 733 l 1
EndSplineSet
EndChar

StartChar: uni0021
Encoding: 33 33 34
Width: 256
GlyphClass: 2
Flags: W
LayerCount: 3
Fore
SplineSet
53 73 m 1,0,1
 53 104 53 104 74 124 c 128,-1,2
 95 144 95 144 127 144 c 0,3,4
 160 144 160 144 179 126.5 c 128,-1,5
 198 109 198 109 198 80 c 0,6,7
 198 48 198 48 176.5 24 c 128,-1,8
 155 0 155 0 122 0 c 2,9,-1
 118 0 l 1,10,11
 66 5 66 5 54 54 c 1,12,13
 52 69 52 69 53 73 c 1,0,1
212 266 m 0,14,15
 226 266 226 266 226 255 c 0,16,17
 226 241 226 241 194.5 218.5 c 128,-1,18
 163 196 163 196 138 183 c 1,19,20
 120 175 120 175 115 175 c 2,21,-1
 114 175 l 2,22,23
 82 175 82 175 82 232 c 2,24,-1
 82 264 l 1,25,26
 83 304 83 304 89 395.5 c 128,-1,27
 95 487 95 487 95 532 c 0,28,29
 95 537 95 537 93 542 c 128,-1,30
 91 547 91 547 89 549 c 128,-1,31
 87 551 87 551 82.5 556 c 128,-1,32
 78 561 78 561 77 562 c 0,33,34
 72 569 72 569 62 572 c 1,35,36
 43 575 43 575 43 597 c 0,37,38
 43 607 43 607 46 610.5 c 128,-1,39
 49 614 49 614 60 618 c 0,40,41
 83 626 83 626 140.5 634.5 c 128,-1,42
 198 643 198 643 222 652 c 0,43,44
 228 654 228 654 231 654 c 0,45,46
 248 654 248 654 256 630 c 0,47,48
 258 626 258 626 258 624 c 128,-1,49
 258 622 258 622 253 612 c 1,50,51
 247 606 247 606 232 599 c 0,52,53
 215 592 215 592 204 580 c 0,54,55
 191 564 191 564 184 538 c 1,56,57
 153 387 153 387 149 258 c 1,58,59
 147 251 147 251 152.5 244 c 128,-1,60
 158 237 158 237 166 240 c 0,61,62
 169 241 169 241 185.5 253.5 c 128,-1,63
 202 266 202 266 212 266 c 0,14,15
EndSplineSet
Validated: 1
Layer: 2
SplineSet
53 73 m 1
 53 93.6667 60 110.667 74 124 c 128
 88 137.333 105.667 144 127 144 c 0
 149 144 166.333 138.167 179 126.5 c 128
 191.667 114.833 198 99.3333 198 80 c 0
 198 58.6667 190.833 40 176.5 24 c 128
 162.167 8 144 0 122 0 c 2
 118 0 l 1
 83.3333 3.33333 62 21.3333 54 54 c 1
 52.6665 64 52.3331 70.3333 53 73 c 1
212 266 m 0
 221.333 266 226 262.333 226 255 c 0
 226 245.667 215.5 233.5 194.5 218.5 c 128
 173.5 203.5 154.667 191.667 138 183 c 1
 126 177.667 118.333 175 115 175 c 2
 114 175 l 2
 92.6667 175 82 194 82 232 c 2
 82 264 l 1
 82.6667 290.667 85 334.5 89 395.5 c 128
 93 456.5 95 502 95 532 c 0
 95 535.333 94.3333 538.667 93 542 c 128
 91.6667 545.333 90.3333 547.667 89 549 c 128
 87.6667 550.333 85.5 552.667 82.5 556 c 128
 79.5 559.333 77.6667 561.333 77 562 c 0
 73.6667 566.667 68.6667 570 62 572 c 1
 49.3333 574 43 582.333 43 597 c 0
 43 603.667 44 608.167 46 610.5 c 128
 48 612.833 52.6667 615.333 60 618 c 0
 75.3333 623.333 102.167 628.833 140.5 634.5 c 128
 178.833 640.167 206 646 222 652 c 0
 226 653.333 229 654 231 654 c 0
 242.333 654 250.667 646 256 630 c 0
 257.333 627.333 258 625.333 258 624 c 128
 258 622.667 256.333 618.667 253 612 c 1
 249 608 242 603.667 232 599 c 0
 220.666 594.333 211.333 588 204 580 c 0
 195.333 569.333 188.667 555.333 184 538 c 1
 163.333 437.333 151.667 344 149 258 c 1
 147.669 253.333 148.836 248.667 152.5 244 c 128
 156.167 239.333 160.667 238 166 240 c 0
 168 240.667 174.5 245.167 185.5 253.5 c 128
 196.5 261.833 205.333 266 212 266 c 0
EndSplineSet
EndChar

StartChar: uni0022
Encoding: 34 34 35
Width: 343
GlyphClass: 2
Flags: W
LayerCount: 3
Fore
SplineSet
253 431 m 1,0,-1
 232 431 l 1,1,2
 200 600 200 600 200 635 c 0,3,4
 200 652 200 652 212.5 664 c 128,-1,5
 225 676 225 676 243 676 c 0,6,7
 260 676 260 676 272.5 664 c 128,-1,8
 285 652 285 652 285 636 c 0,9,10
 285 599 285 599 253 431 c 1,0,-1
111 431 m 1,11,-1
 90 431 l 1,12,13
 58 600 58 600 58 635 c 0,14,15
 58 652 58 652 70.5 664 c 128,-1,16
 83 676 83 676 101 676 c 0,17,18
 118 676 118 676 130.5 664 c 128,-1,19
 143 652 143 652 143 636 c 0,20,21
 143 599 143 599 111 431 c 1,11,-1
EndSplineSet
Validated: 1
Layer: 2
SplineSet
253 431 m 1
 232 431 l 1
 210.667 543.667 200 611.667 200 635 c 0
 200 646.333 204.167 656 212.5 664 c 128
 220.833 672 231 676 243 676 c 0
 254.333 676 264.167 672 272.5 664 c 128
 280.833 656 285 646.667 285 636 c 0
 285 611.333 274.333 543 253 431 c 1
111 431 m 1
 90 431 l 1
 68.6667 543.667 58 611.667 58 635 c 0
 58 646.333 62.1667 656 70.5 664 c 128
 78.8333 672 89 676 101 676 c 0
 112.333 676 122.167 672 130.5 664 c 128
 138.833 656 143 646.667 143 636 c 0
 143 611.333 132.333 543 111 431 c 1
EndSplineSet
EndChar

StartChar: uni0023
Encoding: 35 35 36
Width: 521
GlyphClass: 2
Flags: W
LayerCount: 3
Fore
SplineSet
471 272 m 1,0,-1
 471 217 l 1,1,-1
 362 217 l 1,2,-1
 331 1 l 1,3,-1
 273 1 l 1,4,-1
 304 217 l 1,5,-1
 170 217 l 1,6,-1
 137 1 l 1,7,-1
 79 1 l 1,8,-1
 112 217 l 1,9,-1
 5 217 l 1,10,-1
 5 272 l 1,11,-1
 121 272 l 1,12,-1
 142 406 l 1,13,-1
 32 406 l 1,14,-1
 32 461 l 1,15,-1
 150 461 l 1,16,-1
 181 663 l 1,17,-1
 239 663 l 1,18,-1
 208 461 l 1,19,-1
 341 461 l 1,20,-1
 371 663 l 1,21,-1
 429 663 l 1,22,-1
 399 461 l 1,23,-1
 496 461 l 1,24,-1
 496 406 l 1,25,-1
 391 406 l 1,26,-1
 371 272 l 1,27,-1
 471 272 l 1,0,-1
333 406 m 1,28,-1
 200 406 l 1,29,-1
 179 272 l 1,30,-1
 313 272 l 1,31,-1
 333 406 l 1,28,-1
EndSplineSet
Validated: 1
Layer: 2
SplineSet
471 272 m 1
 471 217 l 1
 362 217 l 1
 331 1 l 1
 273 1 l 1
 304 217 l 1
 170 217 l 1
 137 1 l 1
 79 1 l 1
 112 217 l 1
 5 217 l 1
 5 272 l 1
 121 272 l 1
 142 406 l 1
 32 406 l 1
 32 461 l 1
 150 461 l 1
 181 663 l 1
 239 663 l 1
 208 461 l 1
 341 461 l 1
 371 663 l 1
 429 663 l 1
 399 461 l 1
 496 461 l 1
 496 406 l 1
 391 406 l 1
 371 272 l 1
 471 272 l 1
333 406 m 1
 200 406 l 1
 179 272 l 1
 313 272 l 1
 333 406 l 1
EndSplineSet
EndChar

StartChar: uni0024
Encoding: 36 36 37
Width: 500
GlyphClass: 2
Flags: W
LayerCount: 3
Fore
SplineSet
230 1 m 1,0,1
 165 1 165 1 128.5 12 c 128,-1,2
 92 23 92 23 44 52 c 1,3,-1
 44 182 l 1,4,-1
 59 182 l 1,5,6
 76 106 76 106 115 67.5 c 128,-1,7
 154 29 154 29 230 29 c 1,8,-1
 230 311 l 1,9,10
 132 366 132 366 92 409 c 0,11,12
 52 453 52 453 52 513 c 0,13,14
 52 645 52 645 230 665 c 1,15,-1
 230 728 l 1,16,-1
 264 728 l 1,17,-1
 264 665 l 1,18,19
 378 651 378 651 425 612 c 1,20,-1
 425 501 l 1,21,-1
 410 501 l 1,22,23
 397 564 397 564 362.5 597 c 128,-1,24
 328 630 328 630 264 638 c 1,25,-1
 264 392 l 1,26,27
 267 390 267 390 310.5 365 c 128,-1,28
 354 340 354 340 372 327 c 0,29,30
 381 321 381 321 386.5 317.5 c 128,-1,31
 392 314 392 314 397 309 c 128,-1,32
 402 304 402 304 404.5 301.5 c 128,-1,33
 407 299 407 299 413.5 291.5 c 128,-1,34
 420 284 420 284 424 279 c 0,35,36
 444 256 444 256 452 214 c 1,37,38
 457 198 457 198 457 171 c 0,39,40
 457 94 457 94 410 57 c 1,41,42
 364 18 364 18 264 1 c 1,43,-1
 264 -86 l 1,44,-1
 230 -86 l 1,45,-1
 230 1 l 1,0,1
230 408 m 1,46,-1
 230 638 l 1,47,48
 126 617 126 617 126 535 c 0,49,50
 126 501 126 501 146 475 c 0,51,52
 164 453 164 453 230 408 c 1,46,-1
264 294 m 1,53,-1
 264 29 l 1,54,55
 378 52 378 52 378 147 c 0,56,57
 378 195 378 195 356 221 c 1,58,59
 333 251 333 251 264 294 c 1,53,-1
EndSplineSet
Validated: 1
Layer: 2
SplineSet
230 1 m 1
 186.667 1 152.833 4.66667 128.5 12 c 128
 104.167 19.3333 76 32.6667 44 52 c 1
 44 182 l 1
 59 182 l 1
 70.3333 131.333 89 93.1667 115 67.5 c 128
 141 41.8333 179.333 29 230 29 c 1
 230 311 l 1
 164.667 347.667 118.667 380.333 92 409 c 0
 65.3333 438.333 52 473 52 513 c 0
 52 601 111.333 651.667 230 665 c 1
 230 728 l 1
 264 728 l 1
 264 665 l 1
 340 655.667 393.667 638 425 612 c 1
 425 501 l 1
 410 501 l 1
 401.333 543 385.5 575 362.5 597 c 128
 339.5 619 306.667 632.667 264 638 c 1
 264 392 l 1
 266 390.667 281.5 381.667 310.5 365 c 128
 339.5 348.333 360 335.666 372 327 c 0
 378 323 382.833 319.833 386.5 317.5 c 128
 390.167 315.167 393.667 312.333 397 309 c 128
 402 304 402 304 404.5 301.5 c 128
 406.167 299.833 409.167 296.5 413.5 291.5 c 128
 417.833 286.5 421.333 282.333 424 279 c 0
 437.335 263.667 446.668 242 452 214 c 1
 455.333 203.333 457 189 457 171 c 0
 457 119.667 441.333 81.6666 410 57 c 1
 379.333 31 330.667 12.3333 264 1 c 1
 264 -86 l 1
 230 -86 l 1
 230 1 l 1
230 408 m 1
 230 638 l 1
 160.667 624 126 589.667 126 535 c 0
 126 512.333 132.667 492.333 146 475 c 0
 158 460.333 186 438 230 408 c 1
264 294 m 1
 264 29 l 1
 340 44.3333 378 83.6667 378 147 c 0
 378 179 370.667 203.667 356 221 c 1
 340.667 241 310 265.333 264 294 c 1
EndSplineSet
EndChar

StartChar: uni0025
Encoding: 37 37 38
Width: 815
GlyphClass: 2
Flags: W
LayerCount: 3
Fore
SplineSet
569 1 m 0,0,1
 514 1 514 1 481.5 37 c 128,-1,2
 449 73 449 73 449 130 c 0,3,4
 449 223 449 223 516 298 c 1,5,6
 585 372 585 372 669 372 c 0,7,8
 718 372 718 372 745 344 c 128,-1,9
 772 316 772 316 772 265 c 0,10,11
 772 203 772 203 747.5 146.5 c 128,-1,12
 723 90 723 90 686 52 c 0,13,14
 635 1 635 1 569 1 c 0,0,1
525 95 m 0,15,16
 525 67 525 67 542 49 c 128,-1,17
 559 31 559 31 586 31 c 0,18,19
 632 31 632 31 669 70 c 128,-1,20
 706 109 706 109 726 159 c 1,21,22
 746 214 746 214 746 260 c 0,23,24
 746 292 746 292 725.5 316 c 128,-1,25
 705 340 705 340 676 340 c 0,26,27
 630 340 630 340 593.5 289 c 128,-1,28
 557 238 557 238 540 181 c 1,29,30
 525 127 525 127 525 95 c 0,15,16
179 290 m 0,31,32
 130 290 130 290 95.5 328 c 128,-1,33
 61 366 61 366 61 417 c 0,34,35
 61 511 61 511 128 587 c 1,36,37
 197 663 197 663 282 663 c 0,38,39
 314 663 314 663 332 649 c 0,40,41
 353 634 353 634 362.5 628.5 c 128,-1,42
 372 623 372 623 393.5 616 c 128,-1,43
 415 609 415 609 439 609 c 0,44,45
 487 609 487 609 520 624 c 1,46,47
 552 637 552 637 595 677 c 1,48,-1
 634 677 l 1,49,-1
 249 -12 l 1,50,-1
 201 -12 l 1,51,-1
 552 614 l 1,52,53
 500 584 500 584 442 584 c 0,54,55
 401 584 401 584 377 594 c 1,56,57
 384 570 384 570 384 550 c 0,58,59
 384 457 384 457 324 373 c 0,60,61
 265 290 265 290 179 290 c 0,31,32
137 385 m 0,62,63
 137 359 137 359 153.5 341.5 c 128,-1,64
 170 324 170 324 196 324 c 0,65,66
 257 324 257 324 308 395 c 0,67,68
 359 467 359 467 359 552 c 0,69,70
 359 571 359 571 350 601 c 1,71,72
 313 611 313 611 298 623 c 1,73,74
 288 633 288 633 282 633 c 0,75,76
 234 633 234 633 186 545 c 1,77,78
 137 459 137 459 137 385 c 0,62,63
EndSplineSet
Validated: 1
Layer: 2
SplineSet
569 1 m 0
 532.333 1 503.167 13 481.5 37 c 128
 459.833 61 449 92 449 130 c 0
 449 192 471.333 248 516 298 c 1
 562 347.333 613 372 669 372 c 0
 701.667 372 727 362.667 745 344 c 128
 763 325.333 772 299 772 265 c 0
 772 223.667 763.833 184.167 747.5 146.5 c 128
 731.167 108.833 710.667 77.3333 686 52 c 0
 652 18 613 1 569 1 c 0
525 95 m 0
 525 76.3333 530.667 61 542 49 c 128
 553.333 37 568 31 586 31 c 0
 616.669 31 644.336 44 669 70 c 128
 693.667 96 712.667 125.667 726 159 c 1
 739.333 195.667 746 229.333 746 260 c 0
 746 281.333 739.167 300 725.5 316 c 128
 711.833 332 695.333 340 676 340 c 0
 645.333 340 617.833 323 593.5 289 c 128
 569.166 255 551.332 219 540 181 c 1
 530 145 525 116.333 525 95 c 0
179 290 m 0
 146.333 290 118.5 302.667 95.5 328 c 128
 72.5 353.333 61 383 61 417 c 0
 61 479.667 83.3334 536.333 128 587 c 1
 174 637.667 225.333 663 282 663 c 0
 303.333 663 320 658.333 332 649 c 0
 346 639 356.167 632.167 362.5 628.5 c 128
 368.835 624.833 379.168 620.667 393.5 616 c 128
 407.833 611.333 423 609 439 609 c 0
 471 609 498 614 520 624 c 1
 541.333 632.669 566.333 650.336 595 677 c 1
 634 677 l 1
 249 -12 l 1
 201 -12 l 1
 552 614 l 1
 517.333 594 480.667 584 442 584 c 0
 414.667 584 393 587.333 377 594 c 1
 381.667 578 384 563.333 384 550 c 0
 384 488 364 429 324 373 c 0
 284.667 317.667 236.333 290 179 290 c 0
137 385 m 0
 137 367.667 142.5 353.167 153.5 341.5 c 128
 164.5 329.833 178.667 324 196 324 c 0
 236.667 324 274 347.667 308 395 c 0
 342 443 359 495.333 359 552 c 0
 359 564.667 356 581 350 601 c 1
 325.333 607.667 308 615 298 623 c 1
 291.333 629.667 286 633 282 633 c 0
 250 633 218 603.667 186 545 c 1
 153.333 487.667 137 434.333 137 385 c 0
EndSplineSet
EndChar

StartChar: uni0026
Encoding: 38 38 39
Width: 778
GlyphClass: 2
Flags: W
LayerCount: 3
Fore
SplineSet
491 555 m 256,0,1
 491 502 491 502 456 463 c 128,-1,2
 421 424 421 424 336 384 c 1,3,4
 370 318 370 318 398.5 273.5 c 128,-1,5
 427 229 427 229 468 178 c 1,6,7
 559 299 559 299 559 360 c 0,8,9
 559 383 559 383 545.5 392 c 128,-1,10
 532 401 532 401 495 405 c 1,11,-1
 495 426 l 1,12,-1
 711 426 l 1,13,-1
 711 405 l 1,14,15
 673 400 673 400 654 388.5 c 128,-1,16
 635 377 635 377 617 346 c 0,17,18
 615 342 615 342 605.5 325.5 c 128,-1,19
 596 309 596 309 594.5 306 c 128,-1,20
 593 303 593 303 585 289 c 128,-1,21
 577 275 577 275 574.5 271.5 c 128,-1,22
 572 268 572 268 564.5 255.5 c 128,-1,23
 557 243 557 243 553 237 c 128,-1,24
 549 231 549 231 541 219.5 c 128,-1,25
 533 208 533 208 526 198.5 c 128,-1,26
 519 189 519 189 510 176.5 c 128,-1,27
 501 164 501 164 491 150 c 1,28,29
 560 58 560 58 645 58 c 0,30,31
 672 58 672 58 691.5 69.5 c 128,-1,32
 711 81 711 81 735 111 c 1,33,-1
 750 100 l 1,34,35
 728 47 728 47 687.5 17 c 128,-1,36
 647 -13 647 -13 599 -13 c 0,37,38
 517 -13 517 -13 429 78 c 1,39,40
 373 29 373 29 323.5 8 c 128,-1,41
 274 -13 274 -13 213 -13 c 0,42,43
 133 -13 133 -13 87.5 27.5 c 128,-1,44
 42 68 42 68 42 139 c 0,45,46
 42 184 42 184 58.5 221.5 c 128,-1,47
 75 259 75 259 108 288.5 c 128,-1,48
 141 318 141 318 167.5 335.5 c 128,-1,49
 194 353 194 353 237 377 c 1,50,51
 202 474 202 474 202 522 c 0,52,53
 202 586 202 586 247 631 c 128,-1,54
 292 676 292 676 356 676 c 0,55,56
 415 676 415 676 453 642 c 128,-1,57
 491 608 491 608 491 555 c 256,0,1
321 416 m 1,58,59
 382 449 382 449 410 483 c 128,-1,60
 438 517 438 517 438 559 c 0,61,62
 438 596 438 596 415.5 620 c 128,-1,63
 393 644 393 644 358.5 644 c 128,-1,64
 324 644 324 644 302.5 621 c 128,-1,65
 281 598 281 598 281 562 c 0,66,67
 281 500 281 500 321 416 c 1,58,59
252 343 m 1,68,69
 187 301 187 301 160.5 264.5 c 128,-1,70
 134 228 134 228 134 180 c 0,71,72
 134 122 134 122 172 80.5 c 128,-1,73
 210 39 210 39 263 39 c 0,74,75
 322 39 322 39 404 104 c 1,76,77
 361 157 361 157 329 207.5 c 128,-1,78
 297 258 297 258 252 343 c 1,68,69
EndSplineSet
Validated: 1
Layer: 2
SplineSet
491 555 m 256
 491 519.666 479.333 488.999 456 463 c 128
 432.667 437 392.667 410.667 336 384 c 1
 358.667 340 379.5 303.167 398.5 273.5 c 128
 417.5 243.833 440.667 212 468 178 c 1
 528.667 258.667 559 319.333 559 360 c 0
 559 375.333 554.5 386 545.5 392 c 128
 536.5 398 519.667 402.333 495 405 c 1
 495 426 l 1
 711 426 l 1
 711 405 l 1
 685.667 401.667 666.667 396.167 654 388.5 c 128
 641.333 380.833 629 366.666 617 346 c 0
 615.657 343.333 611.824 336.5 605.5 325.5 c 128
 599.167 314.5 595.5 308 594.5 306 c 128
 593.5 304 590.333 298.333 585 289 c 128
 579.667 279.667 576.167 273.833 574.5 271.5 c 128
 572.833 269.167 569.5 263.833 564.5 255.5 c 128
 559.5 247.167 555.667 241 553 237 c 128
 550.333 233 546.333 227.167 541 219.5 c 128
 535.667 211.833 530.667 204.833 526 198.5 c 128
 521.333 192.166 516 184.833 510 176.5 c 128
 504 168.166 497.667 159.333 491 150 c 1
 537 88.6666 588.333 58 645 58 c 0
 663 58 678.5 61.8333 691.5 69.5 c 128
 704.5 77.1667 719 91 735 111 c 1
 750 100 l 1
 735.333 64.6667 714.5 37 687.5 17 c 128
 660.5 -3 631 -13 599 -13 c 0
 544.333 -13 487.667 17.3333 429 78 c 1
 391.667 45.3333 356.5 22 323.5 8 c 128
 290.5 -6 253.667 -13 213 -13 c 0
 159.667 -13 117.833 0.5 87.5 27.5 c 128
 57.1667 54.5 42 91.6667 42 139 c 0
 42 169 47.5 196.5 58.5 221.5 c 128
 69.5 246.5 86 268.833 108 288.5 c 128
 130 308.167 149.833 323.833 167.5 335.5 c 128
 185.167 347.167 208.334 361 237 377 c 1
 213.667 441.667 202 490 202 522 c 0
 202 564.667 217 601 247 631 c 128
 277 661 313.333 676 356 676 c 0
 395.334 676 427.667 664.667 453 642 c 128
 478.333 619.333 491 590.333 491 555 c 256
321 416 m 1
 361.667 438 391.333 460.333 410 483 c 128
 428.667 505.667 438 531 438 559 c 0
 438 583.667 430.5 604 415.5 620 c 128
 400.5 636 381.5 644 358.5 644 c 128
 335.5 644 316.833 636.333 302.5 621 c 128
 288.167 605.667 281 586 281 562 c 0
 281 520.666 294.333 472 321 416 c 1
252 343 m 1
 208.667 315 178.167 288.833 160.5 264.5 c 128
 142.833 240.167 134 212 134 180 c 0
 134 141.333 146.667 108.167 172 80.5 c 128
 197.333 52.8333 227.667 39 263 39 c 0
 302.333 39 349.333 60.6667 404 104 c 1
 375.333 139.333 350.333 173.833 329 207.5 c 128
 307.667 241.167 282 286.333 252 343 c 1
EndSplineSet
EndChar

StartChar: uni0027
Encoding: 39 39 40
Width: 200
GlyphClass: 2
Flags: W
LayerCount: 3
Fore
SplineSet
111 431 m 1,0,-1
 90 431 l 1,1,2
 58 600 58 600 58 635 c 0,3,4
 58 652 58 652 70.5 664 c 128,-1,5
 83 676 83 676 101 676 c 0,6,7
 118 676 118 676 130.5 664 c 128,-1,8
 143 652 143 652 143 636 c 0,9,10
 143 599 143 599 111 431 c 1,0,-1
EndSplineSet
Validated: 1
Layer: 2
SplineSet
111 431 m 1
 90 431 l 1
 68.6667 543.667 58 611.667 58 635 c 0
 58 646.333 62.1667 656 70.5 664 c 128
 78.8333 672 89 676 101 676 c 0
 112.333 676 122.167 672 130.5 664 c 128
 138.833 656 143 646.667 143 636 c 0
 143 611.333 132.333 543 111 431 c 1
EndSplineSet
EndChar

StartChar: uni0028
Encoding: 40 40 41
Width: 500
GlyphClass: 2
Flags: W
LayerCount: 3
Fore
SplineSet
301 328 m 256,0,1
 301 145 301 145 330.5 23 c 128,-1,2
 360 -99 360 -99 433 -185 c 1,3,-1
 410 -219 l 1,4,5
 279 -124 279 -124 206 11 c 0,6,7
 129 153 129 153 129 309 c 2,8,-1
 129 347 l 2,9,10
 129 517 129 517 206 649.5 c 128,-1,11
 283 782 283 782 410 876 c 1,12,-1
 433 842 l 1,13,14
 360 756 360 756 330.5 633.5 c 128,-1,15
 301 511 301 511 301 328 c 256,0,1
EndSplineSet
Validated: 1
Layer: 2
SplineSet
301 328 m 256
 301 206 310.833 104.333 330.5 23 c 128
 350.167 -58.3333 384.333 -127.667 433 -185 c 1
 410 -219 l 1
 322.667 -155.667 254.667 -79 206 11 c 0
 154.667 105.667 129 205 129 309 c 2
 129 347 l 2
 129 460.333 154.667 561.167 206 649.5 c 128
 257.333 737.833 325.333 813.333 410 876 c 1
 433 842 l 1
 384.333 784.667 350.166 715.167 330.5 633.5 c 128
 310.833 551.833 301 450 301 328 c 256
EndSplineSet
EndChar

StartChar: uni0029
Encoding: 41 41 42
Width: 476
GlyphClass: 2
Flags: W
LayerCount: 3
Fore
SplineSet
153 876 m 1,0,1
 278 781 278 781 355.5 647.5 c 128,-1,2
 433 514 433 514 433 347 c 2,3,-1
 433 309 l 2,4,5
 433 141 433 141 354.5 6 c 128,-1,6
 276 -129 276 -129 153 -219 c 1,7,-1
 129 -185 l 1,8,9
 201 -102 201 -102 230.5 22.5 c 128,-1,10
 260 147 260 147 260 328 c 0,11,12
 260 513 260 513 231 634.5 c 128,-1,13
 202 756 202 756 129 842 c 1,14,-1
 153 876 l 1,0,1
EndSplineSet
Validated: 1
Layer: 2
SplineSet
153 876 m 1
 236.333 812.667 303.833 736.5 355.5 647.5 c 128
 407.167 558.5 433 458.333 433 347 c 2
 433 309 l 2
 433 197 406.833 96 354.5 6 c 128
 302.167 -84 235 -159 153 -219 c 1
 129 -185 l 1
 177 -129.667 210.833 -60.5 230.5 22.5 c 128
 250.167 105.5 260 207.333 260 328 c 0
 260 451.333 250.333 553.5 231 634.5 c 128
 211.667 715.5 177.667 784.667 129 842 c 1
 153 876 l 1
EndSplineSet
EndChar

StartChar: uni002A
Encoding: 42 42 43
Width: 283
GlyphClass: 2
Flags: W
LayerCount: 3
Fore
SplineSet
109 720 m 1,0,-1
 112 733 l 2,1,2
 113 736 113 736 114 740.5 c 128,-1,3
 115 745 115 745 116 747 c 0,4,5
 120 751 120 751 120 752 c 0,6,7
 120 756 120 756 127 756 c 0,8,9
 128 756 128 756 129 756 c 128,-1,10
 130 756 130 756 130 756 c 2,11,12
 140 756 140 756 145 718 c 0,13,14
 150 679 150 679 155 675 c 128,-1,15
 160 671 160 671 166 672 c 0,16,17
 178 673 178 673 193 680 c 0,18,19
 221 692 221 692 230 692 c 0,20,21
 240 692 240 692 240 684 c 0,22,23
 240 681 240 681 226 667 c 128,-1,24
 212 653 212 653 206 649.5 c 128,-1,25
 200 646 200 646 198 644 c 2,26,27
 198 644 198 644 192 639 c 0,28,29
 181 630 181 630 181 624 c 0,30,31
 181 611 181 611 190 604 c 0,32,33
 200 596 200 596 205 592 c 128,-1,34
 210 588 210 588 214 585.5 c 128,-1,35
 218 583 218 583 231 572 c 128,-1,36
 244 561 244 561 244 555 c 0,37,38
 244 546 244 546 231 546 c 1,39,40
 231 545 231 545 230 545 c 0,41,42
 218 548 218 548 196 557 c 2,43,-1
 172 566 l 2,44,45
 172 567 172 567 159 569 c 0,46,47
 153 570 153 570 149.5 559 c 128,-1,48
 146 548 146 548 140.5 530 c 128,-1,49
 135 512 135 512 131.5 504.5 c 128,-1,50
 128 497 128 497 123 497 c 0,51,52
 110 498 110 498 101 533 c 128,-1,53
 92 568 92 568 90 570 c 0,54,55
 85 575 85 575 68 567 c 0,56,57
 24 546 24 546 15 546 c 2,58,59
 15 546 15 546 14 546 c 0,60,61
 3 547 3 547 3 553.5 c 128,-1,62
 3 560 3 560 14 570 c 0,63,64
 29 584 29 584 41 593 c 0,65,66
 63 608 63 608 63 619 c 0,67,68
 63 623 63 623 45 641 c 0,69,70
 23 663 23 663 16 668 c 0,71,72
 0 681 0 681 0 688 c 2,73,-1
 0 691 l 1,74,75
 3 696 3 696 11 696 c 0,76,77
 24 696 24 696 55 681 c 1,78,-1
 71 675 l 2,79,80
 88 668 88 668 93.5 673 c 128,-1,81
 99 678 99 678 101.5 686.5 c 128,-1,82
 104 695 104 695 105 695 c 1,83,84
 105 708 105 708 109 720 c 1,0,-1
157 621 m 128,-1,86
 157 634 157 634 146 646 c 1,87,88
 135 660 135 660 122 660 c 2,89,90
 122 660 122 660 121 660 c 0,91,92
 108 660 108 660 98 649 c 128,-1,93
 88 638 88 638 88 623.5 c 128,-1,94
 88 609 88 609 98 600 c 0,95,96
 106 593 106 593 118 593 c 0,97,98
 119 593 119 593 121 593 c 0,99,100
 133 593 133 593 146 601 c 0,101,85
 157 608 157 608 157 621 c 128,-1,86
EndSplineSet
Validated: 1
Layer: 2
SplineSet
109 720 m 1
 112 733 l 2
 112.667 735 113.333 737.5 114 740.5 c 128
 114.667 743.5 115.333 745.667 116 747 c 0
 118.667 749.69 120 751.356 120 752 c 0
 120 754.667 122.333 756 127 756 c 0
 128 756 128 756 129 756 c 128
 130 756 l 2
 136.667 756 141.667 743.333 145 718 c 0
 148.333 692 151.667 677.667 155 675 c 128
 158.333 672.333 162 671.333 166 672 c 0
 174 672.677 183 675.344 193 680 c 0
 211.667 688 224 692 230 692 c 0
 236.667 692 240 689.333 240 684 c 0
 240 682 235.333 676.333 226 667 c 128
 216.667 657.657 210 651.823 206 649.5 c 128
 202 647.147 199.333 645.314 198 644 c 2
 198 644 198 644 192 639 c 0
 184.667 633 181 628 181 624 c 0
 181 615.333 184 608.667 190 604 c 0
 200 596 200 596 205 592 c 128
 208.333 589.333 211.333 587.167 214 585.5 c 128
 216.667 583.833 222.334 579.333 231 572 c 128
 239.667 564.667 244 559 244 555 c 0
 244 549 239.667 546 231 546 c 1
 231 545.333 230.667 545 230 545 c 0
 222 547 210.667 551 196 557 c 2
 172 566 l 2
 172 566.667 167.667 567.667 159 569 c 0
 155 569.664 151.833 566.331 149.5 559 c 128
 147.167 551.667 144.167 542 140.5 530 c 128
 136.833 518 133.833 509.5 131.5 504.5 c 128
 129.167 499.5 126.333 497 123 497 c 0
 114.333 497.667 107 509.667 101 533 c 128
 95 556.333 91.3333 568.667 90 570 c 0
 86.6667 573.333 79.3333 572.333 68 567 c 0
 38.6667 553 21 546 15 546 c 2
 15 546 15 546 14 546 c 0
 6.66667 546.667 3 549.167 3 553.5 c 128
 3 557.833 6.66667 563.333 14 570 c 0
 24 579.333 33 587 41 593 c 0
 55.6667 603 63 611.667 63 619 c 0
 63 621.667 57 629 45 641 c 0
 30.3333 655.667 20.6667 664.667 16 668 c 0
 5.33333 676.669 0 683.336 0 688 c 2
 0 691 l 1
 2 694.333 5.66667 696 11 696 c 0
 19.6667 696 34.3333 691 55 681 c 1
 71 675 l 2
 82.3333 670.333 89.8333 669.667 93.5 673 c 128
 97.1667 676.333 99.8333 680.833 101.5 686.5 c 128
 103.167 692.167 104.333 695 105 695 c 1
 105 703.667 106.333 712 109 720 c 1
157 621 m 128
 157 629.667 153.333 638 146 646 c 1
 138.667 655.333 130.667 660 122 660 c 2
 122 660 122 660 121 660 c 0
 112.333 660 104.667 656.333 98 649 c 128
 91.3333 641.667 88 633.167 88 623.5 c 128
 88 613.833 91.3333 606 98 600 c 0
 103.333 595.333 110 593 118 593 c 0
 119 593 119 593 121 593 c 0
 129 593 137.333 595.667 146 601 c 0
 153.333 605.671 157 612.338 157 621 c 128
EndSplineSet
EndChar

StartChar: uni002B
Encoding: 43 43 44
Width: 406
GlyphClass: 2
Flags: W
LayerCount: 3
Fore
SplineSet
331 228 m 2,0,-1
 365 228 l 1,1,-1
 372 228 l 2,2,3
 383 228 383 228 383 206 c 128,-1,4
 383 184 383 184 372 180 c 0,5,6
 364 177 364 177 353 177 c 2,7,-1
 218 177 l 1,8,-1
 218 104 l 2,9,10
 218 77 218 77 218 58.5 c 128,-1,11
 218 40 218 40 218 31 c 2,12,-1
 218 24 l 2,13,14
 218 13 218 13 198 13 c 0,15,16
 172 13 172 13 172 36 c 2,17,-1
 172 182 l 1,18,-1
 151 182 l 1,19,-1
 136 182 l 1,20,21
 70 180 70 180 70 179 c 1,22,23
 70 179 70 179 50 179 c 0,24,25
 42 179 42 179 19 182 c 0,26,27
 10 183 10 183 10 195.5 c 128,-1,28
 10 208 10 208 18 224 c 0,29,30
 21 230 21 230 32 232 c 1,31,-1
 50 230 l 1,32,-1
 172 230 l 1,33,-1
 172 245 l 1,34,35
 169 260 169 260 169 305 c 0,36,37
 169 344 169 344 172 377 c 0,38,39
 173 388 173 388 186.5 388 c 128,-1,40
 200 388 200 388 210.5 381 c 128,-1,41
 221 374 221 374 222 364 c 1,42,-1
 222 346 l 1,43,-1
 222 228 l 1,44,-1
 295 228 l 2,45,46
 317 228 317 228 331 228 c 2,0,-1
EndSplineSet
Validated: 1
Layer: 2
SplineSet
331 228 m 2
 365 228 l 1
 372 228 l 2
 379.333 228 383 220.667 383 206 c 128
 383 191.333 379.333 182.667 372 180 c 0
 366.667 178 360.333 177 353 177 c 2
 218 177 l 1
 218 104 l 2
 218 77 218 77 218 58.5 c 128
 218 40 218 40 218 31 c 2
 218 24 l 2
 218 16.6667 211.333 13 198 13 c 0
 180.667 13 172 20.6667 172 36 c 2
 172 182 l 1
 151 182 l 1
 136 182 l 1
 92 180.667 70 179.667 70 179 c 1
 70 179 70 179 50 179 c 0
 44.6667 179 34.3333 180 19 182 c 0
 13 182.667 10 187.167 10 195.5 c 128
 10 203.833 12.6667 213.333 18 224 c 0
 20 228 24.6667 230.667 32 232 c 1
 50 230 l 1
 172 230 l 1
 172 245 l 1
 170 255 169 275 169 305 c 0
 169 331 170 355 172 377 c 0
 172.667 384.333 177.5 388 186.5 388 c 128
 195.5 388 203.5 385.667 210.5 381 c 128
 217.5 376.33 221.333 370.664 222 364 c 1
 222 346 l 1
 222 228 l 1
 295 228 l 2
 317 228 317 228 331 228 c 2
EndSplineSet
EndChar

StartChar: uni002C
Encoding: 44 44 45
Width: 302
GlyphClass: 2
Flags: W
LayerCount: 3
Fore
SplineSet
36 -4 m 0,0,1
 27 -4 27 -4 27 8 c 0,2,3
 27 29 27 29 65 56 c 0,4,5
 116 93 116 93 180 102 c 1,6,7
 187 104 187 104 200 104 c 0,8,9
 262 104 262 104 262 45 c 0,10,11
 262 21 262 21 250 -9 c 1,12,13
 234 -54 234 -54 166 -104 c 1,14,15
 100 -154 100 -154 59 -158 c 1,16,17
 59 -158 59 -158 57 -158 c 0,18,19
 37 -158 37 -158 37 -142 c 0,20,21
 37 -130 37 -130 48 -122 c 0,22,23
 96 -88 96 -88 124 -49 c 0,24,25
 141 -25 141 -25 141 1 c 0,26,27
 141 21 141 21 126 28 c 0,28,29
 120 30 120 30 114 30 c 0,30,31
 102 30 102 30 95 24 c 0,32,33
 60 -2 60 -2 44 -4 c 1,34,35
 44 -4 44 -4 36 -4 c 0,0,1
EndSplineSet
Validated: 1
Layer: 2
SplineSet
36 -4 m 0
 30 -4 27 0 27 8 c 0
 27 22 39.6667 38 65 56 c 0
 99 80.6667 137.333 96 180 102 c 1
 184.667 103.333 191.334 104 200 104 c 0
 241.333 104 262 84.3333 262 45 c 0
 262 29 258 11 250 -9 c 1
 239.333 -39 211.333 -70.6667 166 -104 c 1
 122 -137.333 86.3333 -155.333 59 -158 c 1
 59 -158 59 -158 57 -158 c 0
 43.6667 -158 37 -152.667 37 -142 c 0
 37 -134 40.6667 -127.333 48 -122 c 0
 80 -99.3333 105.333 -75 124 -49 c 0
 135.333 -33 141 -16.3333 141 1 c 0
 141 14.3333 136 23.3333 126 28 c 0
 122 29.3333 118 30 114 30 c 0
 106 30 99.6667 28 95 24 c 0
 71.6667 6.66667 54.6667 -2.66667 44 -4 c 1
 44 -4 44 -4 36 -4 c 0
EndSplineSet
EndChar

StartChar: uni002D
Encoding: 45 45 46
Width: 394
GlyphClass: 2
Flags: W
LayerCount: 3
Fore
SplineSet
358 242 m 2,0,1
 370 242 370 242 370 222 c 0,2,3
 370 199 370 199 360 194 c 1,4,5
 351 191 351 191 347 191 c 0,6,7
 338 191 338 191 313 193 c 0,8,9
 288 194 288 194 274 194 c 0,10,11
 216 196 216 196 180 196 c 0,12,13
 156 196 156 196 156 196 c 2,14,15
 154 196 154 196 133 195 c 0,16,17
 78 193 78 193 70 193 c 0,18,19
 31 194 31 194 16 196 c 0,20,21
 7 197 7 197 7 208 c 128,-1,22
 7 219 7 219 15 238 c 0,23,24
 18 245 18 245 29 246 c 1,25,-1
 78 246 l 2,26,27
 122 246 122 246 143 245 c 0,28,29
 186 243 186 243 205 243 c 1,30,31
 216 242 216 242 240 242 c 128,-1,32
 264 242 264 242 280 243 c 1,33,34
 300 243 300 243 319 243 c 0,35,36
 342 243 342 243 352 242 c 1,37,-1
 358 242 l 2,0,1
EndSplineSet
Validated: 1
Layer: 2
SplineSet
358 242 m 2
 366 242 370 235.333 370 222 c 0
 370 206.666 366.667 197.333 360 194 c 1
 354 192 349.667 191 347 191 c 0
 341 191 329.667 191.667 313 193 c 0
 296.333 193.667 283.333 194 274 194 c 0
 235.333 195.333 204 196 180 196 c 0
 156 196 l 2
 154.667 196 147 195.667 133 195 c 0
 96.3333 193.667 75.3333 193 70 193 c 0
 44 193.667 26 194.667 16 196 c 0
 10 196.667 7 200.667 7 208 c 128
 7 215.333 9.66667 225.333 15 238 c 0
 17 242.667 21.6667 245.334 29 246 c 1
 78 246 l 2
 107.333 246 129 245.667 143 245 c 0
 171.667 243.667 192.334 243 205 243 c 1
 212.333 242.333 224 242 240 242 c 128
 256 242 269.333 242.333 280 243 c 1
 300 243 300 243 319 243 c 0
 334.333 243 345.333 242.667 352 242 c 1
 358 242 l 2
EndSplineSet
EndChar

StartChar: uni002E
Encoding: 46 46 47
Width: 238
GlyphClass: 2
Flags: W
LayerCount: 3
Fore
SplineSet
190 115 m 0,0,1
 199 100 199 100 199 83 c 0,2,3
 199 49 199 49 177 25 c 0,4,5
 154 0 154 0 122 0 c 2,6,7
 122 0 122 0 118 0 c 0,8,9
 66 5 66 5 54 54 c 0,10,11
 53 60 53 60 53 69 c 0,12,13
 53 115 53 115 91 136 c 1,14,15
 103 144 103 144 127 144 c 0,16,17
 153 144 153 144 170 134 c 0,18,19
 183 127 183 127 190 115 c 0,0,1
EndSplineSet
Validated: 1
Layer: 2
SplineSet
190 115 m 0
 196 105 199 94.3333 199 83 c 0
 199 60.3333 191.667 41 177 25 c 0
 161.667 8.33333 143.333 9.53674e-07 122 0 c 2
 122 0 122 0 118 0 c 0
 83.3333 3.33333 62 21.3333 54 54 c 0
 53.3333 58 53 63 53 69 c 0
 53 99.6667 65.6667 122 91 136 c 1
 99 141.333 111 144 127 144 c 0
 144.333 144 158.667 140.667 170 134 c 0
 178.667 129.333 185.334 123 190 115 c 0
EndSplineSet
EndChar

StartChar: uni002F
Encoding: 47 47 48
Width: 390
GlyphClass: 2
Flags: W
LayerCount: 3
Fore
SplineSet
300 774 m 1,0,-1
 360 774 l 1,1,-1
 130 0 l 1,2,-1
 70 0 l 1,3,-1
 300 774 l 1,0,-1
EndSplineSet
Validated: 1
Layer: 2
SplineSet
300 774 m 1
 360 774 l 1
 130 0 l 1
 70 0 l 1
 300 774 l 1
EndSplineSet
EndChar

StartChar: uni0030
Encoding: 48 48 49
Width: 500
GlyphClass: 2
Flags: W
LayerCount: 3
Fore
SplineSet
250 -14 m 128,-1,1
 148 -14 148 -14 86 84 c 128,-1,2
 24 182 24 182 24 336 c 0,3,4
 24 481 24 481 86 578.5 c 128,-1,5
 148 676 148 676 254 676 c 0,6,7
 352 676 352 676 414 580 c 128,-1,8
 476 484 476 484 476 330 c 0,9,10
 476 178 476 178 414 82 c 128,-1,0
 352 -14 352 -14 250 -14 c 128,-1,1
251 650 m 0,11,12
 120 650 120 650 120 327 c 0,13,14
 120 12 120 12 250 12 c 128,-1,15
 380 12 380 12 380 328 c 0,16,17
 380 485 380 485 347 567.5 c 128,-1,18
 314 650 314 650 251 650 c 0,11,12
EndSplineSet
Validated: 1
Layer: 2
SplineSet
250 -14 m 128
 182 -14 127.333 18.6667 86 84 c 128
 44.6667 149.333 24 233.333 24 336 c 0
 24 432.667 44.6667 513.5 86 578.5 c 128
 127.333 643.5 183.333 676 254 676 c 0
 319.333 676 372.667 644 414 580 c 128
 455.333 516 476 432.667 476 330 c 0
 476 228.667 455.333 146 414 82 c 128
 372.667 18 318 -14 250 -14 c 128
251 650 m 0
 163.667 650 120 542.333 120 327 c 0
 120 117 163.333 12 250 12 c 128
 336.667 12 380 117.333 380 328 c 0
 380 432.667 369 512.5 347 567.5 c 128
 325 622.5 293 650 251 650 c 0
EndSplineSet
EndChar

StartChar: uni0031
Encoding: 49 49 50
Width: 500
GlyphClass: 2
Flags: W
LayerCount: 3
Fore
SplineSet
183 593 m 0,0,1
 165 593 165 593 111 571 c 1,2,-1
 111 585 l 1,3,-1
 291 676 l 1,4,-1
 299 674 l 1,5,-1
 299 74 l 2,6,7
 299 38 299 38 317 27 c 128,-1,8
 335 16 335 16 394 15 c 1,9,-1
 394 0 l 1,10,-1
 118 0 l 1,11,-1
 118 15 l 1,12,13
 174 17 174 17 193.5 31.5 c 128,-1,14
 213 46 213 46 213 93 c 2,15,-1
 213 546 l 2,16,17
 213 593 213 593 183 593 c 0,0,1
EndSplineSet
Validated: 1
Layer: 2
SplineSet
183 593 m 0
 171 593 147 585.667 111 571 c 1
 111 585 l 1
 291 676 l 1
 299 674 l 1
 299 74 l 2
 299 50 305 34.3333 317 27 c 128
 329 19.6667 354.667 15.6667 394 15 c 1
 394 0 l 1
 118 0 l 1
 118 15 l 1
 155.333 16.3333 180.5 21.8333 193.5 31.5 c 128
 206.5 41.1667 213 61.6667 213 93 c 2
 213 546 l 2
 213 577.333 203 593 183 593 c 0
EndSplineSet
EndChar

StartChar: uni0032
Encoding: 50 50 51
Width: 500
GlyphClass: 2
Flags: W
LayerCount: 3
Fore
SplineSet
31 477 m 1,0,1
 36 500 36 500 41 517 c 128,-1,2
 46 534 46 534 62.5 566.5 c 128,-1,3
 79 599 79 599 99.5 620.5 c 128,-1,4
 120 642 120 642 156.5 659 c 128,-1,5
 193 676 193 676 239 676 c 0,6,7
 317 676 317 676 370.5 625 c 128,-1,8
 424 574 424 574 424 499 c 0,9,10
 424 386 424 386 296 252 c 2,11,-1
 128 76 l 1,12,-1
 367 76 l 2,13,14
 401 76 401 76 417.5 87.5 c 128,-1,15
 434 99 434 99 462 142 c 1,16,-1
 475 137 l 1,17,-1
 420 0 l 1,18,-1
 30 0 l 1,19,-1
 30 12 l 1,20,-1
 208 201 l 2,21,22
 338 339 338 339 338 461 c 0,23,24
 338 524 338 524 299 563 c 128,-1,25
 260 602 260 602 197 602 c 0,26,27
 145 602 145 602 113.5 573.5 c 128,-1,28
 82 545 82 545 52 472 c 1,29,-1
 31 477 l 1,0,1
EndSplineSet
Validated: 1
Layer: 2
SplineSet
31 477 m 1
 34.3333 492.335 37.6667 505.669 41 517 c 128
 44.3333 528.333 51.5 544.833 62.5 566.5 c 128
 73.5 588.167 85.8333 606.167 99.5 620.5 c 128
 113.167 634.833 132.167 647.667 156.5 659 c 128
 180.833 670.333 208.333 676 239 676 c 0
 291 676 334.833 659 370.5 625 c 128
 406.167 591 424 549 424 499 c 0
 424 423.667 381.333 341.333 296 252 c 2
 128 76 l 1
 367 76 l 2
 389.667 76 406.5 79.8333 417.5 87.5 c 128
 428.5 95.1667 443.333 113.333 462 142 c 1
 475 137 l 1
 420 0 l 1
 30 0 l 1
 30 12 l 1
 208 201 l 2
 294.667 293 338 379.667 338 461 c 0
 338 503 325 537 299 563 c 128
 273 589 239 602 197 602 c 0
 162.333 602 134.5 592.5 113.5 573.5 c 128
 92.5 554.5 72 520.667 52 472 c 1
 31 477 l 1
EndSplineSet
EndChar

StartChar: uni0033
Encoding: 51 51 52
Width: 500
GlyphClass: 2
Flags: W
LayerCount: 3
Fore
SplineSet
81 78 m 0,0,1
 104 78 104 78 149.5 50 c 128,-1,2
 195 22 195 22 229 22 c 0,3,4
 284 22 284 22 322 65 c 128,-1,5
 360 108 360 108 360 171 c 0,6,7
 360 210 360 210 346.5 240 c 128,-1,8
 333 270 333 270 312 286.5 c 128,-1,9
 291 303 291 303 262 313.5 c 128,-1,10
 233 324 233 324 207.5 327 c 128,-1,11
 182 330 182 330 153 330 c 1,12,-1
 153 343 l 1,13,14
 187 355 187 355 211.5 366.5 c 128,-1,15
 236 378 236 378 263 397.5 c 128,-1,16
 290 417 290 417 304.5 445 c 128,-1,17
 319 473 319 473 319 509 c 0,18,19
 319 556 319 556 288.5 586 c 128,-1,20
 258 616 258 616 209 616 c 0,21,22
 162 616 162 616 126.5 590.5 c 128,-1,23
 91 565 91 565 60 510 c 1,24,-1
 45 514 l 1,25,26
 71 585 71 585 115.5 630.5 c 128,-1,27
 160 676 160 676 242 676 c 0,28,29
 311 676 311 676 354.5 638 c 128,-1,30
 398 600 398 600 398 539 c 0,31,32
 398 498 398 498 377 467 c 128,-1,33
 356 436 356 436 304 401 c 1,34,35
 364 375 364 375 398 334.5 c 128,-1,36
 432 294 432 294 432 219 c 0,37,38
 432 113 432 113 353.5 49.5 c 128,-1,39
 275 -14 275 -14 156 -14 c 0,40,41
 104 -14 104 -14 73.5 1.5 c 128,-1,42
 43 17 43 17 43 43 c 0,43,44
 43 59 43 59 53.5 68.5 c 128,-1,45
 64 78 64 78 81 78 c 0,0,1
EndSplineSet
Validated: 1
Layer: 2
SplineSet
81 78 m 0
 96.3334 78 119.167 68.6667 149.5 50 c 128
 179.833 31.3333 206.333 22 229 22 c 0
 265.667 22 296.667 36.3333 322 65 c 128
 347.333 93.6667 360 129 360 171 c 0
 360 197 355.5 220 346.5 240 c 128
 337.5 260 326 275.5 312 286.5 c 128
 298 297.5 281.333 306.5 262 313.5 c 128
 242.667 320.5 224.5 325 207.5 327 c 128
 190.5 329 172.333 330 153 330 c 1
 153 343 l 1
 175.667 351 195.167 358.833 211.5 366.5 c 128
 227.833 374.167 245 384.5 263 397.5 c 128
 281 410.5 294.833 426.333 304.5 445 c 128
 314.167 463.667 319 485 319 509 c 0
 319 540.333 308.833 566 288.5 586 c 128
 268.167 606 241.667 616 209 616 c 0
 177.667 616 150.167 607.5 126.5 590.5 c 128
 102.833 573.5 80.6666 546.667 60 510 c 1
 45 514 l 1
 62.3333 561.333 85.8333 600.167 115.5 630.5 c 128
 145.167 660.833 187.333 676 242 676 c 0
 288 676 325.5 663.333 354.5 638 c 128
 383.5 612.667 398 579.667 398 539 c 0
 398 511.667 391 487.667 377 467 c 128
 363 446.333 338.667 424.333 304 401 c 1
 344 383.667 375.333 361.5 398 334.5 c 128
 420.667 307.5 432 269 432 219 c 0
 432 148.333 405.833 91.8333 353.5 49.5 c 128
 301.167 7.16667 235.333 -14 156 -14 c 0
 121.333 -14 93.8333 -8.83333 73.5 1.5 c 128
 53.1667 11.8333 43 25.6667 43 43 c 0
 43 53.6667 46.5 62.1667 53.5 68.5 c 128
 60.5 74.8333 69.6667 78 81 78 c 0
EndSplineSet
EndChar

StartChar: uni0034
Encoding: 52 52 53
Width: 500
GlyphClass: 2
Flags: W
LayerCount: 3
Fore
SplineSet
472 231 m 1,0,-1
 472 167 l 1,1,-1
 370 167 l 1,2,-1
 370 0 l 1,3,-1
 293 0 l 1,4,-1
 293 167 l 1,5,-1
 12 167 l 1,6,-1
 12 231 l 1,7,-1
 326 676 l 1,8,-1
 370 676 l 1,9,-1
 370 231 l 1,10,-1
 472 231 l 1,0,-1
292 231 m 1,11,-1
 292 574 l 1,12,-1
 52 231 l 1,13,-1
 292 231 l 1,11,-1
EndSplineSet
Validated: 1
Layer: 2
SplineSet
472 231 m 1
 472 167 l 1
 370 167 l 1
 370 0 l 1
 293 0 l 1
 293 167 l 1
 12 167 l 1
 12 231 l 1
 326 676 l 1
 370 676 l 1
 370 231 l 1
 472 231 l 1
292 231 m 1
 292 574 l 1
 52 231 l 1
 292 231 l 1
EndSplineSet
EndChar

StartChar: uni0035
Encoding: 53 53 54
Width: 500
GlyphClass: 2
Flags: W
LayerCount: 3
Fore
SplineSet
357 194 m 0,0,1
 357 247 357 247 333.5 288 c 128,-1,2
 310 329 310 329 276.5 351.5 c 128,-1,3
 243 374 243 374 201.5 388.5 c 128,-1,4
 160 403 160 403 129.5 407.5 c 128,-1,5
 99 412 99 412 76 412 c 0,6,7
 64 412 64 412 64 420 c 0,8,9
 64 423 64 423 65 425 c 2,10,-1
 174 662 l 1,11,-1
 383 662 l 2,12,13
 399 662 399 662 408.5 667 c 128,-1,14
 418 672 418 672 429 688 c 1,15,-1
 438 681 l 1,16,-1
 400 592 l 2,17,18
 396 583 396 583 377 583 c 2,19,-1
 181 583 l 1,20,-1
 139 498 l 1,21,22
 285 472 285 472 356 413.5 c 128,-1,23
 427 355 427 355 427 242 c 0,24,25
 427 183 427 183 408.5 137 c 128,-1,26
 390 91 390 91 361.5 63 c 128,-1,27
 333 35 333 35 295.5 17 c 128,-1,28
 258 -1 258 -1 223.5 -7.5 c 128,-1,29
 189 -14 189 -14 154 -14 c 0,30,31
 98 -14 98 -14 65 2.5 c 128,-1,32
 32 19 32 19 32 48 c 0,33,34
 32 85 32 85 75 85 c 0,35,36
 103 85 103 85 147.5 54 c 128,-1,37
 192 23 192 23 218 23 c 0,38,39
 277 23 277 23 317 72.5 c 128,-1,40
 357 122 357 122 357 194 c 0,0,1
EndSplineSet
Validated: 1
Layer: 2
SplineSet
357 194 m 0
 357 229.333 349.167 260.667 333.5 288 c 128
 317.833 315.333 298.833 336.5 276.5 351.5 c 128
 254.167 366.5 229.167 378.833 201.5 388.5 c 128
 173.833 398.167 149.833 404.5 129.5 407.5 c 128
 109.167 410.5 91.3333 412 76 412 c 0
 68 412 64 414.667 64 420 c 0
 64 422 64.3333 423.667 65 425 c 2
 174 662 l 1
 383 662 l 2
 393.667 662 402.167 663.667 408.5 667 c 128
 414.837 670.333 421.67 677.333 429 688 c 1
 438 681 l 1
 400 592 l 2
 397.332 586 389.665 583 377 583 c 2
 181 583 l 1
 139 498 l 1
 236.333 480.667 308.667 452.5 356 413.5 c 128
 403.333 374.5 427 317.333 427 242 c 0
 427 202.667 420.833 167.667 408.5 137 c 128
 396.167 106.333 380.5 81.6667 361.5 63 c 128
 342.5 44.3333 320.5 29 295.5 17 c 128
 270.5 5 246.5 -3.16667 223.5 -7.5 c 128
 200.5 -11.8333 177.333 -14 154 -14 c 0
 116.667 -14 87 -8.5 65 2.5 c 128
 43 13.5 32 28.6667 32 48 c 0
 32 72.6667 46.3333 85 75 85 c 0
 93.6667 85 117.833 74.6667 147.5 54 c 128
 177.167 33.3333 200.667 23 218 23 c 0
 257.333 23 290.333 39.5 317 72.5 c 128
 343.667 105.5 357 146 357 194 c 0
EndSplineSet
EndChar

StartChar: uni0036
Encoding: 54 54 55
Width: 500
GlyphClass: 2
Flags: W
LayerCount: 3
Fore
SplineSet
258 -14 m 0,0,1
 157 -14 157 -14 95.5 66.5 c 128,-1,2
 34 147 34 147 34 279 c 0,3,4
 34 320 34 320 42 363.5 c 128,-1,5
 50 407 50 407 77 462.5 c 128,-1,6
 104 518 104 518 147 562 c 128,-1,7
 190 606 190 606 267.5 640.5 c 128,-1,8
 345 675 345 675 446 684 c 1,9,-1
 448 668 l 1,10,11
 330 649 330 649 251 572.5 c 128,-1,12
 172 496 172 496 152 383 c 1,13,14
 199 411 199 411 223 419.5 c 128,-1,15
 247 428 247 428 280 428 c 0,16,17
 366 428 366 428 417 371.5 c 128,-1,18
 468 315 468 315 468 219 c 0,19,20
 468 116 468 116 409.5 51 c 128,-1,21
 351 -14 351 -14 258 -14 c 0,0,1
242 382 m 0,22,23
 174 382 174 382 150.5 352 c 128,-1,24
 127 322 127 322 127 263 c 0,25,26
 127 147 127 147 165 80.5 c 128,-1,27
 203 14 203 14 269 14 c 0,28,29
 322 14 322 14 350 58.5 c 128,-1,30
 378 103 378 103 378 185 c 0,31,32
 378 279 378 279 342.5 330.5 c 128,-1,33
 307 382 307 382 242 382 c 0,22,23
EndSplineSet
Validated: 1
Layer: 2
SplineSet
258 -14 m 0
 190.667 -14 136.5 12.8333 95.5 66.5 c 128
 54.5 120.167 34 191 34 279 c 0
 34 306.333 36.6667 334.5 42 363.5 c 128
 47.3333 392.5 59 425.5 77 462.5 c 128
 95 499.5 118.333 532.667 147 562 c 128
 175.667 591.333 215.833 617.5 267.5 640.5 c 128
 319.167 663.5 378.667 678 446 684 c 1
 448 668 l 1
 369.333 655.333 303.667 623.5 251 572.5 c 128
 198.333 521.5 165.333 458.333 152 383 c 1
 183.333 401.667 207 413.833 223 419.5 c 128
 239 425.167 258 428 280 428 c 0
 337.333 428 383 409.167 417 371.5 c 128
 451 333.833 468 283 468 219 c 0
 468 150.333 448.5 94.3333 409.5 51 c 128
 370.5 7.66667 320 -14 258 -14 c 0
242 382 m 0
 196.667 382 166.167 372 150.5 352 c 128
 134.833 332 127 302.333 127 263 c 0
 127 185.667 139.667 124.833 165 80.5 c 128
 190.333 36.1667 225 14 269 14 c 0
 304.333 14 331.333 28.8333 350 58.5 c 128
 368.667 88.1667 378 130.333 378 185 c 0
 378 247.667 366.167 296.167 342.5 330.5 c 128
 318.833 364.833 285.333 382 242 382 c 0
EndSplineSet
EndChar

StartChar: uni0037
Encoding: 55 55 56
Width: 500
GlyphClass: 2
Flags: W
LayerCount: 3
Fore
SplineSet
449 662 m 1,0,-1
 449 646 l 1,1,-1
 237 -8 l 1,2,-1
 172 -8 l 1,3,-1
 370 588 l 1,4,-1
 153 588 l 2,5,6
 112 588 112 588 90.5 573 c 128,-1,7
 69 558 69 558 37 507 c 1,8,-1
 20 515 l 1,9,-1
 79 662 l 1,10,-1
 449 662 l 1,0,-1
EndSplineSet
Validated: 1
Layer: 2
SplineSet
449 662 m 1
 449 646 l 1
 237 -8 l 1
 172 -8 l 1
 370 588 l 1
 153 588 l 2
 125.667 588 104.833 583 90.5 573 c 128
 76.1667 563 58.3333 541 37 507 c 1
 20 515 l 1
 79 662 l 1
 449 662 l 1
EndSplineSet
EndChar

StartChar: uni0038
Encoding: 56 56 57
Width: 500
GlyphClass: 2
Flags: W
LayerCount: 3
Fore
SplineSet
290 371 m 1,0,1
 380 304 380 304 412.5 258.5 c 128,-1,2
 445 213 445 213 445 155 c 0,3,4
 445 78 445 78 391.5 32 c 128,-1,5
 338 -14 338 -14 248 -14 c 0,6,7
 163 -14 163 -14 109.5 32 c 128,-1,8
 56 78 56 78 56 151 c 0,9,10
 56 202 56 202 80.5 236.5 c 128,-1,11
 105 271 105 271 186 332 c 1,12,13
 107 401 107 401 84.5 435 c 128,-1,14
 62 469 62 469 62 518 c 0,15,16
 62 586 62 586 116 631 c 128,-1,17
 170 676 170 676 252 676 c 0,18,19
 327 676 327 676 375.5 636 c 128,-1,20
 424 596 424 596 424 534 c 0,21,22
 424 483 424 483 394 447 c 128,-1,23
 364 411 364 411 290 371 c 1,0,1
212 312 m 1,24,25
 168 277 168 277 150 242 c 128,-1,26
 132 207 132 207 132 159 c 0,27,28
 132 94 132 94 167 54 c 128,-1,29
 202 14 202 14 259 14 c 0,30,31
 308 14 308 14 338.5 44.5 c 128,-1,32
 369 75 369 75 369 124 c 0,33,34
 369 140 369 140 365.5 154 c 128,-1,35
 362 168 362 168 358.5 178.5 c 128,-1,36
 355 189 355 189 344.5 202 c 128,-1,37
 334 215 334 215 327.5 222.5 c 128,-1,38
 321 230 321 230 304 244 c 128,-1,39
 287 258 287 258 278.5 264 c 128,-1,40
 270 270 270 270 246.5 287 c 128,-1,41
 223 304 223 304 212 312 c 1,24,25
261 389 m 1,42,43
 262 390 262 390 274.5 398.5 c 128,-1,44
 287 407 287 407 292.5 412 c 128,-1,45
 298 417 298 417 309.5 427.5 c 128,-1,46
 321 438 321 438 327 447.5 c 128,-1,47
 333 457 333 457 340.5 470.5 c 128,-1,48
 348 484 348 484 351.5 500.5 c 128,-1,49
 355 517 355 517 355 535 c 0,50,51
 355 587 355 587 325 617.5 c 128,-1,52
 295 648 295 648 244 648 c 0,53,54
 197 648 197 648 166.5 620 c 128,-1,55
 136 592 136 592 136 549 c 0,56,57
 136 507 136 507 165 470 c 128,-1,58
 194 433 194 433 261 389 c 1,42,43
EndSplineSet
Validated: 1
Layer: 2
SplineSet
290 371 m 1
 350 326.333 390.833 288.833 412.5 258.5 c 128
 434.167 228.167 445 193.667 445 155 c 0
 445 103.667 427.167 62.6666 391.5 32 c 128
 355.833 1.33333 308 -14 248 -14 c 0
 191.333 -14 145.167 1.33333 109.5 32 c 128
 73.8333 62.6667 56 102.333 56 151 c 0
 56 185 64.1667 213.5 80.5 236.5 c 128
 96.8333 259.5 132 291.333 186 332 c 1
 133.333 378 99.5 412.333 84.5 435 c 128
 69.5 457.667 62 485.333 62 518 c 0
 62 563.333 80 601 116 631 c 128
 152 661 197.333 676 252 676 c 0
 302 676 343.167 662.667 375.5 636 c 128
 407.833 609.333 424 575.333 424 534 c 0
 424 500 414 471 394 447 c 128
 374 423 339.333 397.667 290 371 c 1
212 312 m 1
 182.667 288.667 162 265.333 150 242 c 128
 138 218.667 132 191 132 159 c 0
 132 115.667 143.667 80.6666 167 54 c 128
 190.333 27.3333 221 14 259 14 c 0
 291.667 14 318.167 24.1667 338.5 44.5 c 128
 358.833 64.8334 369 91.3334 369 124 c 0
 369 134.667 367.833 144.667 365.5 154 c 128
 363.167 163.333 360.833 171.5 358.5 178.5 c 128
 356.167 185.5 351.5 193.333 344.5 202 c 128
 337.5 210.667 331.833 217.5 327.5 222.5 c 128
 323.167 227.5 315.333 234.667 304 244 c 128
 292.667 253.333 284.167 260 278.5 264 c 128
 272.832 268 262.166 275.667 246.5 287 c 128
 230.833 298.334 219.333 306.668 212 312 c 1
261 389 m 1
 261.667 389.667 266.167 392.833 274.5 398.5 c 128
 282.833 404.167 288.833 408.667 292.5 412 c 128
 296.167 415.333 301.833 420.5 309.5 427.5 c 128
 317.167 434.5 323 441.167 327 447.5 c 128
 331 453.833 335.5 461.5 340.5 470.5 c 128
 345.5 479.5 349.167 489.5 351.5 500.5 c 128
 353.833 511.5 355 523 355 535 c 0
 355 569.667 345 597.167 325 617.5 c 128
 305 637.833 278 648 244 648 c 0
 212.666 648 186.833 638.667 166.5 620 c 128
 146.167 601.333 136 577.667 136 549 c 0
 136 521 145.667 494.667 165 470 c 128
 184.333 445.333 216.333 418.333 261 389 c 1
EndSplineSet
EndChar

StartChar: uni0039
Encoding: 57 57 58
Width: 500
GlyphClass: 2
Flags: W
LayerCount: 3
Fore
SplineSet
59 -22 m 1,0,-1
 56 -2 l 1,1,2
 170 18 170 18 249.5 95 c 128,-1,3
 329 172 329 172 360 294 c 1,4,5
 286 237 286 237 210 237 c 0,6,7
 129 237 129 237 79.5 293 c 128,-1,8
 30 349 30 349 30 440 c 0,9,10
 30 541 30 541 89.5 608.5 c 128,-1,11
 149 676 149 676 238 676 c 0,12,13
 335 676 335 676 397 597 c 128,-1,14
 459 518 459 518 459 394 c 0,15,16
 459 354 459 354 452 312 c 128,-1,17
 445 270 445 270 419.5 212.5 c 128,-1,18
 394 155 394 155 353 109.5 c 128,-1,19
 312 64 312 64 236 27 c 128,-1,20
 160 -10 160 -10 59 -22 c 1,0,-1
246 280 m 0,21,22
 265 280 265 280 289 285.5 c 128,-1,23
 313 291 313 291 337.5 309.5 c 128,-1,24
 362 328 362 328 362 355 c 2,25,-1
 362 394 l 2,26,27
 362 648 362 648 230 648 c 0,28,29
 199 648 199 648 177 631.5 c 128,-1,30
 155 615 155 615 143.5 588 c 128,-1,31
 132 561 132 561 127 533 c 128,-1,32
 122 505 122 505 122 474 c 0,33,34
 122 385 122 385 155.5 332.5 c 128,-1,35
 189 280 189 280 246 280 c 0,21,22
EndSplineSet
Validated: 1
Layer: 2
SplineSet
59 -22 m 1
 56 -2 l 1
 132 11.3333 196.5 43.6667 249.5 95 c 128
 302.5 146.333 339.333 212.667 360 294 c 1
 310.667 256 260.667 237 210 237 c 0
 156 237 112.5 255.667 79.5 293 c 128
 46.5 330.333 30 379.333 30 440 c 0
 30 507.333 49.8333 563.5 89.5 608.5 c 128
 129.167 653.5 178.667 676 238 676 c 0
 302.667 676 355.667 649.667 397 597 c 128
 438.333 544.333 459 476.667 459 394 c 0
 459 367.333 456.667 340 452 312 c 128
 447.333 284 436.5 250.833 419.5 212.5 c 128
 402.5 174.167 380.333 139.833 353 109.5 c 128
 325.667 79.1667 286.667 51.6667 236 27 c 128
 185.333 2.33333 126.333 -14 59 -22 c 1
246 280 m 0
 258.667 280 273 281.833 289 285.5 c 128
 305 289.167 321.167 297.167 337.5 309.5 c 128
 353.833 321.833 362 337 362 355 c 2
 362 394 l 2
 362 563.333 318 648 230 648 c 0
 209.333 648 191.667 642.5 177 631.5 c 128
 162.333 620.5 151.167 606 143.5 588 c 128
 135.833 570 130.333 551.667 127 533 c 128
 123.667 514.333 122 494.667 122 474 c 0
 122 414.667 133.167 367.5 155.5 332.5 c 128
 177.833 297.5 208 280 246 280 c 0
EndSplineSet
EndChar

StartChar: uni003A
Encoding: 58 58 59
Width: 238
GlyphClass: 2
Flags: W
LayerCount: 3
Fore
SplineSet
91 376 m 1,0,1
 103 384 103 384 127 384 c 0,2,3
 153 384 153 384 170 374 c 0,4,5
 198 358 198 358 198 320 c 0,6,7
 198 287 198 287 177 265 c 0,8,9
 154 240 154 240 122 240 c 2,10,11
 122 240 122 240 118 240 c 0,12,13
 66 245 66 245 54 294 c 0,14,15
 53 300 53 300 53 309 c 0,16,17
 53 355 53 355 91 376 c 1,0,1
91 136 m 1,18,19
 103 144 103 144 127 144 c 0,20,21
 153 144 153 144 170 134 c 0,22,23
 198 118 198 118 198 80 c 0,24,25
 198 48 198 48 177 25 c 0,26,27
 154 0 154 0 122 0 c 2,28,29
 122 0 122 0 118 0 c 0,30,31
 66 5 66 5 54 54 c 0,32,33
 53 60 53 60 53 69 c 0,34,35
 53 115 53 115 91 136 c 1,18,19
EndSplineSet
Validated: 1
Layer: 2
SplineSet
91 376 m 1
 99 381.333 111 384 127 384 c 0
 144.333 384 158.667 380.667 170 374 c 0
 188.667 363.333 198 345.333 198 320 c 0
 198 298 191 279.667 177 265 c 0
 161.667 248.333 143.333 240 122 240 c 2
 122 240 122 240 118 240 c 0
 83.3333 243.333 62 261.333 54 294 c 0
 53.3333 298 53 303 53 309 c 0
 53 339.667 65.6667 362 91 376 c 1
91 136 m 1
 99 141.333 111 144 127 144 c 0
 144.333 144 158.667 140.667 170 134 c 0
 188.667 123.333 198 105.333 198 80 c 0
 198 58.6667 191 40.3333 177 25 c 0
 161.667 8.33333 143.333 9.53674e-07 122 0 c 2
 122 0 122 0 118 0 c 0
 83.3333 3.33333 62 21.3333 54 54 c 0
 53.3333 58 53 63 53 69 c 0
 53 99.6667 65.6667 122 91 136 c 1
EndSplineSet
EndChar

StartChar: uni003B
Encoding: 59 59 60
Width: 302
GlyphClass: 2
Flags: W
LayerCount: 3
Fore
SplineSet
111 370 m 1,0,1
 123 378 123 378 142 378 c 0,2,3
 144 378 144 378 147 378 c 0,4,5
 173 378 173 378 190 368 c 0,6,7
 218 351 218 351 218 314 c 0,8,9
 218 282 218 282 197 259 c 0,10,11
 174 234 174 234 142 234 c 2,12,-1
 138 234 l 1,13,14
 114 236 114 236 96 251 c 0,15,16
 79 265 79 265 74 288 c 0,17,18
 73 296 73 296 73 307 c 0,19,20
 73 350 73 350 111 370 c 1,0,1
36 12 m 2,21,22
 27 12 27 12 27 24 c 0,23,24
 27 45 27 45 65 72 c 0,25,26
 116 109 116 109 180 118 c 0,27,28
 196 120 196 120 200 120 c 0,29,30
 234 117 234 117 247 104 c 0,31,32
 262 89 262 89 262 61 c 0,33,34
 262 37 262 37 250 7 c 1,35,36
 234 -37 234 -37 166 -88 c 0,37,38
 99 -138 99 -138 59 -142 c 1,39,-1
 57 -142 l 2,40,41
 37 -142 37 -142 37 -126 c 0,42,43
 37 -113 37 -113 48 -106 c 0,44,45
 92 -76 92 -76 124 -33 c 0,46,47
 141 -10 141 -10 141 17 c 0,48,49
 141 38 141 38 126 44 c 0,50,51
 120 46 120 46 114 46 c 0,52,53
 101 45 101 45 95 40 c 0,54,55
 62 14 62 14 44 12 c 1,56,-1
 36 12 l 2,21,22
EndSplineSet
Validated: 1
Layer: 2
SplineSet
111 370 m 1
 119 375.333 129.333 378 142 378 c 0
 144 378 144 378 147 378 c 0
 164.333 378 178.667 374.667 190 368 c 0
 208.667 356.667 218 338.667 218 314 c 0
 218 292.667 211 274.333 197 259 c 0
 181.667 242.333 163.333 234 142 234 c 2
 138 234 l 1
 122 235.333 108 241 96 251 c 0
 84.6667 260.334 77.3333 272.668 74 288 c 0
 73.3333 293.334 73 299.667 73 307 c 0
 73 335.667 85.6667 356.667 111 370 c 1
36 12 m 2
 30 12 27 16 27 24 c 0
 27 38 39.6667 54 65 72 c 0
 99 96.6667 137.333 112 180 118 c 0
 190.667 119.333 197.334 120 200 120 c 0
 222.667 118 238.334 112.667 247 104 c 0
 257 94 262 79.6667 262 61 c 0
 262 45 258 27 250 7 c 1
 239.333 -22.3333 211.333 -54 166 -88 c 0
 121.333 -121.333 85.6667 -139.333 59 -142 c 1
 57 -142 l 2
 43.6667 -142 37 -136.667 37 -126 c 0
 37 -117.333 40.6667 -110.667 48 -106 c 0
 77.3334 -86 102.667 -61.6667 124 -33 c 0
 135.333 -17.6667 141 -1 141 17 c 0
 141 31 136 40 126 44 c 0
 122 45.3333 118 46 114 46 c 0
 105.333 45.3333 99 43.3333 95 40 c 0
 73 22.6667 56 13.3333 44 12 c 1
 36 12 l 2
EndSplineSet
EndChar

StartChar: uni003C
Encoding: 60 60 61
Width: 690
GlyphClass: 2
Flags: W
LayerCount: 3
Fore
SplineSet
45 258 m 1,0,-1
 615 492 l 1,1,-1
 645 417 l 1,2,-1
 129 203 l 1,3,-1
 645 -11 l 1,4,-1
 615 -86 l 1,5,-1
 45 148 l 1,6,-1
 45 258 l 1,0,-1
EndSplineSet
Validated: 1
Layer: 2
SplineSet
45 258 m 1
 615 492 l 1
 645 417 l 1
 129 203 l 1
 645 -11 l 1
 615 -86 l 1
 45 148 l 1
 45 258 l 1
EndSplineSet
EndChar

StartChar: uni003D
Encoding: 61 61 62
Width: 394
GlyphClass: 2
Flags: W
LayerCount: 3
Fore
SplineSet
358 150 m 2,0,1
 370 150 370 150 370 130 c 0,2,3
 370 107 370 107 360 102 c 1,4,5
 351 99 351 99 347 99 c 0,6,7
 326 99 326 99 313 100 c 0,8,9
 298 101 298 101 274 102 c 0,10,11
 216 104 216 104 180 104 c 0,12,13
 172 104 172 104 156 103 c 1,14,15
 133 103 133 103 133 103 c 1,16,17
 85 101 85 101 70 101 c 0,18,19
 43 101 43 101 16 104 c 0,20,21
 7 105 7 105 7 116 c 0,22,23
 7 130 7 130 15 146 c 0,24,25
 18 152 18 152 29 154 c 1,26,-1
 78 154 l 2,27,28
 99 154 99 154 143 152 c 0,29,30
 186 151 186 151 205 151 c 1,31,32
 216 150 216 150 240 150 c 0,33,34
 280 150 280 150 280 150 c 1,35,36
 308 151 308 151 319 151 c 0,37,38
 343 151 343 151 352 150 c 1,39,-1
 358 150 l 2,0,1
358 280 m 2,40,41
 370 280 370 280 370 260 c 0,42,43
 370 237 370 237 360 232 c 1,44,45
 351 229 351 229 347 229 c 0,46,47
 326 229 326 229 313 230 c 0,48,49
 298 231 298 231 274 232 c 0,50,51
 216 234 216 234 180 234 c 0,52,53
 172 234 172 234 156 233 c 1,54,55
 133 233 133 233 133 233 c 1,56,57
 85 231 85 231 70 231 c 0,58,59
 43 231 43 231 16 234 c 0,60,61
 7 235 7 235 7 246 c 0,62,63
 7 260 7 260 15 276 c 0,64,65
 18 282 18 282 29 284 c 1,66,-1
 78 284 l 2,67,68
 99 284 99 284 143 282 c 0,69,70
 186 281 186 281 205 281 c 1,71,72
 216 280 216 280 240 280 c 0,73,74
 280 280 280 280 280 280 c 1,75,76
 308 281 308 281 319 281 c 0,77,78
 343 281 343 281 352 280 c 1,79,-1
 358 280 l 2,40,41
EndSplineSet
Validated: 1
Layer: 2
SplineSet
358 150 m 2
 366 150 370 143.333 370 130 c 0
 370 114.667 366.667 105.333 360 102 c 1
 354 100 349.667 99 347 99 c 0
 333 99 321.667 99.3333 313 100 c 0
 303 100.667 290 101.333 274 102 c 0
 235.333 103.333 204 104 180 104 c 0
 174.667 104 166.667 103.667 156 103 c 1
 133 103 l 1
 101 101.667 80 101 70 101 c 0
 52 101 34 102 16 104 c 0
 10 104.667 7 108.667 7 116 c 0
 7 125.333 9.66667 135.333 15 146 c 0
 17 150 21.6667 152.667 29 154 c 1
 78 154 l 2
 92 154 113.667 153.333 143 152 c 0
 171.667 151.333 192.334 151 205 151 c 1
 212.333 150.333 224 150 240 150 c 0
 280 150 l 1
 298.667 150.667 311.667 151 319 151 c 0
 335 151 346 150.667 352 150 c 1
 358 150 l 2
358 280 m 2
 366 280 370 273.333 370 260 c 0
 370 244.667 366.667 235.333 360 232 c 1
 354 230 349.667 229 347 229 c 0
 333 229 321.667 229.333 313 230 c 0
 303 230.668 290 231.335 274 232 c 0
 235.333 233.333 204 234 180 234 c 0
 174.667 234 166.667 233.667 156 233 c 1
 133 233 l 1
 101 231.667 80 231 70 231 c 0
 52 231 34 232 16 234 c 0
 10 234.667 7 238.667 7 246 c 0
 7 255.333 9.66667 265.333 15 276 c 0
 17 280 21.6667 282.667 29 284 c 1
 78 284 l 2
 92 284 113.667 283.333 143 282 c 0
 171.667 281.333 192.334 281 205 281 c 1
 212.333 280.333 224 280 240 280 c 0
 280 280 l 1
 298.667 280.667 311.667 281 319 281 c 0
 335 281 346 280.667 352 280 c 1
 358 280 l 2
EndSplineSet
EndChar

StartChar: uni003E
Encoding: 62 62 63
Width: 690
GlyphClass: 2
Flags: W
LayerCount: 3
Fore
SplineSet
645 138 m 1,0,-1
 75 -96 l 1,1,-1
 45 -21 l 1,2,-1
 561 193 l 1,3,-1
 45 407 l 1,4,-1
 75 482 l 1,5,-1
 645 248 l 1,6,-1
 645 138 l 1,0,-1
EndSplineSet
Validated: 1
Layer: 2
SplineSet
645 138 m 1
 75 -96 l 1
 45 -21 l 1
 561 193 l 1
 45 407 l 1
 75 482 l 1
 645 248 l 1
 645 138 l 1
EndSplineSet
EndChar

StartChar: uni003F
Encoding: 63 63 64
Width: 558
GlyphClass: 2
Flags: W
LayerCount: 3
Fore
SplineSet
85 652 m 0,0,1
 85 691 85 691 143.5 708.5 c 128,-1,2
 202 726 202 726 271 726 c 0,3,4
 346 726 346 726 414 648 c 1,5,6
 479 571 479 571 479 495 c 0,7,8
 479 410 479 410 434 362 c 2,9,-1
 367 290 l 2,10,11
 351 272 351 272 344 263 c 1,12,13
 324 245 324 245 302 245 c 0,14,15
 279 245 279 245 260 271 c 128,-1,16
 241 297 241 297 241 323 c 0,17,18
 241 366 241 366 312 434 c 0,19,20
 384 502 384 502 384 541 c 0,21,22
 384 578 384 578 360.5 603 c 128,-1,23
 337 628 337 628 300 628 c 0,24,25
 262 628 262 628 237 603 c 0,26,27
 231 597 231 597 201 555 c 0,28,29
 183 530 183 530 165 530 c 0,30,31
 124 530 124 530 115 543 c 0,32,33
 107 556 107 556 96 594 c 128,-1,34
 85 632 85 632 85 652 c 0,0,1
371 74 m 0,35,36
 371 0 371 0 291 0 c 0,37,38
 213 0 213 0 213 74 c 0,39,40
 213 150 213 150 294 150 c 0,41,42
 371 150 371 150 371 74 c 0,35,36
EndSplineSet
Validated: 1
Layer: 2
SplineSet
85 652 m 0
 85 678 104.5 696.833 143.5 708.5 c 128
 182.5 720.167 225 726 271 726 c 0
 321 726 368.667 700 414 648 c 1
 457.333 596.667 479 545.667 479 495 c 0
 479 438.333 464 394 434 362 c 2
 367 290 l 2
 356.332 278 348.665 269 344 263 c 1
 330.667 251 316.667 245 302 245 c 0
 286.667 245 272.667 253.667 260 271 c 128
 247.333 288.334 241 305.667 241 323 c 0
 241 351.667 264.667 388.667 312 434 c 0
 360 479.333 384 515 384 541 c 0
 384 565.667 376.167 586.334 360.5 603 c 128
 344.833 619.667 324.666 628 300 628 c 0
 274.667 628 253.667 619.667 237 603 c 0
 233 599 221 583 201 555 c 0
 189 538.333 177 530 165 530 c 0
 137.667 530 121 534.333 115 543 c 0
 109.667 551.667 103.333 568.667 96 594 c 128
 88.6667 619.333 85 638.667 85 652 c 0
371 74 m 0
 371 24.6667 344.333 0 291 0 c 0
 239 0 213 24.6667 213 74 c 0
 213 124.667 240 150 294 150 c 0
 345.333 150 371 124.667 371 74 c 0
EndSplineSet
EndChar

StartChar: uni0040
Encoding: 64 64 65
Width: 856
GlyphClass: 2
Flags: W
LayerCount: 3
Fore
SplineSet
570 288 m 0,0,1
 570 316 570 316 551.5 334 c 128,-1,2
 533 352 533 352 506 352 c 0,3,4
 489 352 489 352 462.5 342 c 128,-1,5
 436 332 436 332 416 312 c 0,6,7
 348 244 348 244 348 134 c 0,8,9
 348 42 348 42 426 42 c 0,10,11
 451 42 451 42 484 80 c 128,-1,12
 517 118 517 118 540 172 c 0,13,14
 570 241 570 241 570 288 c 0,0,1
584 46 m 0,15,16
 584 40 584 40 588.5 37 c 128,-1,17
 593 34 593 34 596 34 c 0,18,19
 678 34 678 34 719 81.5 c 128,-1,20
 760 129 760 129 760 248 c 0,21,22
 760 322 760 322 731 382 c 128,-1,23
 702 442 702 442 657 478 c 128,-1,24
 612 514 612 514 560.5 533 c 128,-1,25
 509 552 509 552 460 552 c 0,26,27
 401 552 401 552 345.5 532 c 128,-1,28
 290 512 290 512 243.5 472.5 c 128,-1,29
 197 433 197 433 168.5 366 c 128,-1,30
 140 299 140 299 140 214 c 0,31,32
 140 166 140 166 149.5 118 c 128,-1,33
 159 70 159 70 183.5 20.5 c 128,-1,34
 208 -29 208 -29 244.5 -66.5 c 128,-1,35
 281 -104 281 -104 340.5 -128 c 128,-1,36
 400 -152 400 -152 474 -152 c 0,37,38
 595 -152 595 -152 676 -86 c 1,39,-1
 688 -104 l 1,40,41
 635 -145 635 -145 584 -165.5 c 128,-1,42
 533 -186 533 -186 456 -186 c 0,43,44
 279 -186 279 -186 169.5 -77 c 128,-1,45
 60 32 60 32 60 196 c 0,46,47
 60 356 60 356 181 470 c 128,-1,48
 302 584 302 584 470 584 c 0,49,50
 631 584 631 584 735.5 490 c 128,-1,51
 840 396 840 396 840 254 c 0,52,53
 840 218 840 218 831 183.5 c 128,-1,54
 822 149 822 149 801 115.5 c 128,-1,55
 780 82 780 82 748 56.5 c 128,-1,56
 716 31 716 31 665.5 15.5 c 128,-1,57
 615 0 615 0 552 0 c 0,58,59
 533 0 533 0 524.5 12.5 c 128,-1,60
 516 25 516 25 516 40 c 0,61,62
 516 52 516 52 532 104 c 1,63,-1
 530 104 l 1,64,65
 499 52 499 52 462.5 27 c 128,-1,66
 426 2 426 2 396 2 c 0,67,68
 361 2 361 2 335 15.5 c 128,-1,69
 309 29 309 29 297 49.5 c 128,-1,70
 285 70 285 70 279.5 89 c 128,-1,71
 274 108 274 108 274 126 c 0,72,73
 274 228 274 228 349 305 c 128,-1,74
 424 382 424 382 508 382 c 0,75,76
 533 382 533 382 555 370.5 c 128,-1,77
 577 359 577 359 584 340 c 1,78,-1
 590 364 l 1,79,-1
 642 376 l 1,80,-1
 658 372 l 1,81,-1
 598 114 l 1,82,83
 584 49 584 49 584 46 c 0,15,16
EndSplineSet
Validated: 1
Layer: 2
SplineSet
570 288 m 0
 570 306.667 563.833 322 551.5 334 c 128
 539.167 346 524 352 506 352 c 0
 494.667 352 480.167 348.667 462.5 342 c 128
 444.833 335.333 429.333 325.333 416 312 c 0
 370.667 266.667 348 207.333 348 134 c 0
 348 72.6667 374 42 426 42 c 0
 442.667 42 462 54.6667 484 80 c 128
 506 105.333 524.667 136 540 172 c 0
 560 218 570 256.667 570 288 c 0
584 46 m 0
 584 42 585.5 39 588.5 37 c 128
 591.5 35 594 34 596 34 c 0
 650.667 34 691.667 49.8333 719 81.5 c 128
 746.333 113.167 760 168.667 760 248 c 0
 760 297.333 750.333 342 731 382 c 128
 711.667 422 687 454 657 478 c 128
 627 502.001 594.833 520.334 560.5 533 c 128
 526.166 545.667 492.666 552 460 552 c 0
 420.667 552 382.5 545.333 345.5 532 c 128
 308.5 518.667 274.5 498.833 243.5 472.5 c 128
 212.5 446.167 187.5 410.667 168.5 366 c 128
 149.5 321.333 140 270.667 140 214 c 0
 140 182 143.167 150 149.5 118 c 128
 155.833 86 167.167 53.5 183.5 20.5 c 128
 199.833 -12.5 220.167 -41.5 244.5 -66.5 c 128
 268.833 -91.5 300.833 -112 340.5 -128 c 128
 380.167 -144 424.667 -152 474 -152 c 0
 554.667 -152 622 -130 676 -86 c 1
 688 -104 l 1
 652.667 -131.333 618 -151.833 584 -165.5 c 128
 550 -179.167 507.333 -186 456 -186 c 0
 338 -186 242.5 -149.667 169.5 -77 c 128
 96.5 -4.33334 60 86.6667 60 196 c 0
 60 302.667 100.333 394 181 470 c 128
 261.667 546 358 584 470 584 c 0
 577.333 584 665.833 552.667 735.5 490 c 128
 805.167 427.333 840 348.667 840 254 c 0
 840 230 837 206.5 831 183.5 c 128
 825 160.5 815 137.833 801 115.5 c 128
 787 93.1667 769.333 73.5 748 56.5 c 128
 726.667 39.5 699.167 25.8333 665.5 15.5 c 128
 631.833 5.16667 594 4.76837e-07 552 0 c 0
 539.333 0 530.167 4.16667 524.5 12.5 c 128
 518.833 20.8333 516 30 516 40 c 0
 516 48 521.333 69.3333 532 104 c 1
 530 104 l 1
 509.333 69.3333 486.833 43.6667 462.5 27 c 128
 438.167 10.3333 416 2 396 2 c 0
 372.667 2 352.333 6.5 335 15.5 c 128
 317.667 24.5 305 35.8333 297 49.5 c 128
 289 63.1667 283.167 76.3333 279.5 89 c 128
 275.833 101.667 274 114 274 126 c 0
 274 194 299 253.667 349 305 c 128
 399 356.333 452 382 508 382 c 0
 524.669 382 540.335 378.167 555 370.5 c 128
 569.671 362.832 579.338 352.665 584 340 c 1
 590 364 l 1
 642 376 l 1
 658 372 l 1
 598 114 l 1
 588.667 70.6667 584 48 584 46 c 0
EndSplineSet
EndChar

StartChar: uni0041
Encoding: 65 65 66
Width: 711
GlyphClass: 2
Flags: W
LayerCount: 3
Fore
SplineSet
263 283 m 2,0,-1
 440 283 l 1,1,-1
 346 555 l 1,2,-1
 340 555 l 1,3,-1
 238 296 l 2,4,5
 237 295 237 295 237 292 c 0,6,7
 237 283 237 283 263 283 c 2,0,-1
172 119 m 2,8,9
 171 117 171 117 166 104 c 128,-1,10
 161 91 161 91 156.5 78.5 c 128,-1,11
 152 66 152 66 152 64 c 0,12,13
 152 35 152 35 224 31 c 1,14,15
 228 27 228 27 228 14 c 0,16,17
 228 4 228 4 224 0 c 1,18,-1
 183 0 l 1,19,-1
 96 0 l 1,20,21
 96 0 96 0 35 0 c 2,22,23
 35 0 35 0 7 0 c 1,24,25
 0 7 0 7 0 14 c 0,26,27
 0 24 0 24 7 31 c 1,28,29
 33 33 33 33 47.5 37 c 128,-1,30
 62 41 62 41 78.5 56.5 c 128,-1,31
 95 72 95 72 107 102 c 2,32,-1
 334 638 l 1,33,34
 356 638 356 638 389 658 c 1,35,-1
 595 86 l 2,36,37
 603 63 603 63 618.5 51 c 128,-1,38
 634 39 634 39 647 36 c 128,-1,39
 660 33 660 33 685 31 c 1,40,41
 690 26 690 26 690 14 c 0,42,43
 690 5 690 5 685 0 c 1,44,-1
 649 0 l 1,45,-1
 571 0 l 1,46,-1
 482 0 l 1,47,-1
 440 0 l 1,48,49
 436 4 436 4 436 14 c 0,50,51
 436 27 436 27 440 31 c 1,52,53
 460 32 460 32 470.5 33.5 c 128,-1,54
 481 35 481 35 493 38 c 128,-1,55
 505 41 505 41 510.5 46.5 c 128,-1,56
 516 52 516 52 516 61 c 0,57,58
 516 64 516 64 514 72 c 2,59,-1
 456 241 l 1,60,-1
 245 241 l 2,61,62
 227 241 227 241 220.5 237.5 c 128,-1,63
 214 234 214 234 210 224 c 2,64,-1
 172 119 l 2,8,9
EndSplineSet
Validated: 1
Layer: 2
SplineSet
263 283 m 2
 440 283 l 1
 346 555 l 1
 340 555 l 1
 238 296 l 2
 237.333 295.333 237 294 237 292 c 0
 237 286 245.667 283 263 283 c 2
172 119 m 2
 171.333 117.667 169.333 112.667 166 104 c 128
 162.667 95.3333 159.5 86.8333 156.5 78.5 c 128
 153.5 70.1667 152 65.3333 152 64 c 0
 152 44.6667 176 33.6667 224 31 c 1
 226.667 28.3333 228 22.6667 228 14 c 0
 228 7.33333 226.667 2.66667 224 0 c 1
 183 0 l 1
 96 0 l 1
 96 0 96 0 35 0 c 2
 35 0 35 0 7 0 c 1
 2.33333 4.66667 -2.38419e-07 9.33333 0 14 c 0
 0 20.6667 2.33333 26.3333 7 31 c 1
 24.3333 32.3333 37.8333 34.3333 47.5 37 c 128
 57.1667 39.6667 67.5 46.1667 78.5 56.5 c 128
 89.5 66.8333 99 82 107 102 c 2
 334 638 l 1
 348.667 638 367 644.667 389 658 c 1
 595 86 l 2
 600.333 70.6667 608.167 59 618.5 51 c 128
 628.833 43 638.333 38 647 36 c 128
 655.669 34 668.336 32.3333 685 31 c 1
 688.333 27.6667 690 22 690 14 c 0
 690 8 688.333 3.33333 685 0 c 1
 649 0 l 1
 571 0 l 1
 482 0 l 1
 440 0 l 1
 437.333 2.66667 436 7.33333 436 14 c 0
 436 22.6667 437.333 28.3333 440 31 c 1
 453.333 31.6667 463.5 32.5 470.5 33.5 c 128
 477.5 34.5 485 36 493 38 c 128
 501 40 506.833 42.8333 510.5 46.5 c 128
 514.167 50.1667 516 55 516 61 c 0
 516 63 515.333 66.6667 514 72 c 2
 456 241 l 1
 245 241 l 2
 233 241 224.833 239.833 220.5 237.5 c 128
 216.167 235.167 212.667 230.667 210 224 c 2
 172 119 l 2
EndSplineSet
EndChar

StartChar: uni0042
Encoding: 66 66 67
Width: 566
GlyphClass: 2
Flags: W
LayerCount: 3
Fore
SplineSet
191 550 m 2,0,-1
 191 366 l 1,1,-1
 265 366 l 2,2,3
 407 366 407 366 407 481 c 0,4,5
 407 550 407 550 368 581.5 c 128,-1,6
 329 613 329 613 278 613 c 0,7,8
 234 613 234 613 216.5 607.5 c 128,-1,9
 199 602 199 602 195 591.5 c 128,-1,10
 191 581 191 581 191 550 c 2,0,-1
191 332 m 1,11,-1
 191 118 l 2,12,13
 191 70 191 70 207.5 50.5 c 128,-1,14
 224 31 224 31 274 31 c 0,15,16
 379 31 379 31 416.5 66.5 c 128,-1,17
 454 102 454 102 454 165 c 0,18,19
 454 238 454 238 405.5 285 c 128,-1,20
 357 332 357 332 260 332 c 2,21,-1
 191 332 l 1,11,-1
144 645 m 0,22,23
 162 645 162 645 209 646 c 128,-1,24
 256 647 256 647 273 647 c 0,25,26
 488 647 488 647 488 493 c 0,27,28
 488 454 488 454 460.5 418 c 128,-1,29
 433 382 433 382 393 362 c 1,30,-1
 393 360 l 1,31,32
 463 340 463 340 505 296 c 128,-1,33
 547 252 547 252 547 184 c 0,34,35
 547 149 547 149 535 118.5 c 128,-1,36
 523 88 523 88 496 60 c 128,-1,37
 469 32 469 32 417.5 16 c 128,-1,38
 366 0 366 0 295 0 c 2,39,-1
 149 0 l 1,40,-1
 62 0 l 1,41,-1
 19 0 l 1,42,43
 14 5 14 5 14 14 c 0,44,45
 14 26 14 26 19 31 c 1,46,47
 75 33 75 33 90.5 47.5 c 128,-1,48
 106 62 106 62 106 122 c 2,49,-1
 106 523 l 2,50,51
 106 583 106 583 90.5 597.5 c 128,-1,52
 75 612 75 612 19 614 c 1,53,54
 14 619 14 619 14 630 c 0,55,56
 14 642 14 642 19 647 c 1,57,58
 97 645 97 645 144 645 c 0,22,23
EndSplineSet
Validated: 1
Layer: 2
SplineSet
191 550 m 2
 191 366 l 1
 265 366 l 2
 359.667 366 407 404.333 407 481 c 0
 407 527 394 560.5 368 581.5 c 128
 342 602.5 312 613 278 613 c 0
 248.667 613 228.167 611.167 216.5 607.5 c 128
 204.833 603.833 197.667 598.5 195 591.5 c 128
 192.333 584.5 191 570.667 191 550 c 2
191 332 m 1
 191 118 l 2
 191 86 196.5 63.5 207.5 50.5 c 128
 218.5 37.5 240.667 31 274 31 c 0
 344 31 391.5 42.8333 416.5 66.5 c 128
 441.5 90.1667 454 123 454 165 c 0
 454 213.667 437.833 253.667 405.5 285 c 128
 373.167 316.333 324.667 332 260 332 c 2
 191 332 l 1
144 645 m 0
 156 645 177.667 645.333 209 646 c 128
 240.333 646.667 261.667 647 273 647 c 0
 416.333 647 488 595.667 488 493 c 0
 488 467 478.833 442 460.5 418 c 128
 442.167 394 419.667 375.333 393 362 c 1
 393 360 l 1
 439.667 346.667 477 325.333 505 296 c 128
 533 266.667 547 229.333 547 184 c 0
 547 160.667 543 138.833 535 118.5 c 128
 527 98.1667 514 78.6667 496 60 c 128
 478 41.3333 451.833 26.6667 417.5 16 c 128
 383.167 5.33333 342.333 0 295 0 c 2
 149 0 l 1
 62 0 l 1
 19 0 l 1
 15.6667 3.33333 14 8 14 14 c 0
 14 22 15.6667 27.6667 19 31 c 1
 56.3333 32.3333 80.1667 37.8333 90.5 47.5 c 128
 100.833 57.1667 106 82 106 122 c 2
 106 523 l 2
 106 563 100.833 587.833 90.5 597.5 c 128
 80.1667 607.167 56.3333 612.667 19 614 c 1
 15.6667 617.333 14 622.667 14 630 c 0
 14 638 15.6667 643.667 19 647 c 1
 71 645.667 112.667 645 144 645 c 0
EndSplineSet
EndChar

StartChar: uni0043
Encoding: 67 67 68
Width: 643
GlyphClass: 2
Flags: W
LayerCount: 3
Fore
SplineSet
37 310 m 0,0,1
 37 455 37 455 127.5 556.5 c 128,-1,2
 218 658 218 658 358 658 c 0,3,4
 428 658 428 658 494 635.5 c 128,-1,5
 560 613 560 613 577 613 c 1,6,7
 592 530 592 530 599 458 c 1,8,9
 585 451 585 451 577 451 c 0,10,11
 574 451 574 451 566 453 c 1,12,13
 515 621 515 621 347 621 c 0,14,15
 260 621 260 621 187 532 c 1,16,17
 128 458 128 458 128 329 c 0,18,19
 128 214 128 214 193.5 122.5 c 128,-1,20
 259 31 259 31 356 31 c 0,21,22
 426 31 426 31 480.5 56.5 c 128,-1,23
 535 82 535 82 588 140 c 1,24,25
 603 140 603 140 611 125 c 1,26,27
 508 -10 508 -10 357 -10 c 0,28,29
 203 -10 203 -10 120 81 c 128,-1,30
 37 172 37 172 37 310 c 0,0,1
EndSplineSet
Validated: 1
Layer: 2
SplineSet
37 310 m 0
 37 406.667 67.1667 488.833 127.5 556.5 c 128
 187.833 624.167 264.667 658 358 658 c 0
 404.667 658 450 650.5 494 635.5 c 128
 538 620.5 565.667 613 577 613 c 1
 587 557.667 594.333 506 599 458 c 1
 589.658 453.333 582.324 451 577 451 c 0
 575 451 571.333 451.667 566 453 c 1
 532 565 459 621 347 621 c 0
 289 621 235.667 591.333 187 532 c 1
 147.667 482.667 128 415 128 329 c 0
 128 252.333 149.833 183.5 193.5 122.5 c 128
 237.167 61.5 291.333 31 356 31 c 0
 402.667 31 444.167 39.5 480.5 56.5 c 128
 516.833 73.5 552.667 101.333 588 140 c 1
 598 140 605.667 135 611 125 c 1
 542.333 35 457.667 -10 357 -10 c 0
 254.333 -10 175.333 20.3333 120 81 c 128
 64.6667 141.667 37 218 37 310 c 0
EndSplineSet
EndChar

StartChar: uni0044
Encoding: 68 68 69
Width: 673
GlyphClass: 2
Flags: W
LayerCount: 3
Fore
SplineSet
191 84 m 2,0,1
 191 57 191 57 211.5 44.5 c 128,-1,2
 232 32 232 32 300 32 c 0,3,4
 357 32 357 32 401 43.5 c 128,-1,5
 445 55 445 55 483 82 c 128,-1,6
 521 109 521 109 541.5 160 c 128,-1,7
 562 211 562 211 562 284 c 0,8,9
 562 345 562 345 547 401 c 128,-1,10
 532 457 532 457 500 506 c 128,-1,11
 468 555 468 555 410 584 c 128,-1,12
 352 613 352 613 275 613 c 0,13,14
 191 613 191 613 191 564 c 2,15,-1
 191 84 l 2,0,1
148 645 m 0,16,17
 164 645 164 645 218.5 646 c 128,-1,18
 273 647 273 647 313 647 c 0,19,20
 457 647 457 647 557.5 547.5 c 128,-1,21
 658 448 658 448 658 308 c 0,22,23
 658 237 658 237 637 181.5 c 128,-1,24
 616 126 616 126 583.5 93 c 128,-1,25
 551 60 551 60 506.5 38 c 128,-1,26
 462 16 462 16 419.5 8 c 128,-1,27
 377 0 377 0 331 0 c 2,28,-1
 149 0 l 2,29,30
 97 0 97 0 19 -2 c 1,31,32
 14 3 14 3 14 14 c 0,33,34
 14 26 14 26 19 31 c 1,35,36
 75 33 75 33 90.5 47.5 c 128,-1,37
 106 62 106 62 106 122 c 2,38,-1
 106 523 l 2,39,40
 106 583 106 583 90.5 597.5 c 128,-1,41
 75 612 75 612 19 614 c 1,42,43
 14 619 14 619 14 630 c 0,44,45
 14 642 14 642 19 647 c 1,46,47
 99 645 99 645 148 645 c 0,16,17
EndSplineSet
Validated: 1
Layer: 2
SplineSet
191 84 m 2
 191 66 197.833 52.8333 211.5 44.5 c 128
 225.167 36.1667 254.667 32 300 32 c 0
 338 32 371.667 35.8333 401 43.5 c 128
 430.334 51.1667 457.667 64 483 82 c 128
 508.333 100 527.833 126 541.5 160 c 128
 555.167 194 562 235.333 562 284 c 0
 562 324.667 557 363.667 547 401 c 128
 537 438.333 521.333 473.333 500 506 c 128
 478.667 538.667 448.667 564.667 410 584 c 128
 371.333 603.333 326.333 613 275 613 c 0
 219 613 191 596.667 191 564 c 2
 191 84 l 2
148 645 m 0
 158.667 645 182.167 645.333 218.5 646 c 128
 254.833 646.667 286.333 647 313 647 c 0
 409 647 490.5 613.833 557.5 547.5 c 128
 624.5 481.167 658 401.333 658 308 c 0
 658 260.667 651 218.5 637 181.5 c 128
 623 144.5 605.167 115 583.5 93 c 128
 561.833 71 536.167 52.6667 506.5 38 c 128
 476.833 23.3333 447.833 13.3333 419.5 8 c 128
 391.167 2.66667 361.667 0 331 0 c 2
 149 0 l 2
 114.333 0 71 -0.666667 19 -2 c 1
 15.6667 1.33333 14 6.66667 14 14 c 0
 14 22 15.6667 27.6667 19 31 c 1
 56.3333 32.3333 80.1667 37.8333 90.5 47.5 c 128
 100.833 57.1667 106 82 106 122 c 2
 106 523 l 2
 106 563 100.833 587.833 90.5 597.5 c 128
 80.1667 607.167 56.3333 612.667 19 614 c 1
 15.6667 617.333 14 622.667 14 630 c 0
 14 638 15.6667 643.667 19 647 c 1
 72.3333 645.667 115.333 645 148 645 c 0
EndSplineSet
EndChar

StartChar: uni0045
Encoding: 69 69 70
Width: 544
GlyphClass: 2
Flags: W
LayerCount: 3
Fore
SplineSet
312 361 m 2,0,1
 370 361 370 361 370 408 c 0,2,3
 370 410 370 410 370 412 c 2,4,-1
 369 415 l 2,5,6
 369 418 369 418 370 418 c 0,7,8
 372 418 372 418 372 429 c 1,9,10
 377 434 377 434 388 434 c 0,11,12
 400 434 400 434 405 429 c 1,13,14
 403 381 403 381 403 343 c 0,15,16
 403 307 403 307 405 255 c 1,17,18
 400 250 400 250 388 250 c 0,19,20
 377 250 377 250 372 255 c 1,21,22
 370 282 370 282 366 293.5 c 128,-1,23
 362 305 362 305 342 314 c 128,-1,24
 322 323 322 323 281 323 c 2,25,-1
 190 323 l 1,26,-1
 190 102 l 2,27,28
 190 67 190 67 202.5 53 c 128,-1,29
 215 39 215 39 246 39 c 2,30,-1
 362 39 l 2,31,32
 457 39 457 39 493 170 c 1,33,34
 497 171 497 171 505 171 c 0,35,36
 518 171 518 171 528 165 c 1,37,38
 516 90 516 90 491 0 c 1,39,-1
 18 0 l 1,40,41
 14 4 14 4 14 14 c 0,42,43
 14 27 14 27 18 31 c 1,44,45
 74 33 74 33 89.5 47.5 c 128,-1,46
 105 62 105 62 105 122 c 2,47,-1
 105 523 l 2,48,49
 105 583 105 583 89.5 597.5 c 128,-1,50
 74 612 74 612 18 614 c 1,51,52
 14 618 14 618 14 630 c 0,53,54
 14 643 14 643 18 647 c 1,55,56
 98 645 98 645 147 645 c 2,57,-1
 402 645 l 2,58,59
 428 645 428 645 451 649 c 0,60,61
 455 649 455 649 455 646 c 0,62,63
 463 612 463 612 477 501 c 1,64,65
 466 495 466 495 453 495 c 0,66,67
 452 495 452 495 449 495.5 c 128,-1,68
 446 496 446 496 444 496 c 1,69,70
 425 556 425 556 404 580.5 c 128,-1,71
 383 605 383 605 331 605 c 2,72,-1
 256 605 l 2,73,74
 217 605 217 605 203.5 590.5 c 128,-1,75
 190 576 190 576 190 541 c 2,76,-1
 190 361 l 1,77,-1
 312 361 l 2,0,1
EndSplineSet
Validated: 1
Layer: 2
SplineSet
312 361 m 2
 350.667 361 370 376.667 370 408 c 0
 370 410 370 410 370 412 c 2
 369 415 l 2
 369 417 369.333 418 370 418 c 0
 371.333 418 372 421.667 372 429 c 1
 375.336 432.333 380.67 434 388 434 c 0
 396 434 401.667 432.333 405 429 c 1
 403.667 397 403 368.333 403 343 c 0
 403 319 403.667 289.667 405 255 c 1
 401.667 251.667 396 250 388 250 c 0
 380.667 250 375.333 251.667 372 255 c 1
 370.667 273 368.667 285.833 366 293.5 c 128
 363.333 301.167 355.333 308 342 314 c 128
 328.667 320 308.333 323 281 323 c 2
 190 323 l 1
 190 102 l 2
 190 78.6667 194.167 62.3333 202.5 53 c 128
 210.833 43.6667 225.333 39 246 39 c 2
 362 39 l 2
 425.333 39 469 82.6667 493 170 c 1
 495.667 170.667 499.667 171 505 171 c 0
 513.671 171 521.337 169 528 165 c 1
 520 115 507.667 60 491 0 c 1
 18 0 l 1
 15.3333 2.66667 14 7.33333 14 14 c 0
 14 22.6667 15.3333 28.3333 18 31 c 1
 55.3333 32.3333 79.1667 37.8333 89.5 47.5 c 128
 99.8333 57.1667 105 82 105 122 c 2
 105 523 l 2
 105 563 99.8333 587.833 89.5 597.5 c 128
 79.1667 607.167 55.3333 612.667 18 614 c 1
 15.3333 616.667 14 622 14 630 c 0
 14 638.676 15.3333 644.343 18 647 c 1
 71.3333 645.667 114.333 645 147 645 c 2
 402 645 l 2
 419.334 645 435.667 646.333 451 649 c 0
 453.667 649 455 648 455 646 c 0
 460.334 623.333 467.667 575 477 501 c 1
 469.667 497 461.667 495 453 495 c 0
 452.333 495 451 495.167 449 495.5 c 128
 447 495.833 445.333 496 444 496 c 1
 431.333 536 418 564.167 404 580.5 c 128
 390 596.833 365.667 605 331 605 c 2
 256 605 l 2
 230 605 212.5 600.167 203.5 590.5 c 128
 194.5 580.833 190 564.333 190 541 c 2
 190 361 l 1
 312 361 l 2
EndSplineSet
EndChar

StartChar: uni0046
Encoding: 70 70 71
Width: 483
GlyphClass: 2
Flags: W
LayerCount: 3
Fore
SplineSet
305 323 m 2,0,-1
 190 323 l 1,1,-1
 190 122 l 2,2,3
 190 62 190 62 205.5 47.5 c 128,-1,4
 221 33 221 33 277 31 c 1,5,6
 282 26 282 26 282 14 c 0,7,8
 282 5 282 5 277 0 c 1,9,-1
 238 0 l 1,10,11
 238 0 238 0 148 0 c 0,12,13
 88 0 88 0 18 -2 c 1,14,15
 14 2 14 2 14 14 c 0,16,17
 14 27 14 27 18 31 c 1,18,19
 74 33 74 33 89.5 47.5 c 128,-1,20
 105 62 105 62 105 122 c 2,21,-1
 105 523 l 2,22,23
 105 583 105 583 89.5 597.5 c 128,-1,24
 74 612 74 612 18 614 c 1,25,26
 14 618 14 618 14 630 c 0,27,28
 14 643 14 643 18 647 c 1,29,30
 98 645 98 645 147 645 c 2,31,-1
 402 645 l 2,32,33
 426 645 426 645 449 649 c 0,34,35
 453 649 453 649 453 646 c 0,36,37
 461 612 461 612 475 501 c 1,38,39
 462 496 462 496 444 496 c 1,40,41
 432 535 432 535 418 556 c 128,-1,42
 404 577 404 577 373 591 c 128,-1,43
 342 605 342 605 291 605 c 2,44,-1
 246 605 l 2,45,46
 212 605 212 605 201 593 c 128,-1,47
 190 581 190 581 190 541 c 2,48,-1
 190 361 l 1,49,-1
 283 361 l 2,50,51
 344 361 344 361 358 373 c 128,-1,52
 372 385 372 385 374 429 c 1,53,54
 379 434 379 434 390 434 c 0,55,56
 402 434 402 434 407 429 c 1,57,58
 405 377 405 377 405 343 c 0,59,60
 405 305 405 305 407 255 c 1,61,62
 402 250 402 250 390 250 c 0,63,64
 379 250 379 250 374 255 c 1,65,66
 374 260 374 260 373 260 c 1,67,-1
 373 266 l 2,68,69
 373 273 373 273 370.5 282.5 c 128,-1,70
 368 292 368 292 362.5 301 c 128,-1,71
 357 310 357 310 342 316.5 c 128,-1,72
 327 323 327 323 305 323 c 2,0,-1
EndSplineSet
Validated: 1
Layer: 2
SplineSet
305 323 m 2
 190 323 l 1
 190 122 l 2
 190 82 195.167 57.1667 205.5 47.5 c 128
 215.833 37.8333 239.667 32.3333 277 31 c 1
 280.333 27.6667 282 22 282 14 c 0
 282 8 280.333 3.33333 277 0 c 1
 238 0 l 1
 238 0 238 0 148 0 c 0
 108 0 64.6667 -0.666667 18 -2 c 1
 15.3333 0.666667 14 6 14 14 c 0
 14 22.6667 15.3333 28.3333 18 31 c 1
 55.3333 32.3333 79.1667 37.8333 89.5 47.5 c 128
 99.8333 57.1667 105 82 105 122 c 2
 105 523 l 2
 105 563 99.8333 587.833 89.5 597.5 c 128
 79.1667 607.167 55.3333 612.667 18 614 c 1
 15.3333 616.667 14 622 14 630 c 0
 14 638.676 15.3333 644.343 18 647 c 1
 71.3333 645.667 114.333 645 147 645 c 2
 402 645 l 2
 418 645 433.667 646.333 449 649 c 0
 451.667 649 453 648 453 646 c 0
 458.337 623.333 465.67 575 475 501 c 1
 466.333 497.667 456 496 444 496 c 1
 436 522 427.333 542 418 556 c 128
 408.667 570 393.667 581.667 373 591 c 128
 352.333 600.333 325 605 291 605 c 2
 246 605 l 2
 223.333 605 208.333 601 201 593 c 128
 193.667 585 190 567.667 190 541 c 2
 190 361 l 1
 283 361 l 2
 323.667 361 348.667 365 358 373 c 128
 367.336 381 372.669 399.667 374 429 c 1
 377.335 432.333 382.668 434 390 434 c 0
 398 434 403.667 432.333 407 429 c 1
 405.667 394.333 405 365.666 405 343 c 0
 405 317.667 405.667 288.333 407 255 c 1
 403.667 251.667 398 250 390 250 c 0
 382.667 250 377.333 251.667 374 255 c 1
 374 258.333 373.667 260 373 260 c 1
 373 266 l 2
 373 270.667 372.167 276.167 370.5 282.5 c 128
 368.828 288.833 366.161 295 362.5 301 c 128
 358.833 307 352 312.167 342 316.5 c 128
 332 320.833 319.667 323 305 323 c 2
EndSplineSet
EndChar

StartChar: uni0047
Encoding: 71 71 72
Width: 683
GlyphClass: 2
Flags: W
LayerCount: 3
Fore
SplineSet
377 658 m 0,0,1
 426 658 426 658 463.5 649 c 128,-1,2
 501 640 501 640 532.5 628 c 128,-1,3
 564 616 564 616 585 613 c 1,4,5
 608 510 608 510 608 459 c 1,6,7
 593 453 593 453 579 453 c 2,8,-1
 575 453 l 1,9,10
 564 491 564 491 551 517 c 128,-1,11
 538 543 538 543 514.5 569 c 128,-1,12
 491 595 491 595 453 608.5 c 128,-1,13
 415 622 415 622 363 622 c 0,14,15
 272 622 272 622 202.5 538 c 128,-1,16
 133 454 133 454 133 327 c 0,17,18
 133 258 133 258 159.5 190.5 c 128,-1,19
 186 123 186 123 243 74.5 c 128,-1,20
 300 26 300 26 375 26 c 0,21,22
 490 26 490 26 530 64 c 1,23,-1
 530 217 l 2,24,25
 530 245 530 245 512.5 253.5 c 128,-1,26
 495 262 495 262 448 265 c 1,27,28
 444 269 444 269 444 283 c 128,-1,29
 444 297 444 297 448 301 c 1,30,31
 536 299 536 299 572 299 c 0,32,33
 613 299 613 299 661 301 c 1,34,35
 666 296 666 296 666 283 c 128,-1,36
 666 270 666 270 661 265 c 1,37,38
 638 263 638 263 626.5 252.5 c 128,-1,39
 615 242 615 242 615 217 c 2,40,-1
 615 101 l 2,41,42
 615 86 615 86 631 73 c 1,43,44
 534 -10 534 -10 352 -10 c 0,45,46
 211 -10 211 -10 124 80 c 128,-1,47
 37 170 37 170 37 307 c 0,48,49
 37 412 37 412 87.5 494 c 128,-1,50
 138 576 138 576 215 617 c 128,-1,51
 292 658 292 658 377 658 c 0,0,1
EndSplineSet
Validated: 1
Layer: 2
SplineSet
377 658 m 0
 409.667 658 438.5 655 463.5 649 c 128
 488.5 643 511.5 636 532.5 628 c 128
 553.5 620 571 615 585 613 c 1
 600.333 544.333 608 493 608 459 c 1
 598 455 588.333 453 579 453 c 2
 575 453 l 1
 567.667 478.334 559.667 499.668 551 517 c 128
 542.333 534.333 530.167 551.667 514.5 569 c 128
 498.833 586.333 478.333 599.5 453 608.5 c 128
 427.667 617.5 397.667 622 363 622 c 0
 302.333 622 248.833 594 202.5 538 c 128
 156.167 482 133 411.667 133 327 c 0
 133 281 141.833 235.5 159.5 190.5 c 128
 177.167 145.5 205 106.833 243 74.5 c 128
 281 42.1667 325 26 375 26 c 0
 451.667 26 503.333 38.6667 530 64 c 1
 530 217 l 2
 530 235.667 524.167 247.833 512.5 253.5 c 128
 500.833 259.167 479.333 263 448 265 c 1
 445.333 267.667 444 273.667 444 283 c 128
 444 292.333 445.333 298.333 448 301 c 1
 506.667 299.667 548 299 572 299 c 0
 599.333 299 629 299.667 661 301 c 1
 664.333 297.667 666 291.667 666 283 c 128
 666 274.333 664.333 268.333 661 265 c 1
 645.667 263.667 634.167 259.5 626.5 252.5 c 128
 618.833 245.5 615 233.667 615 217 c 2
 615 101 l 2
 615 91 620.333 81.6667 631 73 c 1
 566.333 17.6667 473.333 -10 352 -10 c 0
 258 -10 182 20 124 80 c 128
 66 140 37 215.667 37 307 c 0
 37 377 53.8333 439.333 87.5 494 c 128
 121.167 548.667 163.667 589.667 215 617 c 128
 266.333 644.333 320.333 658 377 658 c 0
EndSplineSet
EndChar

StartChar: uni0048
Encoding: 72 72 73
Width: 721
GlyphClass: 2
Flags: W
LayerCount: 3
Fore
SplineSet
618 122 m 2,0,1
 618 62 618 62 633.5 47.5 c 128,-1,2
 649 33 649 33 705 31 c 1,3,4
 710 26 710 26 710 14 c 0,5,6
 710 3 710 3 705 -2 c 1,7,8
 617 0 617 0 576 0 c 0,9,10
 536 0 536 0 446 -2 c 1,11,12
 442 2 442 2 442 14 c 0,13,14
 442 27 442 27 446 31 c 1,15,16
 502 33 502 33 517.5 47.5 c 128,-1,17
 533 62 533 62 533 122 c 2,18,-1
 533 321 l 1,19,-1
 191 321 l 1,20,-1
 191 122 l 2,21,22
 191 62 191 62 206.5 47.5 c 128,-1,23
 222 33 222 33 278 31 c 1,24,25
 282 27 282 27 282 14 c 0,26,27
 282 2 282 2 278 -2 c 1,28,29
 190 0 190 0 149 0 c 0,30,31
 107 0 107 0 19 -2 c 1,32,33
 14 3 14 3 14 14 c 0,34,35
 14 26 14 26 19 31 c 1,36,37
 75 33 75 33 90.5 47.5 c 128,-1,38
 106 62 106 62 106 122 c 2,39,-1
 106 523 l 2,40,41
 106 583 106 583 90.5 597.5 c 128,-1,42
 75 612 75 612 19 614 c 1,43,44
 14 619 14 619 14 630 c 0,45,46
 14 642 14 642 19 647 c 1,47,48
 95 645 95 645 148 645 c 0,49,50
 202 645 202 645 278 647 c 1,51,52
 282 643 282 643 282 630 c 0,53,54
 282 618 282 618 278 614 c 1,55,56
 222 612 222 612 206.5 597.5 c 128,-1,57
 191 583 191 583 191 523 c 2,58,-1
 191 363 l 1,59,-1
 533 363 l 1,60,-1
 533 523 l 2,61,62
 533 583 533 583 517.5 597.5 c 128,-1,63
 502 612 502 612 446 614 c 1,64,65
 442 618 442 618 442 630 c 0,66,67
 442 643 442 643 446 647 c 1,68,69
 534 645 534 645 575 645 c 0,70,71
 623 645 623 645 705 647 c 1,72,73
 710 642 710 642 710 630 c 0,74,75
 710 619 710 619 705 614 c 1,76,77
 649 612 649 612 633.5 597.5 c 128,-1,78
 618 583 618 583 618 523 c 2,79,-1
 618 122 l 2,0,1
EndSplineSet
Validated: 1
Layer: 2
SplineSet
618 122 m 2
 618 82 623.167 57.1667 633.5 47.5 c 128
 643.833 37.8333 667.667 32.3333 705 31 c 1
 708.333 27.6667 710 22 710 14 c 0
 710 6.66667 708.333 1.33333 705 -2 c 1
 646.333 -0.666667 603.333 0 576 0 c 0
 549.333 0 506 -0.666667 446 -2 c 1
 443.333 0.666667 442 6 442 14 c 0
 442 22.6667 443.333 28.3333 446 31 c 1
 483.334 32.3333 507.167 37.8333 517.5 47.5 c 128
 527.833 57.1667 533 82 533 122 c 2
 533 321 l 1
 191 321 l 1
 191 122 l 2
 191 82 196.167 57.1667 206.5 47.5 c 128
 216.833 37.8333 240.667 32.3333 278 31 c 1
 280.667 28.3333 282 22.6667 282 14 c 0
 282 6 280.667 0.666667 278 -2 c 1
 219.333 -0.666667 176.333 0 149 0 c 0
 121 0 77.6667 -0.666667 19 -2 c 1
 15.6667 1.33333 14 6.66667 14 14 c 0
 14 22 15.6667 27.6667 19 31 c 1
 56.3333 32.3333 80.1667 37.8333 90.5 47.5 c 128
 100.833 57.1667 106 82 106 122 c 2
 106 523 l 2
 106 563 100.833 587.833 90.5 597.5 c 128
 80.1667 607.167 56.3333 612.667 19 614 c 1
 15.6667 617.333 14 622.667 14 630 c 0
 14 638 15.6667 643.667 19 647 c 1
 69.6667 645.667 112.667 645 148 645 c 0
 184 645 227.333 645.667 278 647 c 1
 280.667 644.333 282 638.667 282 630 c 0
 282 622 280.667 616.667 278 614 c 1
 240.666 612.667 216.833 607.167 206.5 597.5 c 128
 196.167 587.833 191 563 191 523 c 2
 191 363 l 1
 533 363 l 1
 533 523 l 2
 533 563 527.833 587.833 517.5 597.5 c 128
 507.167 607.167 483.333 612.667 446 614 c 1
 443.333 616.667 442 622 442 630 c 0
 442 638.676 443.333 644.343 446 647 c 1
 504.667 645.667 547.667 645 575 645 c 0
 607 645 650.333 645.667 705 647 c 1
 708.333 643.667 710 638 710 630 c 0
 710 622.662 708.333 617.329 705 614 c 1
 667.665 612.667 643.832 607.167 633.5 597.5 c 128
 623.167 587.833 618 563 618 523 c 2
 618 122 l 2
EndSplineSet
EndChar

StartChar: uni0049
Encoding: 73 73 74
Width: 297
GlyphClass: 2
Flags: W
LayerCount: 3
Fore
SplineSet
191 122 m 2,0,1
 191 62 191 62 206.5 47.5 c 128,-1,2
 222 33 222 33 278 31 c 1,3,4
 282 27 282 27 282 14 c 0,5,6
 282 2 282 2 278 -2 c 1,7,8
 188 0 188 0 149 0 c 0,9,10
 109 0 109 0 19 -2 c 1,11,12
 14 3 14 3 14 14 c 0,13,14
 14 26 14 26 19 31 c 1,15,16
 75 33 75 33 90.5 47.5 c 128,-1,17
 106 62 106 62 106 122 c 2,18,-1
 106 523 l 2,19,20
 106 583 106 583 90.5 597.5 c 128,-1,21
 75 612 75 612 19 614 c 1,22,23
 14 619 14 619 14 630 c 0,24,25
 14 642 14 642 19 647 c 1,26,27
 113 645 113 645 148 645 c 0,28,29
 190 645 190 645 278 647 c 1,30,31
 282 643 282 643 282 630 c 0,32,33
 282 618 282 618 278 614 c 1,34,35
 222 612 222 612 206.5 597.5 c 128,-1,36
 191 583 191 583 191 523 c 2,37,-1
 191 122 l 2,0,1
EndSplineSet
Validated: 1
Layer: 2
SplineSet
191 122 m 2
 191 82 196.167 57.1667 206.5 47.5 c 128
 216.833 37.8333 240.667 32.3333 278 31 c 1
 280.667 28.3333 282 22.6667 282 14 c 0
 282 6 280.667 0.666667 278 -2 c 1
 218 -0.666667 175 0 149 0 c 0
 122.333 0 79 -0.666667 19 -2 c 1
 15.6667 1.33333 14 6.66667 14 14 c 0
 14 22 15.6667 27.6667 19 31 c 1
 56.3333 32.3333 80.1667 37.8333 90.5 47.5 c 128
 100.833 57.1667 106 82 106 122 c 2
 106 523 l 2
 106 563 100.833 587.833 90.5 597.5 c 128
 80.1667 607.167 56.3333 612.667 19 614 c 1
 15.6667 617.333 14 622.667 14 630 c 0
 14 638 15.6667 643.667 19 647 c 1
 81.6667 645.667 124.667 645 148 645 c 0
 176 645 219.333 645.667 278 647 c 1
 280.667 644.333 282 638.667 282 630 c 0
 282 622 280.667 616.667 278 614 c 1
 240.666 612.667 216.833 607.167 206.5 597.5 c 128
 196.167 587.833 191 563 191 523 c 2
 191 122 l 2
EndSplineSet
EndChar

StartChar: uni004A
Encoding: 74 74 75
Width: 335
GlyphClass: 2
Flags: W
LayerCount: 3
Fore
SplineSet
226 523 m 2,0,-1
 226 103 l 2,1,2
 226 52 226 52 217 12.5 c 128,-1,3
 208 -27 208 -27 190.5 -54 c 128,-1,4
 173 -81 173 -81 159.5 -96 c 128,-1,5
 146 -111 146 -111 124 -129 c 0,6,7
 74 -172 74 -172 7 -172 c 0,8,9
 -15 -172 -15 -172 -41.5 -157 c 128,-1,10
 -68 -142 -68 -142 -68 -118 c 0,11,12
 -68 -103 -68 -103 -52 -89 c 128,-1,13
 -36 -75 -36 -75 -24 -75 c 0,14,15
 4 -75 4 -75 16 -100 c 0,16,17
 29 -127 29 -127 56 -127 c 0,18,19
 76 -127 76 -127 93 -114 c 128,-1,20
 110 -101 110 -101 125.5 -51.5 c 128,-1,21
 141 -2 141 -2 141 81 c 2,22,-1
 141 523 l 2,23,24
 141 583 141 583 124 597.5 c 128,-1,25
 107 612 107 612 44 614 c 1,26,27
 40 618 40 618 40 630 c 0,28,29
 40 643 40 643 44 647 c 1,30,31
 144 645 144 645 183 645 c 0,32,33
 227 645 227 645 303 647 c 1,34,35
 308 642 308 642 308 630 c 0,36,37
 308 619 308 619 303 614 c 1,38,39
 255 612 255 612 240.5 597 c 128,-1,40
 226 582 226 582 226 523 c 2,0,-1
EndSplineSet
Validated: 1
Layer: 2
SplineSet
226 523 m 2
 226 103 l 2
 226 69 223 38.8333 217 12.5 c 128
 211 -13.8333 202.167 -36 190.5 -54 c 128
 178.833 -72 168.5 -86 159.5 -96 c 128
 150.5 -106 138.667 -117 124 -129 c 0
 90.6667 -157.667 51.6667 -172 7 -172 c 0
 -7.66667 -172 -23.8333 -167 -41.5 -157 c 128
 -59.1666 -147 -67.9999 -134 -68 -118 c 0
 -68 -108 -62.6667 -98.3333 -52 -89 c 128
 -41.3333 -79.6667 -32 -75 -24 -75 c 0
 -5.33333 -75 8 -83.3333 16 -100 c 0
 24.6667 -118 38 -127 56 -127 c 0
 69.3334 -127 81.6667 -122.667 93 -114 c 128
 104.333 -105.333 115.167 -84.5 125.5 -51.5 c 128
 135.833 -18.5 141 25.6667 141 81 c 2
 141 523 l 2
 141 563 135.333 587.833 124 597.5 c 128
 112.667 607.167 86 612.667 44 614 c 1
 41.3333 616.667 40 622 40 630 c 0
 40 638.676 41.3333 644.343 44 647 c 1
 110.667 645.667 157 645 183 645 c 0
 212.333 645 252.333 645.667 303 647 c 1
 306.333 643.667 308 638 308 630 c 0
 308 622.662 306.333 617.329 303 614 c 1
 271 612.667 250.167 607 240.5 597 c 128
 230.833 587 226 562.333 226 523 c 2
EndSplineSet
EndChar

StartChar: uni004B
Encoding: 75 75 76
Width: 653
GlyphClass: 2
Flags: W
LayerCount: 3
Fore
SplineSet
191 122 m 2,0,1
 191 62 191 62 206.5 47.5 c 128,-1,2
 222 33 222 33 278 31 c 1,3,4
 282 27 282 27 282 14 c 0,5,6
 282 4 282 4 278 0 c 1,7,-1
 233 0 l 1,8,9
 233 0 233 0 149 0 c 0,10,11
 109 0 109 0 19 -2 c 1,12,13
 14 3 14 3 14 14 c 0,14,15
 14 26 14 26 19 31 c 1,16,17
 75 33 75 33 90.5 47.5 c 128,-1,18
 106 62 106 62 106 122 c 2,19,-1
 106 523 l 2,20,21
 106 583 106 583 90.5 597.5 c 128,-1,22
 75 612 75 612 19 614 c 1,23,24
 14 619 14 619 14 630 c 0,25,26
 14 642 14 642 19 647 c 1,27,28
 109 645 109 645 148 645 c 0,29,30
 186 645 186 645 278 647 c 1,31,32
 282 643 282 643 282 630 c 0,33,34
 282 618 282 618 278 614 c 1,35,36
 222 612 222 612 206.5 597.5 c 128,-1,37
 191 583 191 583 191 523 c 2,38,-1
 191 347 l 1,39,40
 238 351 238 351 270 386 c 2,41,-1
 435 562 l 2,42,43
 454 582 454 582 454 594 c 0,44,45
 454 610 454 610 407 614 c 1,46,47
 402 619 402 619 402 630 c 0,48,49
 402 642 402 642 407 647 c 1,50,51
 481 645 481 645 520 645 c 0,52,53
 553 645 553 645 615 647 c 1,54,55
 620 642 620 642 620 630 c 0,56,57
 620 619 620 619 615 614 c 1,58,59
 589 612 589 612 573.5 609 c 128,-1,60
 558 606 558 606 534.5 593.5 c 128,-1,61
 511 581 511 581 489 558 c 2,62,-1
 342 407 l 2,63,64
 307 371 307 371 307 358 c 0,65,66
 307 348 307 348 320 333 c 2,67,-1
 539 73 l 2,68,69
 553 56 553 56 570 46.5 c 128,-1,70
 587 37 587 37 597.5 35 c 128,-1,71
 608 33 608 33 627 31 c 1,72,73
 632 26 632 26 632 14 c 0,74,75
 632 3 632 3 627 -2 c 1,76,77
 561 0 561 0 526 0 c 0,78,79
 512 0 512 0 472 -2 c 0,80,81
 467 -2 467 -2 467 4 c 0,82,83
 464 31 464 31 431 73 c 2,84,-1
 274 271 l 2,85,86
 246 307 246 307 191 309 c 1,87,-1
 191 122 l 2,0,1
EndSplineSet
Validated: 1
Layer: 2
SplineSet
191 122 m 2
 191 82 196.167 57.1667 206.5 47.5 c 128
 216.833 37.8333 240.667 32.3333 278 31 c 1
 280.667 28.3333 282 22.6667 282 14 c 0
 282 7.33333 280.667 2.66667 278 0 c 1
 233 0 l 1
 233 0 233 0 149 0 c 0
 122.333 0 79 -0.666667 19 -2 c 1
 15.6667 1.33333 14 6.66667 14 14 c 0
 14 22 15.6667 27.6667 19 31 c 1
 56.3333 32.3333 80.1667 37.8333 90.5 47.5 c 128
 100.833 57.1667 106 82 106 122 c 2
 106 523 l 2
 106 563 100.833 587.833 90.5 597.5 c 128
 80.1667 607.167 56.3333 612.667 19 614 c 1
 15.6667 617.333 14 622.667 14 630 c 0
 14 638 15.6667 643.667 19 647 c 1
 79 645.667 122 645 148 645 c 0
 173.333 645 216.667 645.667 278 647 c 1
 280.667 644.333 282 638.667 282 630 c 0
 282 622 280.667 616.667 278 614 c 1
 240.666 612.667 216.833 607.167 206.5 597.5 c 128
 196.167 587.833 191 563 191 523 c 2
 191 347 l 1
 222.333 349.667 248.667 362.667 270 386 c 2
 435 562 l 2
 447.667 575.333 454 586 454 594 c 0
 454 604.667 438.333 611.334 407 614 c 1
 403.667 617.333 402 622.667 402 630 c 0
 402 638 403.667 643.667 407 647 c 1
 456.333 645.667 494 645 520 645 c 0
 542 645 573.667 645.667 615 647 c 1
 618.333 643.667 620 638 620 630 c 0
 620 622.662 618.333 617.329 615 614 c 1
 597.664 612.667 583.831 611 573.5 609 c 128
 563.167 607 550.167 601.833 534.5 593.5 c 128
 518.833 585.162 503.667 573.329 489 558 c 2
 342 407 l 2
 318.667 383 307 366.667 307 358 c 0
 307 351.333 311.333 343 320 333 c 2
 539 73 l 2
 548.333 61.6666 558.667 52.8333 570 46.5 c 128
 581.333 40.1666 590.5 36.3333 597.5 35 c 128
 604.5 33.6666 614.333 32.3333 627 31 c 1
 630.333 27.6667 632 22 632 14 c 0
 632 6.66667 630.333 1.33333 627 -2 c 1
 583 -0.666667 549.333 0 526 0 c 0
 516.666 0 498.666 -0.666667 472 -2 c 0
 468.667 -2 467 0 467 4 c 0
 465 22 453 45 431 73 c 2
 274 271 l 2
 255.333 295 227.667 307.667 191 309 c 1
 191 122 l 2
EndSplineSet
EndChar

StartChar: uni004C
Encoding: 76 76 77
Width: 522
GlyphClass: 2
Flags: W
LayerCount: 3
Fore
SplineSet
149 0 m 2,0,1
 97 0 97 0 19 -2 c 1,2,3
 14 3 14 3 14 14 c 0,4,5
 14 26 14 26 19 31 c 1,6,7
 75 33 75 33 90.5 47.5 c 128,-1,8
 106 62 106 62 106 122 c 2,9,-1
 106 523 l 2,10,11
 106 583 106 583 90.5 597.5 c 128,-1,12
 75 612 75 612 19 614 c 1,13,14
 14 619 14 619 14 630 c 0,15,16
 14 642 14 642 19 647 c 1,17,18
 111 645 111 645 148 645 c 0,19,20
 188 645 188 645 278 647 c 1,21,22
 282 643 282 643 282 630 c 0,23,24
 282 618 282 618 278 614 c 1,25,26
 222 612 222 612 206.5 597.5 c 128,-1,27
 191 583 191 583 191 523 c 2,28,-1
 191 109 l 2,29,30
 191 71 191 71 204.5 55 c 128,-1,31
 218 39 218 39 248 39 c 2,32,-1
 311 39 l 2,33,34
 384 39 384 39 420.5 73.5 c 128,-1,35
 457 108 457 108 474 170 c 1,36,37
 476 170 476 170 479 170.5 c 128,-1,38
 482 171 482 171 483 171 c 0,39,40
 496 171 496 171 507 165 c 1,41,42
 497 78 497 78 481 -2 c 1,43,44
 389 0 389 0 362 0 c 2,45,-1
 149 0 l 2,0,1
EndSplineSet
Validated: 1
Layer: 2
SplineSet
149 0 m 2
 114.333 0 71 -0.666667 19 -2 c 1
 15.6667 1.33333 14 6.66667 14 14 c 0
 14 22 15.6667 27.6667 19 31 c 1
 56.3333 32.3333 80.1667 37.8333 90.5 47.5 c 128
 100.833 57.1667 106 82 106 122 c 2
 106 523 l 2
 106 563 100.833 587.833 90.5 597.5 c 128
 80.1667 607.167 56.3333 612.667 19 614 c 1
 15.6667 617.333 14 622.667 14 630 c 0
 14 638 15.6667 643.667 19 647 c 1
 80.3333 645.667 123.333 645 148 645 c 0
 174.667 645 218 645.667 278 647 c 1
 280.667 644.333 282 638.667 282 630 c 0
 282 622 280.667 616.667 278 614 c 1
 240.666 612.667 216.833 607.167 206.5 597.5 c 128
 196.167 587.833 191 563 191 523 c 2
 191 109 l 2
 191 83.6667 195.5 65.6667 204.5 55 c 128
 213.5 44.3333 228 39 248 39 c 2
 311 39 l 2
 359.667 39 396.167 50.5 420.5 73.5 c 128
 444.834 96.5 462.668 128.667 474 170 c 1
 475.333 170 477 170.167 479 170.5 c 128
 481 170.833 482.333 171 483 171 c 0
 491.667 171 499.667 169 507 165 c 1
 500.333 107 491.666 51.3333 481 -2 c 1
 419.667 -0.666667 380 0 362 0 c 2
 149 0 l 2
EndSplineSet
EndChar

StartChar: uni004D
Encoding: 77 77 78
Width: 843
GlyphClass: 2
Flags: W
LayerCount: 3
Fore
SplineSet
660 198 m 2,0,-1
 637 534 l 1,1,-1
 635 534 l 1,2,-1
 410 5 l 1,3,4
 402 -10 402 -10 396 -10 c 0,5,6
 387 -10 387 -10 381 5 c 2,7,-1
 174 524 l 1,8,-1
 172 524 l 1,9,-1
 134 123 l 2,10,11
 132 103 132 103 132 95 c 0,12,13
 132 65 132 65 146.5 49.5 c 128,-1,14
 161 34 161 34 200 31 c 1,15,16
 204 27 204 27 204 14 c 0,17,18
 204 4 204 4 200 0 c 1,19,-1
 168 0 l 1,20,21
 168 0 168 0 106 0 c 0,22,23
 80 0 80 0 20 -2 c 1,24,25
 16 2 16 2 16 14 c 0,26,27
 16 27 16 27 20 31 c 1,28,29
 61 35 61 35 75.5 54 c 128,-1,30
 90 73 90 73 95 121 c 2,31,-1
 135 533 l 2,32,33
 137 563 137 563 137 569 c 0,34,35
 137 598 137 598 124.5 605 c 128,-1,36
 112 612 112 612 67 614 c 1,37,38
 62 619 62 619 62 630 c 0,39,40
 62 642 62 642 67 647 c 1,41,-1
 212 645 l 1,42,-1
 417 137 l 2,43,44
 422 124 422 124 425 124 c 128,-1,45
 428 124 428 124 434 138 c 2,46,-1
 646 645 l 1,47,-1
 777 647 l 1,48,49
 782 642 782 642 782 630 c 0,50,51
 782 619 782 619 777 614 c 1,52,53
 735 612 735 612 721 602 c 128,-1,54
 707 592 707 592 707 565 c 0,55,56
 707 562 707 562 707.5 554.5 c 128,-1,57
 708 547 708 547 708 542 c 2,58,-1
 738 121 l 2,59,60
 743 59 743 59 753.5 46 c 128,-1,61
 764 33 764 33 815 31 c 1,62,63
 820 26 820 26 820 14 c 0,64,65
 820 3 820 3 815 -2 c 1,66,67
 749 0 749 0 706 0 c 0,68,69
 673 0 673 0 599 -2 c 1,70,71
 594 3 594 3 594 14 c 0,72,73
 594 26 594 26 599 31 c 1,74,75
 641 33 641 33 652.5 40 c 128,-1,76
 664 47 664 47 664 79 c 0,77,78
 664 84 664 84 662 137 c 128,-1,79
 660 190 660 190 660 198 c 2,0,-1
EndSplineSet
Validated: 1
Layer: 2
SplineSet
660 198 m 2
 637 534 l 1
 635 534 l 1
 410 5 l 1
 404.667 -5 400 -10 396 -10 c 0
 390 -10 385 -5 381 5 c 2
 174 524 l 1
 172 524 l 1
 134 123 l 2
 132.667 109.667 132 100.333 132 95 c 0
 132 75 136.833 59.8333 146.5 49.5 c 128
 156.167 39.1667 174 33 200 31 c 1
 202.667 28.3333 204 22.6667 204 14 c 0
 204 7.33333 202.667 2.66667 200 0 c 1
 168 0 l 1
 168 0 168 0 106 0 c 0
 88.6667 0 60 -0.666667 20 -2 c 1
 17.3333 0.666667 16 6 16 14 c 0
 16 22.6667 17.3333 28.3333 20 31 c 1
 47.3333 33.6667 65.8333 41.3334 75.5 54 c 128
 85.1667 66.6667 91.6667 89 95 121 c 2
 135 533 l 2
 136.333 553 137 565 137 569 c 0
 137 588.333 132.833 600.333 124.5 605 c 128
 116.167 609.667 97 612.667 67 614 c 1
 63.6667 617.333 62 622.667 62 630 c 0
 62 638 63.6667 643.667 67 647 c 1
 212 645 l 1
 417 137 l 2
 420.333 128.333 423 124 425 124 c 128
 427 124 430 128.667 434 138 c 2
 646 645 l 1
 777 647 l 1
 780.333 643.667 782 638 782 630 c 0
 782 622.662 780.333 617.329 777 614 c 1
 749 612.667 730.333 608.667 721 602 c 128
 711.667 595.333 707 583 707 565 c 0
 707 563 707.167 559.5 707.5 554.5 c 128
 707.833 549.5 708 545.333 708 542 c 2
 738 121 l 2
 741.333 79.6667 746.5 54.6667 753.5 46 c 128
 760.5 37.3333 781 32.3333 815 31 c 1
 818.333 27.6667 820 22 820 14 c 0
 820 6.66667 818.333 1.33333 815 -2 c 1
 771 -0.666667 734.667 0 706 0 c 0
 684 0 648.333 -0.666667 599 -2 c 1
 595.667 1.33333 594 6.66667 594 14 c 0
 594 22 595.667 27.6667 599 31 c 1
 627 32.3333 644.833 35.3333 652.5 40 c 128
 660.167 44.6667 664 57.6667 664 79 c 0
 664 82.3333 663.333 101.667 662 137 c 128
 660.667 172.333 660 192.667 660 198 c 2
EndSplineSet
EndChar

StartChar: uni004E
Encoding: 78 78 79
Width: 709
GlyphClass: 2
Flags: W
LayerCount: 3
Fore
SplineSet
554 514 m 2,0,1
 554 560 554 560 546 580 c 128,-1,2
 538 600 538 600 524 605 c 128,-1,3
 510 610 510 610 469 614 c 1,4,5
 464 619 464 619 464 630 c 0,6,7
 464 642 464 642 469 647 c 1,8,9
 557 645 557 645 580 645 c 0,10,11
 610 645 610 645 692 647 c 1,12,13
 696 643 696 643 696 630 c 0,14,15
 696 618 696 618 692 614 c 1,16,17
 636 608 636 608 620.5 592 c 128,-1,18
 605 576 605 576 605 512 c 2,19,-1
 605 21 l 2,20,21
 605 -10 605 -10 582 -10 c 0,22,23
 560 -10 560 -10 542 14 c 2,24,-1
 193 455 l 2,25,26
 168 488 168 488 159 488 c 0,27,28
 151 488 151 488 151 439 c 2,29,-1
 151 133 l 2,30,31
 151 98 151 98 154 79.5 c 128,-1,32
 157 61 157 61 169 50.5 c 128,-1,33
 181 40 181 40 194 37 c 128,-1,34
 207 34 207 34 238 31 c 1,35,36
 242 27 242 27 242 14 c 0,37,38
 242 4 242 4 238 0 c 1,39,-1
 196 0 l 1,40,-1
 127 0 l 1,41,-1
 58 0 l 1,42,-1
 15 0 l 1,43,44
 10 5 10 5 10 14 c 0,45,46
 10 26 10 26 15 31 c 1,47,48
 71 37 71 37 86.5 53 c 128,-1,49
 102 69 102 69 102 133 c 2,50,-1
 102 550 l 1,51,52
 97 572 97 572 75 592 c 128,-1,53
 53 612 53 612 23 614 c 1,54,55
 18 619 18 619 18 630 c 0,56,57
 18 642 18 642 23 647 c 1,58,-1
 158 645 l 1,59,-1
 501 210 l 2,60,61
 544 155 544 155 549 155 c 0,62,63
 556 155 556 155 556 185 c 2,64,-1
 554 514 l 2,0,1
EndSplineSet
Validated: 1
Layer: 2
SplineSet
554 514 m 2
 554 544.667 551.333 566.667 546 580 c 128
 540.663 593.333 533.329 601.667 524 605 c 128
 514.667 608.333 496.333 611.333 469 614 c 1
 465.667 617.333 464 622.667 464 630 c 0
 464 638 465.667 643.667 469 647 c 1
 527.667 645.667 564.667 645 580 645 c 0
 600 645 637.333 645.667 692 647 c 1
 694.667 644.333 696 638.667 696 630 c 0
 696 622 694.667 616.667 692 614 c 1
 654.667 610 630.833 602.667 620.5 592 c 128
 610.167 581.333 605 554.667 605 512 c 2
 605 21 l 2
 605 0.333333 597.333 -10 582 -10 c 0
 567.333 -10 554 -2 542 14 c 2
 193 455 l 2
 176.333 477 165 488 159 488 c 0
 153.667 488 151 471.667 151 439 c 2
 151 133 l 2
 151 109.667 152 91.8333 154 79.5 c 128
 156 67.1667 161 57.5 169 50.5 c 128
 177 43.5 185.333 39 194 37 c 128
 202.667 35 217.334 33 238 31 c 1
 240.667 28.3333 242 22.6667 242 14 c 0
 242 7.33333 240.667 2.66667 238 0 c 1
 196 0 l 1
 127 0 l 1
 58 0 l 1
 15 0 l 1
 11.6667 3.33333 10 8 10 14 c 0
 10 22 11.6667 27.6667 15 31 c 1
 52.3333 35 76.1667 42.3333 86.5 53 c 128
 96.8333 63.6667 102 90.3334 102 133 c 2
 102 550 l 1
 98.6667 564.667 89.6667 578.667 75 592 c 128
 60.3333 605.333 43 612.667 23 614 c 1
 19.6667 617.333 18 622.667 18 630 c 0
 18 638 19.6667 643.667 23 647 c 1
 158 645 l 1
 501 210 l 2
 529.667 173.333 545.667 155 549 155 c 0
 553.667 155 556 165 556 185 c 2
 554 514 l 2
EndSplineSet
EndChar

StartChar: uni004F
Encoding: 79 79 80
Width: 696
GlyphClass: 2
Flags: W
LayerCount: 3
Fore
SplineSet
331 622 m 0,0,1
 249 622 249 622 191 548 c 128,-1,2
 133 474 133 474 133 327 c 0,3,4
 133 189 133 189 203 107.5 c 128,-1,5
 273 26 273 26 370 26 c 0,6,7
 458 26 458 26 514 102.5 c 128,-1,8
 570 179 570 179 570 310 c 0,9,10
 570 456 570 456 502 539 c 128,-1,11
 434 622 434 622 331 622 c 0,0,1
666 329 m 0,12,13
 666 179 666 179 579 84.5 c 128,-1,14
 492 -10 492 -10 350 -10 c 0,15,16
 218 -10 218 -10 127.5 78 c 128,-1,17
 37 166 37 166 37 310 c 0,18,19
 37 460 37 460 119.5 559 c 128,-1,20
 202 658 202 658 344 658 c 0,21,22
 483 658 483 658 574.5 569 c 128,-1,23
 666 480 666 480 666 329 c 0,12,13
EndSplineSet
Validated: 1
Layer: 2
SplineSet
331 622 m 0
 276.333 622 229.667 597.333 191 548 c 128
 152.333 498.667 133 425 133 327 c 0
 133 235 156.333 161.833 203 107.5 c 128
 249.667 53.1667 305.333 26 370 26 c 0
 428.667 26 476.667 51.5 514 102.5 c 128
 551.333 153.5 570 222.667 570 310 c 0
 570 407.333 547.333 483.667 502 539 c 128
 456.667 594.333 399.667 622 331 622 c 0
666 329 m 0
 666 229 637 147.5 579 84.5 c 128
 521 21.5 444.667 -10 350 -10 c 0
 262 -10 187.833 19.3333 127.5 78 c 128
 67.1667 136.667 37 214 37 310 c 0
 37 410 64.5 493 119.5 559 c 128
 174.5 625 249.333 658 344 658 c 0
 436.667 658 513.5 628.333 574.5 569 c 128
 635.5 509.667 666 429.667 666 329 c 0
EndSplineSet
EndChar

StartChar: uni0050
Encoding: 80 80 81
Width: 528
GlyphClass: 2
Flags: W
LayerCount: 3
Fore
SplineSet
189 554 m 2,0,-1
 189 321 l 1,1,2
 207 316 207 316 265 316 c 0,3,4
 339 316 339 316 376.5 352.5 c 128,-1,5
 414 389 414 389 414 468 c 0,6,7
 414 555 414 555 376 586.5 c 128,-1,8
 338 618 338 618 276 618 c 0,9,10
 189 618 189 618 189 554 c 2,0,-1
104 523 m 2,11,12
 104 583 104 583 88.5 597.5 c 128,-1,13
 73 612 73 612 17 614 c 1,14,15
 12 619 12 619 12 630 c 0,16,17
 12 642 12 642 17 647 c 1,18,19
 97 645 97 645 146 645 c 0,20,21
 166 645 166 645 215 648.5 c 128,-1,22
 264 652 264 652 283 652 c 0,23,24
 348 652 348 652 395 635 c 128,-1,25
 442 618 442 618 465 590.5 c 128,-1,26
 488 563 488 563 497.5 537.5 c 128,-1,27
 507 512 507 512 507 486 c 0,28,29
 507 451 507 451 495 417.5 c 128,-1,30
 483 384 483 384 457.5 352.5 c 128,-1,31
 432 321 432 321 383.5 301.5 c 128,-1,32
 335 282 335 282 270 282 c 0,33,34
 220 282 220 282 189 292 c 1,35,-1
 189 122 l 2,36,37
 189 63 189 63 208 48.5 c 128,-1,38
 227 34 227 34 291 31 c 1,39,40
 296 26 296 26 296 14 c 0,41,42
 296 5 296 5 291 0 c 1,43,-1
 239 0 l 1,44,-1
 147 0 l 2,45,46
 107 0 107 0 17 -2 c 1,47,48
 12 3 12 3 12 14 c 0,49,50
 12 26 12 26 17 31 c 1,51,52
 73 33 73 33 88.5 47.5 c 128,-1,53
 104 62 104 62 104 122 c 2,54,-1
 104 523 l 2,11,12
EndSplineSet
Validated: 1
Layer: 2
SplineSet
189 554 m 2
 189 321 l 1
 201 317.667 226.333 316 265 316 c 0
 314.333 316 351.5 328.167 376.5 352.5 c 128
 401.5 376.833 414 415.333 414 468 c 0
 414 526 401.333 565.5 376 586.5 c 128
 350.667 607.5 317.333 618 276 618 c 0
 218 618 189 596.667 189 554 c 2
104 523 m 2
 104 563 98.8333 587.833 88.5 597.5 c 128
 78.1667 607.167 54.3333 612.667 17 614 c 1
 13.6667 617.333 12 622.667 12 630 c 0
 12 638 13.6667 643.667 17 647 c 1
 70.3333 645.667 113.333 645 146 645 c 0
 159.333 645 182.333 646.167 215 648.5 c 128
 247.667 650.833 270.333 652 283 652 c 0
 326.334 652 363.667 646.333 395 635 c 128
 426.334 623.664 449.668 608.831 465 590.5 c 128
 480.335 572.167 491.169 554.5 497.5 537.5 c 128
 503.833 520.5 507 503.333 507 486 c 0
 507 462.667 503 439.833 495 417.5 c 128
 487 395.167 474.5 373.5 457.5 352.5 c 128
 440.5 331.5 415.833 314.5 383.5 301.5 c 128
 351.167 288.5 313.333 282 270 282 c 0
 236.667 282 209.667 285.333 189 292 c 1
 189 122 l 2
 189 82.6667 195.333 58.1667 208 48.5 c 128
 220.667 38.8333 248.333 33 291 31 c 1
 294.333 27.6667 296 22 296 14 c 0
 296 8 294.333 3.33333 291 0 c 1
 239 0 l 1
 147 0 l 2
 120.333 0 77 -0.666667 17 -2 c 1
 13.6667 1.33333 12 6.66667 12 14 c 0
 12 22 13.6667 27.6667 17 31 c 1
 54.3333 32.3333 78.1667 37.8333 88.5 47.5 c 128
 98.8333 57.1667 104 82 104 122 c 2
 104 523 l 2
EndSplineSet
EndChar

StartChar: uni0051
Encoding: 81 81 82
Width: 699
GlyphClass: 2
Flags: W
LayerCount: 3
Fore
SplineSet
331 622 m 0,0,1
 249 622 249 622 191 548 c 128,-1,2
 133 474 133 474 133 327 c 0,3,4
 133 189 133 189 203 107.5 c 128,-1,5
 273 26 273 26 370 26 c 0,6,7
 458 26 458 26 514 102.5 c 128,-1,8
 570 179 570 179 570 310 c 0,9,10
 570 456 570 456 502 539 c 128,-1,11
 434 622 434 622 331 622 c 0,0,1
666 329 m 0,12,13
 666 194 666 194 596 104.5 c 128,-1,14
 526 15 526 15 409 -5 c 1,15,16
 344 -23 344 -23 278 -72 c 1,17,18
 285 -70 285 -70 298 -70 c 0,19,20
 360 -70 360 -70 452 -114 c 1,21,22
 534 -152 534 -152 577 -152 c 0,23,24
 634 -152 634 -152 664 -115 c 1,25,-1
 681 -127 l 1,26,27
 624 -209 624 -209 537 -209 c 0,28,29
 463 -209 463 -209 369 -155 c 0,30,31
 296 -114 296 -114 251 -114 c 0,32,33
 234 -114 234 -114 216 -127 c 1,34,35
 197 -146 197 -146 178 -173 c 1,36,-1
 139 -153 l 1,37,38
 147 -140 147 -140 157 -130 c 1,39,40
 217 -56 217 -56 309 -8 c 1,41,42
 192 6 192 6 114.5 92 c 128,-1,43
 37 178 37 178 37 310 c 0,44,45
 37 460 37 460 119.5 559 c 128,-1,46
 202 658 202 658 344 658 c 0,47,48
 483 658 483 658 574.5 569 c 128,-1,49
 666 480 666 480 666 329 c 0,12,13
EndSplineSet
Validated: 1
Layer: 2
SplineSet
331 622 m 0
 276.333 622 229.667 597.333 191 548 c 128
 152.333 498.667 133 425 133 327 c 0
 133 235 156.333 161.833 203 107.5 c 128
 249.667 53.1667 305.333 26 370 26 c 0
 428.667 26 476.667 51.5 514 102.5 c 128
 551.333 153.5 570 222.667 570 310 c 0
 570 407.333 547.333 483.667 502 539 c 128
 456.667 594.333 399.667 622 331 622 c 0
666 329 m 0
 666 239 642.667 164.167 596 104.5 c 128
 549.333 44.8333 487 8.33333 409 -5 c 1
 365.667 -17 322 -39.3333 278 -72 c 1
 282.667 -70.6667 289.333 -70 298 -70 c 0
 339.334 -70 390.667 -84.6667 452 -114 c 1
 506.667 -139.333 548.333 -152 577 -152 c 0
 615 -152 644 -139.667 664 -115 c 1
 681 -127 l 1
 643 -181.667 595 -209 537 -209 c 0
 487.667 -209 431.667 -191 369 -155 c 0
 320.333 -127.667 281 -114 251 -114 c 0
 239.667 -114 228 -118.333 216 -127 c 1
 203.333 -139.667 190.667 -155 178 -173 c 1
 139 -153 l 1
 144.333 -144.334 150.333 -136.667 157 -130 c 1
 197 -80.6667 247.667 -40 309 -8 c 1
 231 1.33333 166.167 34.6667 114.5 92 c 128
 62.8333 149.333 37 222 37 310 c 0
 37 410 64.5 493 119.5 559 c 128
 174.5 625 249.333 658 344 658 c 0
 436.667 658 513.5 628.333 574.5 569 c 128
 635.5 509.667 666 429.667 666 329 c 0
EndSplineSet
EndChar

StartChar: uni0052
Encoding: 82 82 83
Width: 600
GlyphClass: 2
Flags: W
LayerCount: 3
Fore
SplineSet
272 618 m 0,0,1
 189 618 189 618 189 554 c 2,2,-1
 189 325 l 1,3,-1
 237 325 l 2,4,5
 318 325 318 325 361.5 358 c 128,-1,6
 405 391 405 391 405 478 c 0,7,8
 405 618 405 618 272 618 c 0,0,1
189 122 m 2,9,10
 189 62 189 62 204.5 47.5 c 128,-1,11
 220 33 220 33 276 31 c 1,12,13
 280 27 280 27 280 14 c 0,14,15
 280 2 280 2 276 -2 c 1,16,17
 188 0 188 0 147 0 c 0,18,19
 107 0 107 0 17 -2 c 1,20,21
 12 3 12 3 12 14 c 0,22,23
 12 26 12 26 17 31 c 1,24,25
 73 33 73 33 88.5 47.5 c 128,-1,26
 104 62 104 62 104 122 c 2,27,-1
 104 523 l 2,28,29
 104 583 104 583 88.5 597.5 c 128,-1,30
 73 612 73 612 17 614 c 1,31,32
 12 619 12 619 12 630 c 0,33,34
 12 642 12 642 17 647 c 1,35,36
 111 645 111 645 146 645 c 0,37,38
 163 645 163 645 204.5 648.5 c 128,-1,39
 246 652 246 652 271 652 c 0,40,41
 330 652 330 652 371 643 c 128,-1,42
 412 634 412 634 444 604 c 0,43,44
 497 554 497 554 497 479 c 0,45,46
 497 410 497 410 453.5 366.5 c 128,-1,47
 410 323 410 323 364 308 c 1,48,-1
 490 98 l 2,49,50
 513 60 513 60 534 40.5 c 128,-1,51
 555 21 555 21 586 21 c 1,52,53
 589 15 589 15 589 7 c 0,54,55
 589 0 589 0 587 -3 c 1,56,57
 573 -10 573 -10 545 -10 c 0,58,59
 468 -10 468 -10 413 79 c 2,60,-1
 306 253 l 2,61,62
 294 273 294 273 270.5 282 c 128,-1,63
 247 291 247 291 189 291 c 1,64,-1
 189 122 l 2,9,10
EndSplineSet
Validated: 1
Layer: 2
SplineSet
272 618 m 0
 216.667 618 189 596.667 189 554 c 2
 189 325 l 1
 237 325 l 2
 291 325 332.5 336 361.5 358 c 128
 390.5 380 405 420 405 478 c 0
 405 571.333 360.667 618 272 618 c 0
189 122 m 2
 189 82 194.167 57.1667 204.5 47.5 c 128
 214.833 37.8333 238.667 32.3333 276 31 c 1
 278.667 28.3333 280 22.6667 280 14 c 0
 280 6 278.667 0.666667 276 -2 c 1
 217.333 -0.666667 174.333 0 147 0 c 0
 120.333 0 77 -0.666667 17 -2 c 1
 13.6667 1.33333 12 6.66667 12 14 c 0
 12 22 13.6667 27.6667 17 31 c 1
 54.3333 32.3333 78.1667 37.8333 88.5 47.5 c 128
 98.8333 57.1667 104 82 104 122 c 2
 104 523 l 2
 104 563 98.8333 587.833 88.5 597.5 c 128
 78.1667 607.167 54.3333 612.667 17 614 c 1
 13.6667 617.333 12 622.667 12 630 c 0
 12 638 13.6667 643.667 17 647 c 1
 79.6667 645.667 122.667 645 146 645 c 0
 157.333 645 176.833 646.167 204.5 648.5 c 128
 232.167 650.833 254.334 652 271 652 c 0
 310.334 652 343.667 649 371 643 c 128
 398.334 637 422.667 624 444 604 c 0
 479.333 570.667 497 529 497 479 c 0
 497 433 482.5 395.5 453.5 366.5 c 128
 424.5 337.5 394.667 318 364 308 c 1
 490 98 l 2
 505.333 72.6667 520 53.5 534 40.5 c 128
 548 27.5 565.333 21 586 21 c 1
 588 17 589 12.3333 589 7 c 0
 589 2.33333 588.333 -1 587 -3 c 1
 577.667 -7.66667 563.667 -10 545 -10 c 0
 493.667 -10 449.667 19.6667 413 79 c 2
 306 253 l 2
 298 266.333 286.167 276 270.5 282 c 128
 254.833 288 227.667 291 189 291 c 1
 189 122 l 2
EndSplineSet
EndChar

StartChar: uni0053
Encoding: 83 83 84
Width: 462
GlyphClass: 2
Flags: W
LayerCount: 3
Fore
SplineSet
392 633 m 1,0,1
 410 539 410 539 412 502 c 1,2,3
 404 495 404 495 390 495 c 0,4,5
 383 495 383 495 380 496 c 1,6,7
 362 556 362 556 330 590 c 128,-1,8
 298 624 298 624 232 624 c 0,9,10
 188 624 188 624 155 589.5 c 128,-1,11
 122 555 122 555 122 512 c 0,12,13
 122 488 122 488 133.5 466.5 c 128,-1,14
 145 445 145 445 160 431.5 c 128,-1,15
 175 418 175 418 200.5 404 c 128,-1,16
 226 390 226 390 241.5 383.5 c 128,-1,17
 257 377 257 377 282 368 c 0,18,19
 356 340 356 340 400 298 c 128,-1,20
 444 256 444 256 444 184 c 0,21,22
 444 136 444 136 419 93 c 128,-1,23
 394 50 394 50 350 23 c 0,24,25
 298 -10 298 -10 227 -10 c 0,26,27
 179 -10 179 -10 127 1.5 c 128,-1,28
 75 13 75 13 47 13 c 1,29,30
 32 76 32 76 27 165 c 1,31,32
 37 170 37 170 46 170 c 0,33,34
 50 170 50 170 60 168 c 1,35,36
 91 26 91 26 235 26 c 0,37,38
 295 26 295 26 327.5 57.5 c 128,-1,39
 360 89 360 89 360 149 c 0,40,41
 360 184 360 184 349 209.5 c 128,-1,42
 338 235 338 235 314 252.5 c 128,-1,43
 290 270 290 270 273.5 278 c 128,-1,44
 257 286 257 286 226 298 c 0,45,46
 145 329 145 329 98 371.5 c 128,-1,47
 51 414 51 414 51 485 c 0,48,49
 51 562 51 562 106.5 610 c 128,-1,50
 162 658 162 658 241 658 c 0,51,52
 298 658 298 658 338.5 646.5 c 128,-1,53
 379 635 379 635 392 633 c 1,0,1
EndSplineSet
Validated: 1
Layer: 2
SplineSet
392 633 m 1
 404 570.333 410.667 526.667 412 502 c 1
 406.667 497.333 399.333 495 390 495 c 0
 385.333 495 382 495.333 380 496 c 1
 368 536 351.333 567.333 330 590 c 128
 308.667 612.667 276 624 232 624 c 0
 202.667 624 177 612.5 155 589.5 c 128
 133 566.5 122 540.667 122 512 c 0
 122 496 125.833 480.833 133.5 466.5 c 128
 141.167 452.167 150 440.5 160 431.5 c 128
 170 422.5 183.5 413.333 200.5 404 c 128
 217.5 394.667 231.167 387.833 241.5 383.5 c 128
 251.833 379.167 265.333 374 282 368 c 0
 331.333 349.333 370.667 326 400 298 c 128
 429.333 270 444 232 444 184 c 0
 444 152 435.667 121.667 419 93 c 128
 402.333 64.3333 379.333 41 350 23 c 0
 315.333 1 274.333 -10 227 -10 c 0
 195 -10 161.667 -6.16667 127 1.5 c 128
 92.3333 9.16667 65.6667 13 47 13 c 1
 37 55 30.3333 105.667 27 165 c 1
 33.6667 168.333 40 170 46 170 c 0
 48.6667 170 53.3334 169.333 60 168 c 1
 80.6667 73.3333 139 26 235 26 c 0
 275 26 305.833 36.5 327.5 57.5 c 128
 349.167 78.5 360 109 360 149 c 0
 360 172.333 356.333 192.5 349 209.5 c 128
 341.667 226.5 330 240.833 314 252.5 c 128
 298 264.167 284.5 272.667 273.5 278 c 128
 262.5 283.333 246.667 290 226 298 c 0
 172 318.667 129.333 343.167 98 371.5 c 128
 66.6667 399.834 51 437.667 51 485 c 0
 51 536.333 69.5 578 106.5 610 c 128
 143.5 642 188.333 658 241 658 c 0
 279 658 311.5 654.167 338.5 646.5 c 128
 365.5 638.833 383.333 634.333 392 633 c 1
EndSplineSet
EndChar

StartChar: uni0054
Encoding: 84 84 85
Width: 607
GlyphClass: 2
Flags: W
LayerCount: 3
Fore
SplineSet
352 124 m 2,0,1
 352 63 352 63 368.5 48 c 128,-1,2
 385 33 385 33 447 31 c 1,3,4
 452 26 452 26 452 14 c 0,5,6
 452 5 452 5 447 0 c 1,7,-1
 397 0 l 1,8,9
 397 0 397 0 308 0 c 0,10,11
 266 0 266 0 168 -2 c 1,12,13
 164 2 164 2 164 14 c 0,14,15
 164 27 164 27 168 31 c 1,16,17
 231 33 231 33 248 47.5 c 128,-1,18
 265 62 265 62 265 122 c 2,19,-1
 265 507 l 2,20,21
 265 556 265 556 254.5 581 c 128,-1,22
 244 606 244 606 218 606 c 2,23,-1
 169 606 l 2,24,25
 117 606 117 606 84 582 c 128,-1,26
 51 558 51 558 37 500 c 1,27,28
 15 500 15 500 3 505 c 1,29,30
 23 591 23 591 28 650 c 0,31,32
 28 653 28 653 32 653 c 0,33,34
 133 645 133 645 265 645 c 2,35,-1
 351 645 l 2,36,37
 484 645 484 645 575 653 c 0,38,39
 578 653 578 653 578 650 c 0,40,41
 579 584 579 584 591 508 c 1,42,43
 580 503 580 503 557 503 c 1,44,45
 545 559 545 559 511 582.5 c 128,-1,46
 477 606 477 606 418 606 c 2,47,-1
 396 606 l 2,48,49
 370 606 370 606 360 580.5 c 128,-1,50
 350 555 350 555 350 504 c 2,51,-1
 352 124 l 2,0,1
EndSplineSet
Validated: 1
Layer: 2
SplineSet
352 124 m 2
 352 83.3333 357.5 58 368.5 48 c 128
 379.5 38 405.667 32.3333 447 31 c 1
 450.333 27.6667 452 22 452 14 c 0
 452 8 450.333 3.33333 447 0 c 1
 397 0 l 1
 397 0 397 0 308 0 c 0
 280 0 233.333 -0.666667 168 -2 c 1
 165.333 0.666667 164 6 164 14 c 0
 164 22.6667 165.333 28.3333 168 31 c 1
 210 32.3333 236.667 37.8333 248 47.5 c 128
 259.333 57.1667 265 82 265 122 c 2
 265 507 l 2
 265 539.669 261.5 564.335 254.5 581 c 128
 247.5 597.667 235.333 606 218 606 c 2
 169 606 l 2
 134.333 606 106 598 84 582 c 128
 62 566 46.3333 538.667 37 500 c 1
 22.3333 500 11 501.667 3 505 c 1
 16.3333 562.333 24.6667 610.667 28 650 c 0
 28 652 29.3333 653 32 653 c 0
 99.3333 647.667 177 645 265 645 c 2
 351 645 l 2
 439.667 645 514.333 647.667 575 653 c 0
 577 653 578 652 578 650 c 0
 578.667 606 583 558.667 591 508 c 1
 583.662 504.667 572.329 503 557 503 c 1
 549 540.333 533.667 566.833 511 582.5 c 128
 488.333 598.167 457.333 606 418 606 c 2
 396 606 l 2
 378.667 606 366.667 597.5 360 580.5 c 128
 353.333 563.5 350 538 350 504 c 2
 352 124 l 2
EndSplineSet
EndChar

StartChar: uni0055
Encoding: 85 85 86
Width: 670
GlyphClass: 2
Flags: W
LayerCount: 3
Fore
SplineSet
172 523 m 2,0,-1
 172 266 l 2,1,2
 172 224 172 224 174 197 c 128,-1,3
 176 170 176 170 188 135 c 128,-1,4
 200 100 200 100 223 78 c 0,5,6
 272 31 272 31 342 31 c 0,7,8
 391 31 391 31 426 46.5 c 128,-1,9
 461 62 461 62 480 84.5 c 128,-1,10
 499 107 499 107 510 142.5 c 128,-1,11
 521 178 521 178 523.5 207.5 c 128,-1,12
 526 237 526 237 526 277 c 2,13,-1
 526 523 l 2,14,15
 526 554 526 554 523 570.5 c 128,-1,16
 520 587 520 587 507.5 596.5 c 128,-1,17
 495 606 495 606 481 608.5 c 128,-1,18
 467 611 467 611 434 614 c 1,19,20
 430 618 430 618 430 630 c 0,21,22
 430 643 430 643 434 647 c 1,23,-1
 480 647 l 1,24,-1
 550 647 l 1,25,-1
 614 647 l 1,26,-1
 652 647 l 1,27,28
 656 643 656 643 656 630 c 0,29,30
 656 618 656 618 652 614 c 1,31,32
 603 608 603 608 589 594 c 128,-1,33
 575 580 575 580 575 523 c 2,34,-1
 575 295 l 2,35,36
 575 224 575 224 564 171.5 c 128,-1,37
 553 119 553 119 525.5 76.5 c 128,-1,38
 498 34 498 34 447 12 c 128,-1,39
 396 -10 396 -10 321 -10 c 0,40,41
 287 -10 287 -10 257 -4.5 c 128,-1,42
 227 1 227 1 194.5 17 c 128,-1,43
 162 33 162 33 139.5 59 c 128,-1,44
 117 85 117 85 102 129.5 c 128,-1,45
 87 174 87 174 87 233 c 2,46,-1
 87 523 l 2,47,48
 87 582 87 582 72.5 597 c 128,-1,49
 58 612 58 612 10 614 c 1,50,51
 6 618 6 618 6 630 c 0,52,53
 6 643 6 643 10 647 c 1,54,55
 88 645 88 645 129 645 c 128,-1,56
 170 645 170 645 264 647 c 1,57,58
 268 643 268 643 268 630 c 0,59,60
 268 618 268 618 264 614 c 1,61,62
 204 612 204 612 188 597.5 c 128,-1,63
 172 583 172 583 172 523 c 2,0,-1
EndSplineSet
Validated: 1
Layer: 2
SplineSet
172 523 m 2
 172 266 l 2
 172 238 172.667 215 174 197 c 128
 175.333 179 180 158.333 188 135 c 128
 196 111.667 207.667 92.6667 223 78 c 0
 255.667 46.6667 295.333 31 342 31 c 0
 374.667 31 402.667 36.1667 426 46.5 c 128
 449.333 56.8333 467.333 69.5 480 84.5 c 128
 492.667 99.5 502.667 118.833 510 142.5 c 128
 517.333 166.167 521.833 187.833 523.5 207.5 c 128
 525.167 227.167 526 250.333 526 277 c 2
 526 523 l 2
 526 543.667 525 559.5 523 570.5 c 128
 521 581.5 515.833 590.167 507.5 596.5 c 128
 499.167 602.833 490.333 606.833 481 608.5 c 128
 471.667 610.167 456 612 434 614 c 1
 431.333 616.667 430 622 430 630 c 0
 430 638.676 431.333 644.343 434 647 c 1
 480 647 l 1
 550 647 l 1
 614 647 l 1
 652 647 l 1
 654.667 644.333 656 638.667 656 630 c 0
 656 622 654.667 616.667 652 614 c 1
 619.333 610 598.333 603.333 589 594 c 128
 579.667 584.667 575 561 575 523 c 2
 575 295 l 2
 575 247.667 571.333 206.5 564 171.5 c 128
 556.665 136.5 543.831 104.833 525.5 76.5 c 128
 507.167 48.1667 481 26.6667 447 12 c 128
 413 -2.66667 371 -10 321 -10 c 0
 298.333 -10 277 -8.16667 257 -4.5 c 128
 237 -0.833334 216.167 6.33333 194.5 17 c 128
 172.833 27.6667 154.5 41.6667 139.5 59 c 128
 124.5 76.3333 112 99.8333 102 129.5 c 128
 92 159.167 87 193.667 87 233 c 2
 87 523 l 2
 87 562.333 82.1667 587 72.5 597 c 128
 62.8333 607 42 612.667 10 614 c 1
 7.33333 616.667 6 622 6 630 c 0
 6 638.676 7.33334 644.343 10 647 c 1
 62 645.667 101.667 645 129 645 c 128
 156.333 645 201.333 645.667 264 647 c 1
 266.667 644.333 268 638.667 268 630 c 0
 268 622 266.667 616.667 264 614 c 1
 224 612.667 198.667 607.167 188 597.5 c 128
 177.333 587.833 172 563 172 523 c 2
EndSplineSet
EndChar

StartChar: uni0056
Encoding: 86 86 87
Width: 666
GlyphClass: 2
Flags: W
LayerCount: 3
Fore
SplineSet
448 614 m 1,0,1
 444 618 444 618 444 630 c 0,2,3
 444 643 444 643 448 647 c 1,4,5
 530 645 530 645 557 645 c 0,6,7
 585 645 585 645 645 647 c 1,8,9
 650 642 650 642 650 630 c 0,10,11
 650 619 650 619 645 614 c 1,12,13
 615 611 615 611 595 596 c 128,-1,14
 575 581 575 581 567 566 c 128,-1,15
 559 551 559 551 547 521 c 2,16,-1
 340 11 l 2,17,18
 330 -12 330 -12 316 -12 c 128,-1,19
 302 -12 302 -12 293 11 c 2,20,-1
 96 523 l 2,21,22
 74 578 74 578 59.5 594 c 128,-1,23
 45 610 45 610 6 614 c 1,24,25
 0 620 0 620 0 632 c 0,26,27
 0 642 0 642 5 647 c 1,28,29
 71 645 71 645 109 645 c 0,30,31
 150 645 150 645 230 647 c 1,32,33
 234 643 234 643 234 630 c 0,34,35
 234 618 234 618 230 614 c 1,36,37
 195 610 195 610 181 603 c 128,-1,38
 167 596 167 596 167 580 c 0,39,40
 167 568 167 568 179 534 c 1,41,-1
 338 127 l 1,42,-1
 343 127 l 1,43,-1
 501 528 l 2,44,45
 513 561 513 561 513 575 c 0,46,47
 513 610 513 610 448 614 c 1,0,1
EndSplineSet
Validated: 1
Layer: 2
SplineSet
448 614 m 1
 445.333 616.667 444 622 444 630 c 0
 444 638.676 445.333 644.343 448 647 c 1
 502.667 645.667 539 645 557 645 c 0
 575.667 645 605 645.667 645 647 c 1
 648.333 643.667 650 638 650 630 c 0
 650 622.662 648.333 617.329 645 614 c 1
 625 612 608.333 606 595 596 c 128
 581.662 586 572.329 576 567 566 c 128
 561.667 556 555 541 547 521 c 2
 340 11 l 2
 333.333 -4.33333 325.333 -12 316 -12 c 128
 306.667 -12 299 -4.33333 293 11 c 2
 96 523 l 2
 81.3333 559.669 69.1666 583.336 59.5 594 c 128
 49.8333 604.667 32 611.334 6 614 c 1
 2 618 0 624 0 632 c 0
 0 638.667 1.66667 643.667 5 647 c 1
 49 645.667 83.6667 645 109 645 c 0
 136.333 645 176.667 645.667 230 647 c 1
 232.667 644.333 234 638.667 234 630 c 0
 234 622 232.667 616.667 230 614 c 1
 206.666 611.333 190.333 607.667 181 603 c 128
 171.667 598.333 167 590.667 167 580 c 0
 167 572 171 556.667 179 534 c 1
 338 127 l 1
 343 127 l 1
 501 528 l 2
 509 550 513 565.667 513 575 c 0
 513 598.333 491.333 611.333 448 614 c 1
EndSplineSet
EndChar

StartChar: uni0057
Encoding: 87 87 88
Width: 975
GlyphClass: 2
Flags: W
LayerCount: 3
Fore
SplineSet
810 565 m 2,0,1
 813 574 813 574 813 582 c 0,2,3
 813 592 813 592 808 598 c 128,-1,4
 803 604 803 604 790.5 607 c 128,-1,5
 778 610 778 610 770.5 611 c 128,-1,6
 763 612 763 612 744 614 c 1,7,8
 740 618 740 618 740 630 c 0,9,10
 740 643 740 643 744 647 c 1,11,12
 824 645 824 645 854 645 c 0,13,14
 883 645 883 645 941 647 c 1,15,16
 946 642 946 642 946 630 c 0,17,18
 946 619 946 619 941 614 c 1,19,20
 903 612 903 612 884.5 597 c 128,-1,21
 866 582 866 582 855 553 c 2,22,-1
 654 14 l 2,23,24
 645 -12 645 -12 631 -12 c 0,25,26
 618 -12 618 -12 608 15 c 2,27,-1
 493 347 l 2,28,29
 483 375 483 375 479 375 c 0,30,31
 473 375 473 375 462 350 c 2,32,-1
 313 15 l 2,33,34
 302 -12 302 -12 287 -12 c 0,35,36
 273 -12 273 -12 265 15 c 1,37,-1
 77 556 l 2,38,39
 63 595 63 595 52 603.5 c 128,-1,40
 41 612 41 612 6 614 c 1,41,42
 0 620 0 620 0 630 c 0,43,44
 0 641 0 641 6 647 c 1,45,46
 64 645 64 645 99 645 c 0,47,48
 149 645 149 645 215 647 c 1,49,50
 220 642 220 642 220 630 c 0,51,52
 220 619 220 619 215 614 c 1,53,54
 197 613 197 613 187.5 611 c 128,-1,55
 178 609 178 609 170 603 c 128,-1,56
 162 597 162 597 162 587 c 0,57,58
 162 581 162 581 165 572 c 2,59,-1
 311 130 l 1,60,-1
 316 129 l 1,61,-1
 445 422 l 2,62,63
 454 444 454 444 454 457 c 0,64,65
 454 467 454 467 447 488 c 2,66,-1
 424 554 l 2,67,68
 404 610 404 610 340 614 c 1,69,70
 336 618 336 618 336 630 c 0,71,72
 336 643 336 643 340 647 c 1,73,74
 404 645 404 645 440 645 c 0,75,76
 483 645 483 645 565 647 c 1,77,78
 570 642 570 642 570 630 c 0,79,80
 570 619 570 619 565 614 c 1,81,82
 547 613 547 613 537 611 c 128,-1,83
 527 609 527 609 517.5 601 c 128,-1,84
 508 593 508 593 508 579 c 0,85,86
 508 571 508 571 513 554 c 2,87,-1
 650 132 l 1,88,-1
 654 131 l 1,89,-1
 810 565 l 2,0,1
EndSplineSet
Validated: 1
Layer: 2
SplineSet
810 565 m 2
 812 571 813 576.667 813 582 c 0
 813 588.667 811.333 594 808 598 c 128
 804.654 602 798.821 605 790.5 607 c 128
 782.167 609 775.5 610.333 770.5 611 c 128
 765.5 611.667 756.667 612.667 744 614 c 1
 741.333 616.667 740 622 740 630 c 0
 740 638.676 741.333 644.343 744 647 c 1
 797.333 645.667 834 645 854 645 c 0
 873.333 645 902.333 645.667 941 647 c 1
 944.333 643.667 946 638 946 630 c 0
 946 622.662 944.333 617.329 941 614 c 1
 915.663 612.667 896.83 607 884.5 597 c 128
 872.16 587 862.327 572.333 855 553 c 2
 654 14 l 2
 648 -3.33333 640.333 -12 631 -12 c 0
 622.333 -12 614.667 -3 608 15 c 2
 493 347 l 2
 486.331 365.667 481.665 375 479 375 c 0
 475 375 469.333 366.667 462 350 c 2
 313 15 l 2
 305.667 -3 297 -12 287 -12 c 0
 277.667 -12 270.333 -3 265 15 c 1
 77 556 l 2
 67.6667 582 59.3333 597.833 52 603.5 c 128
 44.6667 609.167 29.3333 612.667 6 614 c 1
 2 618 0 623.333 0 630 c 0
 0 637.333 2 643 6 647 c 1
 44.6667 645.667 75.6667 645 99 645 c 0
 132.333 645 171 645.667 215 647 c 1
 218.333 643.667 220 638 220 630 c 0
 220 622.662 218.333 617.329 215 614 c 1
 203 613.333 193.833 612.333 187.5 611 c 128
 181.166 609.667 175.333 607 170 603 c 128
 164.667 599 162 593.667 162 587 c 0
 162 583 163 578 165 572 c 2
 311 130 l 1
 316 129 l 1
 445 422 l 2
 451 436.667 454 448.333 454 457 c 0
 454 463.667 451.667 474 447 488 c 2
 424 554 l 2
 410.667 591.333 382.667 611.333 340 614 c 1
 337.333 616.667 336 622 336 630 c 0
 336 638.676 337.333 644.343 340 647 c 1
 382.667 645.667 416 645 440 645 c 0
 468.667 645 510.333 645.667 565 647 c 1
 568.333 643.667 570 638 570 630 c 0
 570 622.662 568.333 617.329 565 614 c 1
 553 613.333 543.667 612.333 537 611 c 128
 530.333 609.666 523.833 606.333 517.5 601 c 128
 511.167 595.666 508 588.332 508 579 c 0
 508 573.662 509.667 565.329 513 554 c 2
 650 132 l 1
 654 131 l 1
 810 565 l 2
EndSplineSet
EndChar

StartChar: uni0058
Encoding: 88 88 89
Width: 654
GlyphClass: 2
Flags: W
LayerCount: 3
Fore
SplineSet
538 102 m 2,0,1
 569 59 569 59 588 46 c 128,-1,2
 607 33 607 33 639 31 c 1,3,4
 644 26 644 26 644 13 c 0,5,6
 644 2 644 2 640 -2 c 1,7,8
 580 0 580 0 538 0 c 0,9,10
 498 0 498 0 424 -2 c 1,11,12
 420 2 420 2 420 14 c 0,13,14
 420 27 420 27 424 31 c 1,15,16
 468 34 468 34 468 47 c 0,17,18
 468 55 468 55 448 85 c 2,19,-1
 324 261 l 2,20,21
 316 272 316 272 310 272 c 0,22,23
 306 272 306 272 295 258 c 2,24,-1
 163 73 l 2,25,26
 152 57 152 57 152 50 c 0,27,28
 152 34 152 34 202 31 c 1,29,30
 206 27 206 27 206 14 c 0,31,32
 206 2 206 2 202 -2 c 1,33,34
 122 0 122 0 97 0 c 0,35,36
 67 0 67 0 7 -2 c 1,37,38
 2 3 2 3 2 14 c 0,39,40
 2 26 2 26 7 31 c 1,41,42
 43 34 43 34 68.5 47 c 128,-1,43
 94 60 94 60 118 93 c 2,44,-1
 266 291 l 2,45,46
 276 304 276 304 276 314 c 0,47,48
 276 323 276 323 262 344 c 2,49,-1
 120 547 l 2,50,51
 90 589 90 589 71 600.5 c 128,-1,52
 52 612 52 612 18 614 c 1,53,54
 13 619 13 619 13 632 c 0,55,56
 13 643 13 643 17 647 c 1,57,58
 77 645 77 645 119 645 c 0,59,60
 159 645 159 645 233 647 c 1,61,62
 238 642 238 642 238 630 c 0,63,64
 238 619 238 619 233 614 c 1,65,66
 189 611 189 611 189 598 c 0,67,68
 189 587 189 587 210 560 c 1,69,-1
 320 396 l 2,70,71
 328 385 328 385 332 385 c 0,72,73
 340 385 340 385 348 397 c 2,74,-1
 471 572 l 2,75,76
 481 586 481 586 481 595 c 0,77,78
 481 611 481 611 432 614 c 1,79,80
 428 618 428 618 428 630 c 0,81,82
 428 643 428 643 432 647 c 1,83,84
 512 645 512 645 537 645 c 0,85,86
 567 645 567 645 627 647 c 1,87,88
 632 642 632 642 632 630 c 0,89,90
 632 619 632 619 627 614 c 1,91,92
 591 611 591 611 566 597.5 c 128,-1,93
 541 584 541 584 516 552 c 2,94,-1
 379 375 l 2,95,96
 369 362 369 362 369 345 c 0,97,98
 369 333 369 333 385 312 c 2,99,-1
 538 102 l 2,0,1
EndSplineSet
Validated: 1
Layer: 2
SplineSet
538 102 m 2
 558.669 73.3333 575.336 54.6667 588 46 c 128
 600.667 37.3333 617.667 32.3333 639 31 c 1
 642.333 27.6667 644 21.6667 644 13 c 0
 644 5.66667 642.667 0.666667 640 -2 c 1
 600 -0.666667 566 0 538 0 c 0
 511.333 0 473.333 -0.666667 424 -2 c 1
 421.333 0.666667 420 6 420 14 c 0
 420 22.6667 421.333 28.3333 424 31 c 1
 453.333 33 468 38.3333 468 47 c 0
 468 52.3333 461.333 65 448 85 c 2
 324 261 l 2
 318.667 268.333 314 272 310 272 c 0
 307.333 272 302.333 267.333 295 258 c 2
 163 73 l 2
 155.667 62.3333 152 54.6667 152 50 c 0
 152 39.3333 168.667 33 202 31 c 1
 204.667 28.3333 206 22.6667 206 14 c 0
 206 6 204.667 0.666667 202 -2 c 1
 148.667 -0.666667 113.667 0 97 0 c 0
 77 0 47 -0.666667 7 -2 c 1
 3.66667 1.33333 2 6.66667 2 14 c 0
 2 22 3.66667 27.6667 7 31 c 1
 31 33 51.5 38.3333 68.5 47 c 128
 85.5 55.6667 102 71 118 93 c 2
 266 291 l 2
 272.667 299.667 276 307.333 276 314 c 0
 276 320 271.333 330 262 344 c 2
 120 547 l 2
 100 575 83.6667 592.833 71 600.5 c 128
 58.3333 608.167 40.6667 612.667 18 614 c 1
 14.6667 617.333 13 623.333 13 632 c 0
 13 639.333 14.3333 644.333 17 647 c 1
 57 645.667 91 645 119 645 c 0
 145.667 645 183.667 645.667 233 647 c 1
 236.333 643.667 238 638 238 630 c 0
 238 622.662 236.333 617.329 233 614 c 1
 203.667 612 189 606.667 189 598 c 0
 189 590.667 196 578 210 560 c 1
 320 396 l 2
 325.333 388.667 329.333 385 332 385 c 0
 337.335 385 342.668 389 348 397 c 2
 471 572 l 2
 477.667 581.333 481 589 481 595 c 0
 481 605.667 464.667 612 432 614 c 1
 429.333 616.667 428 622 428 630 c 0
 428 638.676 429.333 644.343 432 647 c 1
 485.334 645.667 520.334 645 537 645 c 0
 557 645 587 645.667 627 647 c 1
 630.333 643.667 632 638 632 630 c 0
 632 622.662 630.333 617.329 627 614 c 1
 603 612 582.667 606.5 566 597.5 c 128
 549.333 588.5 532.667 573.333 516 552 c 2
 379 375 l 2
 372.333 366.333 369 356.333 369 345 c 0
 369 337 374.333 326 385 312 c 2
 538 102 l 2
EndSplineSet
EndChar

StartChar: uni0059
Encoding: 89 89 90
Width: 583
GlyphClass: 2
Flags: W
LayerCount: 3
Fore
SplineSet
337 122 m 2,0,1
 337 62 337 62 354 47.5 c 128,-1,2
 371 33 371 33 434 31 c 1,3,4
 438 27 438 27 438 14 c 0,5,6
 438 2 438 2 434 -2 c 1,7,8
 334 0 334 0 295 0 c 0,9,10
 253 0 253 0 155 -2 c 1,11,12
 150 3 150 3 150 14 c 0,13,14
 150 26 150 26 155 31 c 1,15,16
 218 33 218 33 235 47.5 c 128,-1,17
 252 62 252 62 252 122 c 2,18,-1
 252 249 l 2,19,20
 252 276 252 276 248 289 c 128,-1,21
 244 302 244 302 231 326 c 1,22,-1
 100 547 l 2,23,24
 75 588 75 588 57.5 600 c 128,-1,25
 40 612 40 612 6 614 c 1,26,27
 0 620 0 620 0 632 c 0,28,29
 0 642 0 642 5 647 c 1,30,31
 65 645 65 645 107 645 c 128,-1,32
 149 645 149 645 221 647 c 1,33,34
 226 642 226 642 226 630 c 0,35,36
 226 619 226 619 221 614 c 1,37,38
 171 611 171 611 171 594 c 0,39,40
 171 584 171 584 185 559 c 2,41,-1
 301 354 l 2,42,43
 309 341 309 341 313 341 c 128,-1,44
 317 341 317 341 323 352 c 2,45,-1
 434 561 l 2,46,47
 443 579 443 579 443 590 c 0,48,49
 443 611 443 611 395 614 c 1,50,51
 390 619 390 619 390 630 c 0,52,53
 390 642 390 642 395 647 c 1,54,55
 459 645 459 645 486 645 c 128,-1,56
 513 645 513 645 569 647 c 1,57,58
 574 642 574 642 574 630 c 0,59,60
 574 619 574 619 569 614 c 1,61,62
 533 611 533 611 513.5 598.5 c 128,-1,63
 494 586 494 586 474 550 c 2,64,-1
 354 334 l 2,65,66
 337 302 337 302 337 258 c 2,67,-1
 337 122 l 2,0,1
EndSplineSet
Validated: 1
Layer: 2
SplineSet
337 122 m 2
 337 82 342.667 57.1667 354 47.5 c 128
 365.333 37.8333 392 32.3333 434 31 c 1
 436.667 28.3333 438 22.6667 438 14 c 0
 438 6 436.667 0.666667 434 -2 c 1
 367.333 -0.666667 321 0 295 0 c 0
 267 0 220.333 -0.666667 155 -2 c 1
 151.667 1.33333 150 6.66667 150 14 c 0
 150 22 151.667 27.6667 155 31 c 1
 197 32.3333 223.667 37.8333 235 47.5 c 128
 246.333 57.1667 252 82 252 122 c 2
 252 249 l 2
 252 267 250.667 280.333 248 289 c 128
 245.333 297.667 239.667 310 231 326 c 1
 100 547 l 2
 83.3333 574.333 69.1666 592 57.5 600 c 128
 45.8333 608 28.6667 612.667 6 614 c 1
 2 618 0 624 0 632 c 0
 0 638.667 1.66667 643.667 5 647 c 1
 45 645.667 79 645 107 645 c 128
 135 645 173 645.667 221 647 c 1
 224.333 643.667 226 638 226 630 c 0
 226 622.662 224.333 617.329 221 614 c 1
 187.667 612 171 605.333 171 594 c 0
 171 587.333 175.667 575.667 185 559 c 2
 301 354 l 2
 306.333 345.333 310.333 341 313 341 c 128
 315.667 341 319 344.667 323 352 c 2
 434 561 l 2
 440 573 443 582.667 443 590 c 0
 443 604 427 612 395 614 c 1
 391.667 617.333 390 622.667 390 630 c 0
 390 638 391.667 643.667 395 647 c 1
 437.667 645.667 468 645 486 645 c 128
 504 645 531.667 645.667 569 647 c 1
 572.333 643.667 574 638 574 630 c 0
 574 622.662 572.333 617.329 569 614 c 1
 545 612 526.5 606.833 513.5 598.5 c 128
 500.5 590.167 487.333 574 474 550 c 2
 354 334 l 2
 342.667 312.667 337 287.333 337 258 c 2
 337 122 l 2
EndSplineSet
EndChar

StartChar: uni005A
Encoding: 90 90 91
Width: 599
GlyphClass: 2
Flags: W
LayerCount: 3
Fore
SplineSet
551 0 m 1,0,1
 551 0 551 0 424 0 c 2,2,-1
 60 0 l 2,3,4
 41 0 41 0 41 15 c 0,5,6
 41 27 41 27 49 38 c 0,7,8
 129 157 129 157 248.5 323.5 c 128,-1,9
 368 490 368 490 438 579 c 0,10,11
 446 590 446 590 446 597 c 0,12,13
 446 606 446 606 436 606 c 2,14,-1
 225 602 l 2,15,16
 170 601 170 601 138.5 575 c 128,-1,17
 107 549 107 549 91 496 c 1,18,19
 78 496 78 496 61 501 c 1,20,21
 78 590 78 590 83 653 c 1,22,23
 182 645 182 645 264 645 c 2,24,-1
 485 645 l 2,25,26
 502 645 502 645 528 646 c 128,-1,27
 554 647 554 647 558 647 c 0,28,29
 571 647 571 647 571 636 c 0,30,31
 571 622 571 622 547 591 c 0,32,33
 391 390 391 390 172 72 c 1,34,35
 164 58 164 58 164 52 c 0,36,37
 164 38 164 38 187 38 c 2,38,-1
 189 38 l 1,39,-1
 382 42 l 2,40,41
 421 43 421 43 448.5 52 c 128,-1,42
 476 61 476 61 494.5 81.5 c 128,-1,43
 513 102 513 102 522.5 119 c 128,-1,44
 532 136 532 136 547 170 c 1,45,46
 560 170 560 170 578 165 c 1,47,48
 558 78 558 78 551 0 c 1,0,1
EndSplineSet
Validated: 1
Layer: 2
SplineSet
551 0 m 1
 551 0 551 0 424 0 c 2
 60 0 l 2
 47.3333 0 41 5 41 15 c 0
 41 23 43.6667 30.6667 49 38 c 0
 102.333 117.333 168.833 212.5 248.5 323.5 c 128
 328.167 434.5 391.333 519.667 438 579 c 0
 443.333 586.333 446 592.333 446 597 c 0
 446 603 442.667 606 436 606 c 2
 225 602 l 2
 188.333 601.333 159.5 592.333 138.5 575 c 128
 117.5 557.666 101.667 531.333 91 496 c 1
 82.3333 496 72.3333 497.667 61 501 c 1
 72.3334 560.333 79.6667 611 83 653 c 1
 149 647.667 209.333 645 264 645 c 2
 485 645 l 2
 496.334 645 510.668 645.333 528 646 c 128
 545.333 646.667 555.333 647 558 647 c 0
 566.667 647 571 643.333 571 636 c 0
 571 626.667 563 611.667 547 591 c 0
 443 457 318 284 172 72 c 1
 166.667 62.6667 164 56 164 52 c 0
 164 42.6667 171.667 38 187 38 c 2
 189 38 l 1
 382 42 l 2
 408 42.6667 430.167 46 448.5 52 c 128
 466.834 58 482.168 67.8333 494.5 81.5 c 128
 506.833 95.1667 516.167 107.667 522.5 119 c 128
 528.833 130.333 537 147.333 547 170 c 1
 555.667 170 566 168.333 578 165 c 1
 564.667 107 555.667 52 551 0 c 1
EndSplineSet
EndChar

StartChar: uni005B
Encoding: 91 91 92
Width: 310
GlyphClass: 2
Flags: W
LayerCount: 3
Fore
SplineSet
194 -108 m 2,0,-1
 229 -107 l 2,1,2
 246 -107 246 -107 253 -114 c 128,-1,3
 260 -121 260 -121 260 -133 c 128,-1,4
 260 -145 260 -145 254 -148 c 1,5,6
 235 -153 235 -153 151 -153 c 0,7,8
 62 -153 62 -153 40 -149 c 0,9,10
 13 -144 13 -144 7 -139 c 128,-1,11
 1 -134 1 -134 0 -116 c 1,12,-1
 0 -83 l 2,13,14
 0 -2 0 -2 3 73 c 0,15,16
 15 375 15 375 15 567 c 1,17,-1
 13 800 l 2,18,19
 13 834 13 834 16 839 c 0,20,21
 20 845 20 845 25 847 c 128,-1,22
 30 849 30 849 38 850 c 128,-1,23
 46 851 46 851 52 852 c 0,24,25
 62 854 62 854 68 854 c 0,26,27
 157 859 157 859 169 859 c 0,28,29
 222 858 222 858 230 857 c 0,30,31
 256 854 256 854 262 851 c 0,32,33
 270 847 270 847 270 833 c 0,34,35
 270 820 270 820 263 816 c 0,36,37
 254 811 254 811 242 811 c 0,38,39
 228 811 228 811 202 811 c 2,40,-1
 188 811 l 2,41,42
 152 811 152 811 143 804 c 0,43,44
 139 801 139 801 138 765 c 1,45,-1
 138 715 l 1,46,-1
 139 549 l 2,47,48
 139 440 139 440 132 290 c 0,49,50
 124 118 124 118 124 63 c 128,-1,51
 124 8 124 8 125 -43 c 128,-1,52
 126 -94 126 -94 134 -102 c 0,53,54
 141 -109 141 -109 164.5 -109 c 128,-1,55
 188 -109 188 -109 194 -108 c 2,0,-1
EndSplineSet
Validated: 1
Layer: 2
SplineSet
194 -108 m 2
 229 -107 l 2
 240.333 -107 248.333 -109.333 253 -114 c 128
 257.667 -118.667 260 -125 260 -133 c 128
 260 -141 258 -146 254 -148 c 1
 241.333 -151.333 207 -153 151 -153 c 0
 91.6667 -153 54.6667 -151.667 40 -149 c 0
 22 -145.667 11 -142.333 7 -139 c 128
 3 -135.667 0.666667 -128 0 -116 c 1
 0 -83 l 2
 0 -29 1 23 3 73 c 0
 11 274.333 15 439 15 567 c 1
 13 800 l 2
 13 822.667 14 835.667 16 839 c 0
 18.6667 843 21.6667 845.667 25 847 c 128
 28.3333 848.333 32.6667 849.333 38 850 c 128
 43.3333 850.693 48 851.359 52 852 c 0
 58.6667 853.333 64 854 68 854 c 0
 127.333 857.333 161 859 169 859 c 0
 204.333 858.333 224.667 857.667 230 857 c 0
 247.333 855 258 853 262 851 c 0
 267.333 848.333 270 842.333 270 833 c 0
 270 824.333 267.667 818.667 263 816 c 0
 257 812.667 250 811 242 811 c 0
 228 811 228 811 202 811 c 2
 188 811 l 2
 164 811 149 808.667 143 804 c 0
 140.333 802 138.667 789 138 765 c 1
 138 715 l 1
 139 549 l 2
 139 476.333 136.667 390 132 290 c 0
 126.667 175.333 124 99.6667 124 63 c 128
 124 26.3333 124.333 -9 125 -43 c 128
 125.667 -77 128.667 -96.6667 134 -102 c 0
 138.667 -106.667 148.833 -109 164.5 -109 c 128
 180.167 -109 190 -108.667 194 -108 c 2
EndSplineSet
EndChar

StartChar: uni005C
Encoding: 92 92 93
Width: 400
GlyphClass: 2
Flags: W
LayerCount: 3
Fore
SplineSet
360 0 m 1,0,-1
 300 0 l 1,1,-1
 70 774 l 1,2,-1
 130 774 l 1,3,-1
 360 0 l 1,0,-1
EndSplineSet
Validated: 1
Layer: 2
SplineSet
360 0 m 1
 300 0 l 1
 70 774 l 1
 130 774 l 1
 360 0 l 1
EndSplineSet
EndChar

StartChar: uni005D
Encoding: 93 93 94
Width: 323
GlyphClass: 2
Flags: W
LayerCount: 3
Fore
SplineSet
35 -108 m 2,0,-1
 89 -110 l 1,1,2
 122 -110 122 -110 129 -103 c 0,3,4
 148 -85 148 -85 148 219 c 2,5,-1
 148 426 l 2,6,7
 148 574 148 574 152 651 c 128,-1,8
 156 728 156 728 156 765 c 0,9,10
 156 801 156 801 152 805 c 0,11,12
 146 811 146 811 94 811 c 1,13,-1
 66 810 l 1,14,15
 27 810 27 810 27 831 c 0,16,17
 27 845 27 845 35 850 c 128,-1,18
 43 855 43 855 69 857 c 128,-1,19
 95 859 95 859 151 859 c 0,20,21
 206 859 206 859 241 853 c 0,22,23
 278 847 278 847 280 842 c 0,24,25
 283 836 283 836 283 811 c 2,26,-1
 283 800 l 1,27,28
 282 773 282 773 277 658 c 0,29,30
 267 445 267 445 267 200 c 2,31,-1
 267 66 l 2,32,33
 267 -104 267 -104 265 -114 c 0,34,35
 263 -125 263 -125 262 -127 c 0,36,37
 257 -140 257 -140 250 -143 c 0,38,39
 242 -147 242 -147 232 -148 c 0,40,41
 218 -150 218 -150 218 -150 c 2,42,43
 207 -151 207 -151 200 -151 c 0,44,45
 198 -151 198 -151 186 -152 c 2,46,-1
 130 -153 l 1,47,48
 38 -153 38 -153 25 -151 c 128,-1,49
 12 -149 12 -149 8 -146 c 128,-1,50
 4 -143 4 -143 4 -132 c 128,-1,51
 4 -121 4 -121 14 -111 c 0,52,53
 18 -108 18 -108 35 -108 c 2,0,-1
EndSplineSet
Validated: 1
Layer: 2
SplineSet
35 -108 m 2
 89 -110 l 1
 111 -110 124.333 -107.667 129 -103 c 0
 141.667 -91 148 16.3333 148 219 c 2
 148 426 l 2
 148 524.667 149.333 599.667 152 651 c 128
 154.667 702.333 156 740.333 156 765 c 0
 156 789 154.667 802.333 152 805 c 0
 148 809 128.667 811 94 811 c 1
 66 810 l 1
 40 810 27 817 27 831 c 0
 27 840.333 29.6667 846.667 35 850 c 128
 40.3333 853.333 51.6667 855.667 69 857 c 128
 86.3333 858.333 113.667 859 151 859 c 0
 187.667 859 217.667 857 241 853 c 0
 265.667 849 278.667 845.333 280 842 c 0
 282 838 283 827.667 283 811 c 2
 283 800 l 1
 282.333 782 280.333 734.667 277 658 c 0
 270.333 516 267 363.333 267 200 c 2
 267 66 l 2
 267 -47.3333 266.333 -107.333 265 -114 c 0
 263.667 -121.333 262.667 -125.667 262 -127 c 0
 258.667 -135.667 254.667 -141 250 -143 c 0
 244.667 -145.667 238.667 -147.333 232 -148 c 0
 218 -150 l 2
 210.667 -150.667 204.667 -151 200 -151 c 0
 198.667 -151 194 -151.333 186 -152 c 2
 130 -153 l 1
 68.6667 -153 33.6667 -152.333 25 -151 c 128
 16.3333 -149.667 10.6667 -148 8 -146 c 128
 5.33333 -144 4 -139.333 4 -132 c 128
 4 -124.667 7.33333 -117.667 14 -111 c 0
 16.6667 -109 23.6667 -108 35 -108 c 2
EndSplineSet
EndChar

StartChar: uni005E
Encoding: 94 94 95
Width: 427
GlyphClass: 2
Flags: W
LayerCount: 3
Fore
SplineSet
220 744 m 1,0,-1
 118 497 l 1,1,-1
 74 497 l 1,2,-1
 200 801 l 1,3,-1
 242 801 l 1,4,-1
 368 497 l 1,5,-1
 324 497 l 1,6,-1
 220 744 l 1,0,-1
EndSplineSet
Validated: 1
Layer: 2
SplineSet
220 744 m 1
 118 497 l 1
 74 497 l 1
 200 801 l 1
 242 801 l 1
 368 497 l 1
 324 497 l 1
 220 744 l 1
EndSplineSet
EndChar

StartChar: uni005F
Encoding: 95 95 96
Width: 394
GlyphClass: 2
Flags: W
LayerCount: 3
Fore
SplineSet
358 48 m 2,0,1
 370 48 370 48 370 28 c 0,2,3
 370 6 370 6 360 1 c 1,4,5
 348 -3 348 -3 347 -3 c 0,6,7
 338 -3 338 -3 313 -1.5 c 128,-1,8
 288 0 288 0 274 0 c 0,9,10
 216 2 216 2 180 2 c 0,11,12
 172 2 172 2 156 1.5 c 128,-1,13
 140 1 140 1 133 1 c 0,14,15
 85 -1 85 -1 70 -1 c 0,16,17
 45 -1 45 -1 16 2 c 0,18,19
 7 3 7 3 7 14 c 0,20,21
 7 28 7 28 15 44 c 0,22,23
 18 50 18 50 29 52 c 1,24,-1
 78 52 l 2,25,26
 99 52 99 52 142.5 50.5 c 128,-1,27
 186 49 186 49 205 49 c 1,28,29
 216 48 216 48 240 48 c 0,30,31
 253 48 253 48 280 48.5 c 128,-1,32
 307 49 307 49 319 49 c 0,33,34
 343 49 343 49 352 48 c 1,35,-1
 358 48 l 2,0,1
EndSplineSet
Validated: 1
Layer: 2
SplineSet
358 48 m 2
 366 48 370 41.3333 370 28 c 0
 370 13.3333 366.667 4.33333 360 1 c 1
 352 -1.66667 347.667 -3 347 -3 c 0
 341 -3 329.667 -2.5 313 -1.5 c 128
 296.333 -0.5 283.333 0 274 0 c 0
 235.333 1.33333 204 2 180 2 c 0
 174.667 2 166.667 1.83333 156 1.5 c 128
 145.333 1.16667 137.667 1 133 1 c 0
 101 -0.333333 80 -1 70 -1 c 0
 53.3333 -1 35.3333 0 16 2 c 0
 10 2.66667 7 6.66667 7 14 c 0
 7 23.3333 9.66667 33.3333 15 44 c 0
 17 48 21.6667 50.6667 29 52 c 1
 78 52 l 2
 92 52 113.5 51.5 142.5 50.5 c 128
 171.5 49.5 192.333 49 205 49 c 1
 212.333 48.3333 224 48 240 48 c 0
 248.667 48 262 48.1667 280 48.5 c 128
 298 48.8333 311 49 319 49 c 0
 335 49 346 48.6667 352 48 c 1
 358 48 l 2
EndSplineSet
EndChar

StartChar: uni0060
Encoding: 96 96 97
Width: 196
GlyphClass: 2
Flags: W
LayerCount: 3
Fore
SplineSet
147 472 m 1,0,-1
 0 681 l 2,1,2
 -1 681 -1 681 0 681.5 c 128,-1,3
 1 682 1 682 1 683 c 0,4,5
 1 685 1 685 4 685 c 2,6,-1
 7 685 l 1,7,-1
 72 685 l 1,8,-1
 183 480 l 2,9,10
 184 479 184 479 184 477 c 0,11,12
 184 472 184 472 180 472 c 2,13,-1
 147 472 l 1,0,-1
EndSplineSet
Validated: 1
Layer: 2
SplineSet
147 472 m 1
 0 681 l 2
 -0.666667 681 -0.666667 681.167 0 681.5 c 128
 0.666667 681.833 1 682.333 1 683 c 0
 1 684.333 2 685 4 685 c 2
 7 685 l 1
 72 685 l 1
 183 480 l 2
 183.667 479.333 184 478.333 184 477 c 0
 184 473.667 182.667 472 180 472 c 2
 147 472 l 1
EndSplineSet
EndChar

StartChar: uni0061
Encoding: 97 97 98
Width: 458
GlyphClass: 2
Flags: W
LayerCount: 3
Fore
SplineSet
282 244 m 1,0,-1
 202 223 l 2,1,2
 108 199 108 199 108 113 c 0,3,4
 108 87 108 87 126 64.5 c 128,-1,5
 144 42 144 42 178 42 c 2,6,7
 178 42 178 42 179 42 c 0,8,9
 212 42 212 42 268 86 c 0,10,11
 282 97 282 97 282 112 c 2,12,-1
 282 244 l 1,0,-1
122 354 m 128,-1,14
 126 345 126 345 126 335.5 c 128,-1,15
 126 326 126 326 113 315 c 0,16,17
 99 303 99 303 78 303 c 0,18,19
 77 303 77 303 76 303 c 0,20,21
 44 303 44 303 44 341.5 c 128,-1,22
 44 380 44 380 95 415 c 128,-1,23
 146 450 146 450 208 450 c 0,24,25
 316 450 316 450 347 367 c 0,26,27
 360 332 360 332 360 281 c 2,28,-1
 360 134 l 2,29,30
 360 68 360 68 373 55 c 0,31,32
 379 49 379 49 392 49 c 0,33,34
 393 49 393 49 394 49 c 0,35,36
 407 49 407 49 426 65 c 1,37,38
 441 56 441 56 444 38 c 1,39,40
 405 0 405 0 348 0 c 0,41,42
 316 0 316 0 301.5 15 c 128,-1,43
 287 30 287 30 282 59 c 1,44,-1
 280 59 l 1,45,-1
 260 43 l 2,46,47
 207 0 207 0 150 0 c 1,48,49
 149 -1 149 -1 148 0 c 1,50,51
 24 0 24 0 24 109 c 0,52,53
 24 159 24 159 70 197 c 128,-1,54
 116 235 116 235 190 254 c 2,55,-1
 276 275 l 1,56,57
 282 278 282 278 282 287 c 0,58,59
 282 417 282 417 200 417 c 0,60,61
 165 417 165 417 142 407 c 0,62,63
 118 396 118 396 118 379.5 c 128,-1,13
 118 363 118 363 122 354 c 128,-1,14
EndSplineSet
Validated: 1
Layer: 2
SplineSet
282 244 m 1
 202 223 l 2
 139.333 207 108 170.333 108 113 c 0
 108 95.6667 114 79.5 126 64.5 c 128
 138 49.5 155.333 42 178 42 c 2
 178 42 178 42 179 42 c 0
 201 42 230.667 56.6667 268 86 c 0
 277.333 93.3333 282 102 282 112 c 2
 282 244 l 1
122 354 m 128
 124.667 348 126 341.833 126 335.5 c 128
 126 329.167 121.667 322.333 113 315 c 0
 103.667 307 92 303 78 303 c 0
 77 303 77 303 76 303 c 0
 54.6667 303 44 315.833 44 341.5 c 128
 44 367.167 61 391.667 95 415 c 128
 129 438.333 166.667 450 208 450 c 0
 280 450 326.333 422.333 347 367 c 0
 355.667 343.667 360 315 360 281 c 2
 360 134 l 2
 360 90 364.333 63.6667 373 55 c 0
 377 51 383.333 49 392 49 c 0
 393 49 393 49 394 49 c 0
 402.667 49 413.333 54.3333 426 65 c 1
 436 59 442 50 444 38 c 1
 418 12.6667 386 0 348 0 c 0
 326.667 0 311.167 5 301.5 15 c 128
 291.833 25 285.333 39.6667 282 59 c 1
 280 59 l 1
 260 43 l 2
 224.667 14.3333 188 0 150 0 c 1
 149.333 -0.666667 148.667 -0.666667 148 0 c 1
 65.3333 0 24 36.3333 24 109 c 0
 24 142.333 39.3333 171.667 70 197 c 128
 100.667 222.333 140.667 241.333 190 254 c 2
 276 275 l 1
 280 277 282 281 282 287 c 0
 282 373.667 254.667 417 200 417 c 0
 176.667 417 157.333 413.667 142 407 c 0
 126 399.667 118 390.5 118 379.5 c 128
 118 368.5 119.333 360 122 354 c 128
EndSplineSet
EndChar

StartChar: uni0062
Encoding: 98 98 99
Width: 480
GlyphClass: 2
Flags: W
LayerCount: 3
Fore
SplineSet
174 373 m 0,0,1
 157 359 157 359 157 331 c 2,2,-1
 157 81 l 1,3,4
 195 34 195 34 229 34 c 0,5,6
 298 34 298 34 334 89.5 c 128,-1,7
 370 145 370 145 370 234 c 0,8,9
 370 306 370 306 337.5 355.5 c 128,-1,10
 305 405 305 405 259 405 c 0,11,12
 210 405 210 405 174 373 c 0,0,1
167 404 m 0,13,14
 217 449 217 449 279 449 c 0,15,16
 348 449 348 449 402 394 c 128,-1,17
 456 339 456 339 456 252 c 0,18,19
 456 140 456 140 387 70 c 128,-1,20
 318 0 318 0 235 0 c 0,21,22
 176 0 176 0 147 25 c 1,23,24
 138 31 138 31 134 31 c 0,25,26
 128 31 128 31 119 22 c 1,27,28
 116 17 116 17 96 -2 c 1,29,30
 81 -2 81 -2 74 10 c 1,31,32
 78 29 78 29 78 81 c 2,33,-1
 78 569 l 2,34,35
 78 601 78 601 76.5 617 c 128,-1,36
 75 633 75 633 64 640.5 c 128,-1,37
 53 648 53 648 47 648.5 c 128,-1,38
 41 649 41 649 14 651 c 1,39,40
 7 657 7 657 7 674 c 0,41,42
 7 679 7 679 8 681 c 1,43,44
 97 688 97 688 148 708 c 1,45,46
 161 708 161 708 161 698 c 0,47,48
 157 658 157 658 157 593 c 2,49,-1
 157 409 l 2,50,51
 157 395 157 395 167 404 c 0,13,14
EndSplineSet
Validated: 1
Layer: 2
SplineSet
174 373 m 0
 162.667 363.667 157 349.667 157 331 c 2
 157 81 l 1
 182.333 49.6667 206.333 34 229 34 c 0
 275 34 310 52.5 334 89.5 c 128
 358 126.5 370 174.667 370 234 c 0
 370 282 359.167 322.5 337.5 355.5 c 128
 315.833 388.5 289.666 405 259 405 c 0
 226.333 405 198 394.333 174 373 c 0
167 404 m 0
 200.333 434 237.667 449 279 449 c 0
 325 449 366 430.667 402 394 c 128
 438 357.333 456 310 456 252 c 0
 456 177.333 433 116.667 387 70 c 128
 341 23.3333 290.333 0 235 0 c 0
 195.667 0 166.333 8.33333 147 25 c 1
 141 29 136.667 31 134 31 c 0
 130 31 125 28 119 22 c 1
 117 18.6667 109.333 10.6667 96 -2 c 1
 86 -2 78.6667 2 74 10 c 1
 76.6667 22.6667 78 46.3333 78 81 c 2
 78 569 l 2
 78 590.333 77.5 606.333 76.5 617 c 128
 75.5 627.667 71.3333 635.5 64 640.5 c 128
 56.6667 645.5 51 648.167 47 648.5 c 128
 43 648.833 32 649.667 14 651 c 1
 9.33333 655 7 662.667 7 674 c 0
 7 677.333 7.33333 679.667 8 681 c 1
 67.3333 685.667 114 694.667 148 708 c 1
 156.667 708 161 704.667 161 698 c 0
 158.333 671.333 157 636.333 157 593 c 2
 157 409 l 2
 157 399.667 160.333 398 167 404 c 0
EndSplineSet
EndChar

StartChar: uni0063
Encoding: 99 99 100
Width: 427
GlyphClass: 2
Flags: W
LayerCount: 3
Fore
SplineSet
394 101 m 1,0,1
 359 44 359 44 319.5 22 c 128,-1,2
 280 0 280 0 230 0 c 0,3,4
 137 0 137 0 84.5 59.5 c 128,-1,5
 32 119 32 119 32 218 c 0,6,7
 32 320 32 320 95 384.5 c 128,-1,8
 158 449 158 449 238 449 c 0,9,10
 309 449 309 449 349.5 422.5 c 128,-1,11
 390 396 390 396 390 354 c 0,12,13
 390 333 390 333 375 321.5 c 128,-1,14
 360 310 360 310 342 310 c 0,15,16
 304 310 304 310 304 346 c 0,17,18
 304 416 304 416 232 416 c 0,19,20
 182 416 182 416 150 368.5 c 128,-1,21
 118 321 118 321 118 240 c 0,22,23
 118 155 118 155 157 102 c 128,-1,24
 196 49 196 49 252 49 c 0,25,26
 321 49 321 49 372 115 c 1,27,28
 388 115 388 115 394 101 c 1,0,1
EndSplineSet
Validated: 1
Layer: 2
SplineSet
394 101 m 1
 370.667 63 345.833 36.6667 319.5 22 c 128
 293.167 7.33333 263.333 0 230 0 c 0
 168 -1.90735e-06 119.5 19.8333 84.5 59.5 c 128
 49.5 99.1667 32 152 32 218 c 0
 32 286 53 341.5 95 384.5 c 128
 137 427.5 184.667 449 238 449 c 0
 285.333 449 322.5 440.167 349.5 422.5 c 128
 376.5 404.833 390 382 390 354 c 0
 390 340 385 329.167 375 321.5 c 128
 365 313.833 354 310 342 310 c 0
 316.667 310 304 322 304 346 c 0
 304 392.667 280 416 232 416 c 0
 198.666 416 171.333 400.167 150 368.5 c 128
 128.667 336.833 118 294 118 240 c 0
 118 183.333 131 137.333 157 102 c 128
 183 66.6667 214.667 49 252 49 c 0
 298 49 338 71 372 115 c 1
 382.667 115 390 110.333 394 101 c 1
EndSplineSet
EndChar

StartChar: uni0064
Encoding: 100 100 101
Width: 427
GlyphClass: 2
Flags: W
LayerCount: 3
Fore
SplineSet
337 134 m 2,0,-1
 337 324 l 2,1,2
 337 347 337 347 334 356.5 c 128,-1,3
 331 366 331 366 320 378 c 0,4,5
 289 414 289 414 239 414 c 0,6,7
 179 414 179 414 146 364 c 1,8,9
 117 323 117 323 117 231 c 0,10,11
 117 143 117 143 150 95 c 128,-1,12
 183 47 183 47 227 47 c 0,13,14
 266 47 266 47 321 95 c 0,15,16
 337 109 337 109 337 134 c 2,0,-1
327 62 m 0,17,18
 251 0 251 0 201 0 c 0,19,20
 122 0 122 0 76.5 59 c 128,-1,21
 31 118 31 118 31 213 c 0,22,23
 31 320 31 320 100 389 c 1,24,25
 163 449 163 449 250 449 c 0,26,27
 265 449 265 449 283 444.5 c 128,-1,28
 301 440 301 440 314 436 c 128,-1,29
 327 432 327 432 328 432 c 0,30,31
 337 432 337 432 337 441 c 2,32,-1
 337 569 l 2,33,34
 337 626 337 626 327 638.5 c 128,-1,35
 317 651 317 651 280 651 c 2,36,-1
 273 651 l 1,37,38
 266 658 266 658 266 673 c 0,39,40
 266 675 266 675 266.5 677.5 c 128,-1,41
 267 680 267 680 267 681 c 1,42,43
 295 681 295 681 340.5 690.5 c 128,-1,44
 386 700 386 700 407 708 c 1,45,46
 420 708 420 708 420 698 c 0,47,48
 416 658 416 658 416 593 c 2,49,-1
 416 140 l 2,50,51
 416 100 416 100 430 83.5 c 128,-1,52
 444 67 444 67 489 67 c 1,53,54
 494 62 494 62 494 53 c 0,55,56
 494 45 494 45 489 40 c 1,57,58
 409 31 409 31 371 0 c 0,59,60
 368 -2 368 -2 362 -2 c 128,-1,61
 356 -2 356 -2 352 0 c 1,62,63
 344 34 344 34 341 59 c 0,64,65
 341 64 341 64 336 64.5 c 128,-1,66
 331 65 331 65 327 62 c 0,17,18
EndSplineSet
Validated: 1
Layer: 2
SplineSet
337 134 m 2
 337 324 l 2
 337 339.334 336 350.167 334 356.5 c 128
 332 362.833 327.333 370 320 378 c 0
 299.333 402 272.333 414 239 414 c 0
 199 414 168 397.333 146 364 c 1
 126.667 336.667 117 292.333 117 231 c 0
 117 172.333 128 127 150 95 c 128
 172 63 197.667 47 227 47 c 0
 253 47 284.333 63 321 95 c 0
 331.667 104.333 337 117.333 337 134 c 2
327 62 m 0
 276.333 20.6667 234.333 1.90735e-06 201 0 c 0
 148.333 0 106.833 19.6667 76.5 59 c 128
 46.1667 98.3333 31 149.667 31 213 c 0
 31 284.333 54 343 100 389 c 1
 142 429 192 449 250 449 c 0
 260 449 271 447.5 283 444.5 c 128
 295 441.5 305.333 438.667 314 436 c 128
 322.667 433.333 327.333 432 328 432 c 0
 334 432 337 435 337 441 c 2
 337 569 l 2
 337 607 333.667 630.167 327 638.5 c 128
 320.333 646.833 304.666 651 280 651 c 2
 273 651 l 1
 268.333 655.667 266 663 266 673 c 0
 266 674.333 266.167 675.833 266.5 677.5 c 128
 266.833 679.169 267 680.336 267 681 c 1
 285.667 681 310.167 684.167 340.5 690.5 c 128
 370.833 696.833 393 702.667 407 708 c 1
 415.667 708 420 704.667 420 698 c 0
 417.333 671.333 416 636.333 416 593 c 2
 416 140 l 2
 416 113.333 420.667 94.5 430 83.5 c 128
 439.333 72.5 459 67 489 67 c 1
 492.333 63.6667 494 59 494 53 c 0
 494 47.6666 492.333 43.3333 489 40 c 1
 435.667 34 396.333 20.6667 371 0 c 0
 369 -1.33333 366 -2 362 -2 c 128
 358 -2 354.667 -1.33333 352 0 c 1
 346.667 22.6667 343 42.3333 341 59 c 0
 341 62.3333 339.333 64.1667 336 64.5 c 128
 332.667 64.8333 329.667 64 327 62 c 0
EndSplineSet
EndChar

StartChar: uni0065
Encoding: 101 101 102
Width: 427
GlyphClass: 2
Flags: W
LayerCount: 3
Fore
SplineSet
122 292 m 1,0,-1
 303 295 l 2,1,2
 318 295 318 295 318 309 c 0,3,4
 318 366 318 366 293.5 390 c 128,-1,5
 269 414 269 414 235 414 c 0,6,7
 222 414 222 414 209 410.5 c 128,-1,8
 196 407 196 407 177.5 396 c 128,-1,9
 159 385 159 385 144 358 c 128,-1,10
 129 331 129 331 122 292 c 1,0,-1
235 0 m 0,11,12
 140 0 140 0 87.5 58 c 128,-1,13
 35 116 35 116 35 212 c 0,14,15
 35 318 35 318 98.5 382.5 c 128,-1,16
 162 447 162 447 235 447 c 0,17,18
 404 447 404 447 404 273 c 0,19,20
 404 256 404 256 385 256 c 2,21,-1
 119 258 l 1,22,23
 119 174 119 174 151 121 c 0,24,25
 195 49 195 49 260 49 c 0,26,27
 302 49 302 49 328.5 61 c 128,-1,28
 355 73 355 73 384 103 c 1,29,30
 401 102 401 102 405 87 c 1,31,32
 338 0 338 0 235 0 c 0,11,12
EndSplineSet
Validated: 1
Layer: 2
SplineSet
122 292 m 1
 303 295 l 2
 313 295 318 299.667 318 309 c 0
 318 347 309.833 374 293.5 390 c 128
 277.167 406 257.667 414 235 414 c 0
 226.333 414 217.667 412.833 209 410.5 c 128
 200.333 408.167 189.833 403.333 177.5 396 c 128
 165.167 388.667 154 376 144 358 c 128
 134 340 126.667 318 122 292 c 1
235 0 m 0
 171.667 -1.90735e-06 122.5 19.3333 87.5 58 c 128
 52.5 96.6667 35 148 35 212 c 0
 35 282.667 56.1667 339.5 98.5 382.5 c 128
 140.833 425.5 186.333 447 235 447 c 0
 347.667 447 404 389 404 273 c 0
 404 261.667 397.667 256 385 256 c 2
 119 258 l 1
 119 202 129.667 156.333 151 121 c 0
 180.333 73 216.667 49 260 49 c 0
 288 49 310.833 53 328.5 61 c 128
 346.167 69 364.667 83 384 103 c 1
 395.333 102.333 402.333 97 405 87 c 1
 360.333 29 303.667 0 235 0 c 0
EndSplineSet
EndChar

StartChar: uni0066
Encoding: 102 102 103
Width: 410
GlyphClass: 2
Flags: W
LayerCount: 3
Fore
SplineSet
170 122 m 2,0,1
 170 60 170 60 182.5 47 c 128,-1,2
 195 34 195 34 254 31 c 1,3,4
 259 26 259 26 259 14 c 0,5,6
 259 3 259 3 254 -2 c 1,7,8
 184 0 184 0 131 0 c 0,9,10
 91 0 91 0 21 -2 c 1,11,12
 17 2 17 2 17 14 c 0,13,14
 17 27 17 27 21 31 c 1,15,16
 65 34 65 34 78 48.5 c 128,-1,17
 91 63 91 63 91 122 c 2,18,-1
 91 390 l 1,19,-1
 22 390 l 2,20,21
 17 390 17 390 17 396 c 2,22,-1
 17 409 l 2,23,24
 17 429 17 429 40 429 c 2,25,-1
 91 429 l 1,26,-1
 91 469 l 2,27,28
 91 578 91 578 144.5 638 c 128,-1,29
 198 698 198 698 268 698 c 0,30,31
 328 698 328 698 358 677 c 1,32,33
 390 653 390 653 390 626 c 0,34,35
 390 611 390 611 376 598 c 128,-1,36
 362 585 362 585 349 585 c 0,37,38
 323 585 323 585 309 617 c 1,39,40
 299 643 299 643 285.5 653.5 c 128,-1,41
 272 664 272 664 249 664 c 0,42,43
 170 664 170 664 170 486 c 2,44,-1
 170 429 l 1,45,-1
 278 429 l 2,46,47
 286 429 286 429 286 423 c 2,48,-1
 286 403 l 2,49,50
 286 390 286 390 263 390 c 2,51,-1
 170 390 l 1,52,-1
 170 122 l 2,0,1
EndSplineSet
Validated: 1
Layer: 2
SplineSet
170 122 m 2
 170 80.6667 174.167 55.6667 182.5 47 c 128
 190.833 38.3333 214.667 33 254 31 c 1
 257.333 27.6667 259 22 259 14 c 0
 259 6.66667 257.333 1.33333 254 -2 c 1
 207.333 -0.666667 166.333 0 131 0 c 0
 104.333 0 67.6667 -0.666667 21 -2 c 1
 18.3333 0.666667 17 6 17 14 c 0
 17 22.6667 18.3333 28.3333 21 31 c 1
 50.3333 33 69.3333 38.8333 78 48.5 c 128
 86.6667 58.1667 91 82.6667 91 122 c 2
 91 390 l 1
 22 390 l 2
 18.6667 390 17 392 17 396 c 2
 17 409 l 2
 17 422.333 24.6667 429 40 429 c 2
 91 429 l 1
 91 469 l 2
 91 541.667 108.833 598 144.5 638 c 128
 180.167 678 221.333 698 268 698 c 0
 308 698 338 691 358 677 c 1
 379.333 661 390 644 390 626 c 0
 390 616 385.333 606.667 376 598 c 128
 366.667 589.333 357.667 585 349 585 c 0
 331.667 585 318.333 595.667 309 617 c 1
 302.333 634.333 294.5 646.5 285.5 653.5 c 128
 276.5 660.5 264.333 664 249 664 c 0
 196.333 664 170 604.667 170 486 c 2
 170 429 l 1
 278 429 l 2
 283.333 429 286 427 286 423 c 2
 286 403 l 2
 286 394.333 278.333 390 263 390 c 2
 170 390 l 1
 170 122 l 2
EndSplineSet
EndChar

StartChar: uni0067
Encoding: 103 103 104
Width: 427
GlyphClass: 2
Flags: W
LayerCount: 3
Fore
SplineSet
320 291 m 0,0,1
 320 353 320 353 295 386.5 c 128,-1,2
 270 420 270 420 222 420 c 0,3,4
 142 420 142 420 142 314 c 0,5,6
 142 286 142 286 145 265.5 c 128,-1,7
 148 245 148 245 157 223.5 c 128,-1,8
 166 202 166 202 186 190.5 c 128,-1,9
 206 179 206 179 236 179 c 0,10,11
 270 179 270 179 295 203.5 c 128,-1,12
 320 228 320 228 320 291 c 0,0,1
132 2 m 1,13,14
 102 -35 102 -35 102 -92 c 0,15,16
 102 -137 102 -137 144 -163 c 128,-1,17
 186 -189 186 -189 222 -189 c 0,18,19
 269 -189 269 -189 312.5 -177 c 128,-1,20
 356 -165 356 -165 387 -139 c 128,-1,21
 418 -113 418 -113 418 -79 c 0,22,23
 418 -60 418 -60 407 -47 c 128,-1,24
 396 -34 396 -34 366 -17 c 128,-1,25
 336 0 336 0 246 0 c 0,26,27
 241 0 241 0 215.5 -1.5 c 128,-1,28
 190 -3 190 -3 172 -3 c 0,29,30
 152 -3 152 -3 132 2 c 1,13,14
188 56 m 0,31,32
 200 56 200 56 235.5 58.5 c 128,-1,33
 271 61 271 61 282 61 c 0,34,35
 389 61 389 61 428 28 c 1,36,37
 472 -7 472 -7 472 -53 c 0,38,39
 472 -130 472 -130 386 -178 c 128,-1,40
 300 -226 300 -226 192 -226 c 0,41,42
 125 -226 125 -226 78.5 -199 c 128,-1,43
 32 -172 32 -172 32 -112 c 0,44,45
 32 -40 32 -40 114 9 c 1,46,47
 68 32 68 32 68 86 c 0,48,49
 68 113 68 113 80 141.5 c 128,-1,50
 92 170 92 170 112 187 c 1,51,52
 60 237 60 237 60 299 c 0,53,54
 60 366 60 366 111 408.5 c 128,-1,55
 162 451 162 451 232 451 c 0,56,57
 294 451 294 451 336 423 c 1,58,59
 354 447 354 447 384 460.5 c 128,-1,60
 414 474 414 474 436 474 c 0,61,62
 456 474 456 474 469 463.5 c 128,-1,63
 482 453 482 453 482 437 c 0,64,65
 482 422 482 422 470.5 410.5 c 128,-1,66
 459 399 459 399 444 399 c 0,67,68
 437 399 437 399 428 405 c 128,-1,69
 419 411 419 411 416 417 c 0,70,71
 408 429 408 429 396 429 c 0,72,73
 388 429 388 429 375.5 421 c 128,-1,74
 363 413 363 413 356 405 c 1,75,76
 400 361 400 361 400 301 c 0,77,78
 400 231 400 231 350 189.5 c 128,-1,79
 300 148 300 148 230 148 c 0,80,81
 176 148 176 148 140 169 c 1,82,83
 122 144 122 144 122 111 c 0,84,85
 122 82 122 82 141.5 69 c 128,-1,86
 161 56 161 56 188 56 c 0,31,32
EndSplineSet
Validated: 1
Layer: 2
SplineSet
320 291 m 0
 320 332.334 311.667 364.167 295 386.5 c 128
 278.333 408.833 254 420 222 420 c 0
 168.667 420 142 384.667 142 314 c 0
 142 295.333 143 279.166 145 265.5 c 128
 147 251.833 151 237.833 157 223.5 c 128
 163 209.167 172.667 198.167 186 190.5 c 128
 199.333 182.833 216 179 236 179 c 0
 258.667 179 278.333 187.167 295 203.5 c 128
 311.667 219.833 320 249 320 291 c 0
132 2 m 1
 112 -22.6667 102 -54 102 -92 c 0
 102 -122 116 -145.667 144 -163 c 128
 172 -180.333 198 -189 222 -189 c 0
 253.333 -189 283.5 -185 312.5 -177 c 128
 341.5 -169 366.333 -156.333 387 -139 c 128
 407.667 -121.667 418 -101.667 418 -79 c 0
 418 -66.3333 414.333 -55.6667 407 -47 c 128
 399.667 -38.3333 386 -28.3333 366 -17 c 128
 346 -5.66667 306 0 246 0 c 0
 242.667 0 232.5 -0.5 215.5 -1.5 c 128
 198.5 -2.5 184 -3 172 -3 c 0
 158.667 -3 145.333 -1.33333 132 2 c 1
188 56 m 0
 196 56 211.833 56.8333 235.5 58.5 c 128
 259.167 60.1667 274.667 61 282 61 c 0
 353.333 61 402 50 428 28 c 1
 457.333 4.66667 472 -22.3333 472 -53 c 0
 472 -104.333 443.333 -146 386 -178 c 128
 328.667 -210 264 -226 192 -226 c 0
 147.333 -226 109.5 -217 78.5 -199 c 128
 47.5 -181 32 -152 32 -112 c 0
 32 -64 59.3333 -23.6667 114 9 c 1
 83.3333 24.3333 68 50 68 86 c 0
 68 104 72 122.5 80 141.5 c 128
 88 160.5 98.6667 175.667 112 187 c 1
 77.3333 220.333 60 257.667 60 299 c 0
 60 343.667 77 380.167 111 408.5 c 128
 145 436.833 185.333 451 232 451 c 0
 273.333 451 308 441.667 336 423 c 1
 348 439 364 451.5 384 460.5 c 128
 404 469.5 421.333 474 436 474 c 0
 449.333 474 460.333 470.5 469 463.5 c 128
 477.667 456.5 482 447.667 482 437 c 0
 482 427 478.167 418.167 470.5 410.5 c 128
 462.833 402.833 454 399 444 399 c 0
 439.333 399 434 401 428 405 c 128
 422 409 418 413 416 417 c 0
 410.667 425 404 429 396 429 c 0
 390.667 429 383.833 426.333 375.5 421 c 128
 367.167 415.667 360.667 410.333 356 405 c 1
 385.333 375.667 400 341 400 301 c 0
 400 254.333 383.333 217.167 350 189.5 c 128
 316.667 161.833 276.667 148 230 148 c 0
 194 148 164 155 140 169 c 1
 128 152.333 122 133 122 111 c 0
 122 91.6667 128.5 77.6667 141.5 69 c 128
 154.5 60.3333 170 56 188 56 c 0
EndSplineSet
EndChar

StartChar: uni0068
Encoding: 104 104 105
Width: 544
GlyphClass: 2
Flags: W
LayerCount: 3
Fore
SplineSet
168 286 m 2,0,-1
 168 122 l 2,1,2
 168 62 168 62 178 48 c 128,-1,3
 188 34 188 34 228 31 c 1,4,5
 233 26 233 26 233 14 c 0,6,7
 233 3 233 3 228 -2 c 1,8,9
 172 0 172 0 129 0 c 0,10,11
 85 0 85 0 19 -2 c 1,12,13
 15 2 15 2 15 14 c 0,14,15
 15 27 15 27 19 31 c 1,16,17
 65 34 65 34 77 48 c 128,-1,18
 89 62 89 62 89 122 c 2,19,-1
 89 559 l 2,20,21
 89 591 89 591 87.5 607 c 128,-1,22
 86 623 86 623 75 630.5 c 128,-1,23
 64 638 64 638 58 638.5 c 128,-1,24
 52 639 52 639 25 641 c 1,25,26
 18 648 18 648 18 663 c 0,27,28
 18 665 18 665 18.5 667.5 c 128,-1,29
 19 670 19 670 19 671 c 0,30,31
 108 678 108 678 159 698 c 1,32,33
 172 698 172 698 172 688 c 0,34,35
 168 648 168 648 168 583 c 2,36,-1
 168 358 l 2,37,38
 168 346 168 346 177 358 c 1,39,40
 250 439 250 439 347 439 c 0,41,42
 404 439 404 439 430 405 c 0,43,44
 457 370 457 370 457 271 c 2,45,-1
 457 122 l 2,46,47
 457 63 457 63 468.5 49 c 128,-1,48
 480 35 480 35 524 31 c 1,49,50
 528 27 528 27 528 14 c 0,51,52
 528 2 528 2 524 -2 c 1,53,54
 458 0 458 0 418 0 c 0,55,56
 372 0 372 0 316 -2 c 1,57,58
 312 4 312 4 312 14 c 0,59,60
 312 25 312 25 316 31 c 1,61,62
 357 35 357 35 367.5 49 c 128,-1,63
 378 63 378 63 378 122 c 2,64,-1
 378 274 l 2,65,66
 378 327 378 327 366 351 c 0,67,68
 350 385 350 385 313 385 c 0,69,70
 244 385 244 385 185 328 c 1,71,72
 168 309 168 309 168 286 c 2,0,-1
EndSplineSet
Validated: 1
Layer: 2
SplineSet
168 286 m 2
 168 122 l 2
 168 82 171.333 57.3333 178 48 c 128
 184.667 38.6667 201.334 33 228 31 c 1
 231.333 27.6667 233 22 233 14 c 0
 233 6.66667 231.333 1.33333 228 -2 c 1
 190.667 -0.666667 157.667 0 129 0 c 0
 99.6667 0 63 -0.666667 19 -2 c 1
 16.3333 0.666667 15 6 15 14 c 0
 15 22.6667 16.3333 28.3333 19 31 c 1
 49.6667 33 69 38.6667 77 48 c 128
 85 57.3333 89 82 89 122 c 2
 89 559 l 2
 89 580.333 88.5 596.333 87.5 607 c 128
 86.5 617.667 82.3333 625.5 75 630.5 c 128
 67.6667 635.5 62 638.167 58 638.5 c 128
 54 638.833 43 639.667 25 641 c 1
 20.3333 645.667 18 653 18 663 c 0
 18 664.333 18.1667 665.833 18.5 667.5 c 128
 18.8333 669.177 19 670.344 19 671 c 0
 78.3333 675.667 125 684.667 159 698 c 1
 167.667 698 172 694.667 172 688 c 0
 169.333 661.333 168 626.333 168 583 c 2
 168 358 l 2
 168 350 171 350 177 358 c 1
 225.667 412 282.333 439 347 439 c 0
 385 439 412.667 427.667 430 405 c 0
 448 381.667 457 337 457 271 c 2
 457 122 l 2
 457 82.6666 460.833 58.3333 468.5 49 c 128
 476.167 39.6667 494.667 33.6667 524 31 c 1
 526.667 28.3333 528 22.6667 528 14 c 0
 528 6 526.667 0.666667 524 -2 c 1
 480 -0.666667 444.667 0 418 0 c 0
 387.333 0 353.333 -0.666667 316 -2 c 1
 313.333 2 312 7.33333 312 14 c 0
 312 21.3333 313.333 27 316 31 c 1
 343.333 33.6667 360.5 39.6667 367.5 49 c 128
 374.5 58.3333 378 82.6667 378 122 c 2
 378 274 l 2
 378 309.333 374 335 366 351 c 0
 355.333 373.667 337.666 385 313 385 c 0
 267 385 224.333 366 185 328 c 1
 173.667 315.333 168 301.333 168 286 c 2
EndSplineSet
EndChar

StartChar: uni0069
Encoding: 105 105 106
Width: 282
GlyphClass: 2
Flags: W
LayerCount: 3
Fore
SplineSet
90 599 m 0,0,1
 90 617 90 617 107 632 c 128,-1,2
 124 647 124 647 142 647 c 0,3,4
 162 647 162 647 176 630.5 c 128,-1,5
 190 614 190 614 190 595 c 0,6,7
 190 578 190 578 174 562.5 c 128,-1,8
 158 547 158 547 138 547 c 0,9,10
 120 547 120 547 105 563.5 c 128,-1,11
 90 580 90 580 90 599 c 0,0,1
182 122 m 2,12,13
 182 62 182 62 194 48 c 128,-1,14
 206 34 206 34 254 31 c 1,15,16
 258 25 258 25 258 14 c 0,17,18
 258 4 258 4 254 -2 c 1,19,20
 186 0 186 0 142 0 c 128,-1,21
 98 0 98 0 30 -2 c 1,22,23
 26 4 26 4 26 14 c 0,24,25
 26 25 26 25 30 31 c 1,26,27
 78 35 78 35 90 48.5 c 128,-1,28
 102 62 102 62 102 122 c 2,29,-1
 102 317 l 2,30,31
 102 359 102 359 90.5 370.5 c 128,-1,32
 79 382 79 382 38 386 c 1,33,34
 32 402 32 402 36 413 c 1,35,36
 130 425 130 425 172 442 c 1,37,38
 186 442 186 442 186 435 c 0,39,40
 182 371 182 371 182 321 c 2,41,-1
 182 122 l 2,12,13
EndSplineSet
Validated: 1
Layer: 2
SplineSet
90 599 m 0
 90 611 95.6667 622 107 632 c 128
 118.333 642 130 647 142 647 c 0
 155.333 647 166.667 641.5 176 630.5 c 128
 185.333 619.5 190 607.667 190 595 c 0
 190 583.662 184.667 572.829 174 562.5 c 128
 163.333 552.167 151.333 547 138 547 c 0
 126 547 115 552.5 105 563.5 c 128
 95 574.5 90 586.333 90 599 c 0
182 122 m 2
 182 82 186 57.3333 194 48 c 128
 202 38.6667 222 33 254 31 c 1
 256.667 27 258 21.3333 258 14 c 0
 258 7.33333 256.667 2 254 -2 c 1
 208.667 -0.666667 171.333 0 142 0 c 128
 112.667 0 75.3333 -0.666667 30 -2 c 1
 27.3333 2 26 7.33333 26 14 c 0
 26 21.3333 27.3333 27 30 31 c 1
 62 33.6667 82 39.5 90 48.5 c 128
 98 57.5 102 82 102 122 c 2
 102 317 l 2
 102 345 98.1667 362.833 90.5 370.5 c 128
 82.8333 378.167 65.3333 383.333 38 386 c 1
 34 396.667 33.3333 405.667 36 413 c 1
 98.6667 421 144 430.667 172 442 c 1
 181.333 442 186 439.667 186 435 c 0
 183.333 392.333 182 354.333 182 321 c 2
 182 122 l 2
EndSplineSet
EndChar

StartChar: uni006A
Encoding: 106 106 107
Width: 232
GlyphClass: 2
Flags: W
LayerCount: 3
Fore
SplineSet
92 623 m 0,0,1
 92 640 92 640 109 655 c 0,2,3
 127 671 127 671 144 671 c 0,4,5
 164 671 164 671 178 654.5 c 128,-1,6
 192 638 192 638 192 619 c 0,7,8
 192 601 192 601 176 586 c 128,-1,9
 160 571 160 571 140 571 c 0,10,11
 122 571 122 571 107 587.5 c 128,-1,12
 92 604 92 604 92 623 c 0,0,1
106 340 m 2,13,14
 106 380 106 380 94 393 c 0,15,16
 83 405 83 405 41 409 c 1,17,18
 35 426 35 426 39 437 c 1,19,20
 134 449 134 449 176 466 c 1,21,22
 189 466 189 466 189 459 c 0,23,24
 185 395 185 395 185 345 c 2,25,-1
 185 134 l 2,26,27
 185 3 185 3 166 -68 c 0,28,29
 148 -135 148 -135 110 -165 c 0,30,31
 67 -199 67 -199 0 -199 c 0,32,33
 -15 -199 -15 -199 -36 -187 c 0,34,35
 -55 -176 -55 -176 -55 -156 c 0,36,37
 -55 -145 -55 -145 -43 -131 c 0,38,39
 -32 -118 -32 -118 -23 -118 c 1,40,41
 -23 -118 -23 -118 -13 -120 c 1,42,43
 -13 -120 -13 -120 -4 -123 c 0,44,45
 -1 -124 -1 -124 3 -128 c 1,46,47
 8 -131 8 -131 10 -133 c 128,-1,48
 12 -135 12 -135 16 -139 c 0,49,50
 21 -144 21 -144 21 -144 c 1,51,52
 29 -155 29 -155 52 -155 c 0,53,54
 64 -155 64 -155 73 -146 c 128,-1,55
 82 -137 82 -137 88 -118 c 0,56,57
 96 -93 96 -93 98 -78 c 0,58,59
 101 -57 101 -57 103 -25 c 0,60,61
 106 23 106 23 106 34 c 0,62,63
 106 62 106 62 106 100 c 2,64,-1
 106 340 l 2,13,14
EndSplineSet
Validated: 1
Layer: 2
SplineSet
92 623 m 0
 92 634.333 97.6667 645 109 655 c 0
 121 665.667 132.667 671 144 671 c 0
 157.333 671 168.667 665.5 178 654.5 c 128
 187.333 643.5 192 631.667 192 619 c 0
 192 607 186.667 596 176 586 c 128
 165.333 576 153.333 571 140 571 c 0
 128 571 117 576.5 107 587.5 c 128
 97 598.5 92 610.333 92 623 c 0
106 340 m 2
 106 366.667 102 384.333 94 393 c 0
 86.6667 401 69 406.333 41 409 c 1
 37 420.335 36.3333 429.668 39 437 c 1
 102.333 445 148 454.667 176 466 c 1
 184.667 466 189 463.667 189 459 c 0
 186.333 416.333 185 378.333 185 345 c 2
 185 134 l 2
 185 46.6667 178.667 -20.6667 166 -68 c 0
 154 -112.667 135.333 -145 110 -165 c 0
 81.3333 -187.667 44.6667 -199 0 -199 c 0
 -10 -199 -22 -195 -36 -187 c 0
 -48.6667 -179.667 -55 -169.333 -55 -156 c 0
 -55 -148.667 -51 -140.333 -43 -131 c 0
 -35.6667 -122.333 -29 -118 -23 -118 c 1
 -23 -118 -23 -118 -13 -120 c 1
 -13 -120 -13 -120 -4 -123 c 0
 -2 -123.666 0.333333 -125.332 3 -128 c 1
 6.33333 -130 8.66667 -131.667 10 -133 c 128
 12 -135 12 -135 16 -139 c 0
 21 -144 l 1
 26.3333 -151.333 36.6667 -155 52 -155 c 0
 60 -155 67 -152 73 -146 c 128
 79 -140 84 -130.667 88 -118 c 0
 93.3337 -101.333 96.667 -88 98 -78 c 0
 100 -64 101.667 -46.3333 103 -25 c 0
 105 7 106 26.6667 106 34 c 0
 106 62 106 62 106 100 c 2
 106 340 l 2
EndSplineSet
EndChar

StartChar: uni006B
Encoding: 107 107 108
Width: 519
GlyphClass: 2
Flags: W
LayerCount: 3
Fore
SplineSet
88 122 m 2,0,-1
 88 559 l 2,1,2
 88 616 88 616 78 628.5 c 128,-1,3
 68 641 68 641 31 641 c 2,4,-1
 24 641 l 1,5,6
 17 648 17 648 17 663 c 0,7,8
 17 665 17 665 17.5 667.5 c 128,-1,9
 18 670 18 670 18 671 c 1,10,11
 46 671 46 671 91.5 680.5 c 128,-1,12
 137 690 137 690 158 698 c 1,13,14
 171 698 171 698 171 688 c 0,15,16
 167 648 167 648 167 583 c 2,17,-1
 167 234 l 1,18,19
 199 237 199 237 235 265 c 1,20,21
 271 291 271 291 315 347 c 0,22,23
 328 363 328 363 328 375 c 0,24,25
 328 398 328 398 292 398 c 1,26,27
 288 402 288 402 288 414 c 0,28,29
 288 427 288 427 292 431 c 1,30,31
 302 431 302 431 335.5 430 c 128,-1,32
 369 429 369 429 390 429 c 0,33,34
 410 429 410 429 438.5 430 c 128,-1,35
 467 431 467 431 477 431 c 1,36,37
 482 426 482 426 482 414 c 0,38,39
 482 403 482 403 477 398 c 1,40,41
 413 398 413 398 372 354 c 1,42,-1
 284 263 l 2,43,44
 280 259 280 259 280 253 c 0,45,46
 280 246 280 246 287 239 c 1,47,-1
 419 73 l 2,48,49
 437 50 437 50 455.5 42.5 c 128,-1,50
 474 35 474 35 505 31 c 1,51,52
 510 26 510 26 510 14 c 0,53,54
 510 3 510 3 505 -2 c 1,55,56
 496 -2 496 -2 468 -1 c 128,-1,57
 440 0 440 0 423 0 c 0,58,59
 413 0 413 0 392 -1 c 128,-1,60
 371 -2 371 -2 361 -2 c 0,61,62
 357 -2 357 -2 357 3 c 0,63,64
 357 15 357 15 315 73 c 2,65,-1
 242 171 l 2,66,67
 225 193 225 193 210 203 c 1,68,69
 195 209 195 209 167 209 c 1,70,-1
 167 122 l 2,71,72
 167 63 167 63 176.5 48.5 c 128,-1,73
 186 34 186 34 219 31 c 1,74,75
 224 26 224 26 224 14 c 0,76,77
 224 3 224 3 219 -2 c 1,78,79
 173 0 173 0 128 0 c 0,80,81
 87 0 87 0 21 -2 c 1,82,83
 16 3 16 3 16 14 c 0,84,85
 16 26 16 26 21 31 c 1,86,87
 65 34 65 34 76.5 48 c 128,-1,88
 88 62 88 62 88 122 c 2,0,-1
EndSplineSet
Validated: 1
Layer: 2
SplineSet
88 122 m 2
 88 559 l 2
 88 597 84.6667 620.167 78 628.5 c 128
 71.3333 636.833 55.6666 641 31 641 c 2
 24 641 l 1
 19.3333 645.667 17 653 17 663 c 0
 17 664.333 17.1667 665.833 17.5 667.5 c 128
 17.8333 669.177 18 670.344 18 671 c 1
 36.6667 671 61.1667 674.167 91.5 680.5 c 128
 121.833 686.833 144 692.667 158 698 c 1
 166.667 698 171 694.667 171 688 c 0
 168.333 661.333 167 626.333 167 583 c 2
 167 234 l 1
 188.333 236 211 246.333 235 265 c 1
 259 282.334 285.667 309.667 315 347 c 0
 323.667 357.667 328 367 328 375 c 0
 328 390.333 316 398 292 398 c 1
 289.333 400.667 288 406 288 414 c 0
 288 422.667 289.333 428.333 292 431 c 1
 298.667 431 313.167 430.667 335.5 430 c 128
 357.833 429.333 376 429 390 429 c 0
 403.333 429 419.5 429.333 438.5 430 c 128
 457.5 430.667 470.333 431 477 431 c 1
 480.333 427.667 482 422 482 414 c 0
 482 406.667 480.333 401.333 477 398 c 1
 434.333 398 399.333 383.333 372 354 c 1
 284 263 l 2
 281.333 260.333 280 257 280 253 c 0
 280 248.333 282.333 243.667 287 239 c 1
 419 73 l 2
 431 57.6667 443.167 47.5 455.5 42.5 c 128
 467.833 37.5 484.333 33.6667 505 31 c 1
 508.333 27.6667 510 22 510 14 c 0
 510 6.66667 508.333 1.33333 505 -2 c 1
 499 -2 486.667 -1.66667 468 -1 c 128
 449.333 -0.333333 434.333 0 423 0 c 0
 416.333 0 406 -0.333333 392 -1 c 128
 378 -1.66667 367.667 -2 361 -2 c 0
 358.333 -2 357 -0.333333 357 3 c 0
 357 11 343 34.3333 315 73 c 2
 242 171 l 2
 230.667 185.667 220 196.333 210 203 c 1
 200 207 185.667 209 167 209 c 1
 167 122 l 2
 167 82.6667 170.167 58.1667 176.5 48.5 c 128
 182.833 38.8333 197 33 219 31 c 1
 222.333 27.6667 224 22 224 14 c 0
 224 6.66667 222.333 1.33333 219 -2 c 1
 188.333 -0.666667 158 0 128 0 c 0
 100.667 0 65 -0.666667 21 -2 c 1
 17.6667 1.33333 16 6.66667 16 14 c 0
 16 22 17.6667 27.6667 21 31 c 1
 50.3333 33 68.8333 38.6667 76.5 48 c 128
 84.1667 57.3333 88 82 88 122 c 2
EndSplineSet
EndChar

StartChar: uni006C
Encoding: 108 108 109
Width: 260
GlyphClass: 2
Flags: W
LayerCount: 3
Fore
SplineSet
94 122 m 2,0,-1
 94 559 l 2,1,2
 94 614 94 614 84 626 c 128,-1,3
 74 638 74 638 30 641 c 1,4,5
 23 647 23 647 23 663 c 0,6,7
 23 669 23 669 24 671 c 1,8,9
 111 678 111 678 164 698 c 1,10,11
 176 698 176 698 176 688 c 0,12,13
 172 648 172 648 172 583 c 2,14,-1
 172 122 l 2,15,16
 172 62 172 62 184.5 47.5 c 128,-1,17
 197 33 197 33 244 31 c 1,18,19
 249 27 249 27 249 14 c 0,20,21
 249 2 249 2 244 -2 c 1,22,23
 180 0 180 0 134 0 c 0,24,25
 90 0 90 0 22 -2 c 1,26,27
 17 2 17 2 17 14 c 0,28,29
 17 27 17 27 22 31 c 1,30,31
 69 33 69 33 81.5 47.5 c 128,-1,32
 94 62 94 62 94 122 c 2,0,-1
EndSplineSet
Validated: 1
Layer: 2
SplineSet
94 122 m 2
 94 559 l 2
 94 595.667 90.6667 618 84 626 c 128
 77.3333 634 59.3333 639 30 641 c 1
 25.3333 645 23 652.333 23 663 c 0
 23 667 23.3333 669.667 24 671 c 1
 82 675.667 128.667 684.667 164 698 c 1
 172 698 176 694.667 176 688 c 0
 173.333 661.333 172 626.333 172 583 c 2
 172 122 l 2
 172 82 176.167 57.1667 184.5 47.5 c 128
 192.833 37.8333 212.667 32.3333 244 31 c 1
 247.333 28.3333 249 22.6667 249 14 c 0
 249 6 247.333 0.666667 244 -2 c 1
 201.333 -0.666667 164.667 0 134 0 c 0
 104.667 0 67.3333 -0.666667 22 -2 c 1
 18.6667 0.666667 17 6 17 14 c 0
 17 22.6667 18.6667 28.3333 22 31 c 1
 53.3333 32.3333 73.1667 37.8333 81.5 47.5 c 128
 89.8333 57.1667 94 82 94 122 c 2
EndSplineSet
EndChar

StartChar: uni006D
Encoding: 109 109 110
Width: 805
GlyphClass: 2
Flags: W
LayerCount: 3
Fore
SplineSet
163 358 m 0,0,1
 163 346 163 346 175 358 c 0,2,3
 247 439 247 439 327 439 c 0,4,5
 365 439 365 439 392 418 c 128,-1,6
 419 397 419 397 427 365 c 0,7,8
 429 356 429 356 438 365 c 0,9,10
 508 439 508 439 603 439 c 0,11,12
 664 439 664 439 685 398 c 128,-1,13
 706 357 706 357 706 280 c 2,14,-1
 706 122 l 2,15,16
 706 61 706 61 717 46 c 128,-1,17
 728 31 728 31 770 31 c 1,18,19
 773 27 773 27 773 14 c 0,20,21
 773 2 773 2 770 -2 c 1,22,23
 758 -2 758 -2 723 -1 c 128,-1,24
 688 0 688 0 667 0 c 0,25,26
 645 0 645 0 610.5 -1 c 128,-1,27
 576 -2 576 -2 565 -2 c 1,28,29
 561 2 561 2 561 14 c 0,30,31
 561 27 561 27 565 31 c 1,32,33
 605 31 605 31 616 46.5 c 128,-1,34
 627 62 627 62 627 122 c 2,35,-1
 627 298 l 2,36,37
 627 346 627 346 612 365.5 c 128,-1,38
 597 385 597 385 567 385 c 0,39,40
 493 385 493 385 435 321 c 1,41,42
 435 315 435 315 435.5 301.5 c 128,-1,43
 436 288 436 288 436 281 c 2,44,-1
 436 122 l 2,45,46
 436 62 436 62 446.5 46.5 c 128,-1,47
 457 31 457 31 495 31 c 1,48,49
 498 27 498 27 498 14 c 0,50,51
 498 2 498 2 495 -2 c 1,52,53
 484 -2 484 -2 451.5 -1 c 128,-1,54
 419 0 419 0 397 0 c 0,55,56
 345 0 345 0 295 -2 c 1,57,58
 291 2 291 2 291 14 c 0,59,60
 291 27 291 27 295 31 c 1,61,62
 337 34 337 34 347 48 c 128,-1,63
 357 62 357 62 357 122 c 2,64,-1
 357 296 l 2,65,66
 357 385 357 385 291 385 c 0,67,68
 242 385 242 385 183 328 c 1,69,70
 166 309 166 309 166 286 c 2,71,-1
 166 122 l 2,72,73
 166 63 166 63 176.5 49 c 128,-1,74
 187 35 187 35 227 31 c 1,75,76
 232 26 232 26 232 14 c 0,77,78
 232 3 232 3 227 -2 c 1,79,80
 167 0 167 0 127 0 c 0,81,82
 79 0 79 0 19 -2 c 1,83,84
 14 3 14 3 14 14 c 0,85,86
 14 26 14 26 19 31 c 1,87,88
 63 34 63 34 75 48.5 c 128,-1,89
 87 63 87 63 87 122 c 2,90,-1
 87 317 l 2,91,92
 87 359 87 359 75.5 370 c 128,-1,93
 64 381 64 381 22 385 c 1,94,95
 16 402 16 402 20 413 c 1,96,97
 94 423 94 423 143 442 c 1,98,99
 151 442 151 442 155 434 c 1,100,101
 158 425 158 425 163 358 c 0,0,1
EndSplineSet
Validated: 1
Layer: 2
SplineSet
163 358 m 0
 163 350 167 350 175 358 c 0
 223 412 273.667 439 327 439 c 0
 352.333 439 374 432 392 418 c 128
 410 404 421.667 386.333 427 365 c 0
 428.333 359 432 359 438 365 c 0
 484.667 414.333 539.667 439 603 439 c 0
 643.667 439 671 425.333 685 398 c 128
 699 370.667 706 331.333 706 280 c 2
 706 122 l 2
 706 81.3333 709.667 56 717 46 c 128
 724.333 36 742 31 770 31 c 1
 772 28.3333 773 22.6667 773 14 c 0
 773 6 772 0.666667 770 -2 c 1
 762 -2 746.333 -1.66667 723 -1 c 128
 699.667 -0.333333 681 0 667 0 c 0
 652.333 0 633.5 -0.333333 610.5 -1 c 128
 587.5 -1.66667 572.333 -2 565 -2 c 1
 562.333 0.666667 561 6 561 14 c 0
 561 22.6667 562.333 28.3333 565 31 c 1
 591.667 31 608.667 36.1667 616 46.5 c 128
 623.333 56.8333 627 82 627 122 c 2
 627 298 l 2
 627 330 622 352.5 612 365.5 c 128
 602 378.5 587 385 567 385 c 0
 517.666 385 473.666 363.667 435 321 c 1
 435 317 435.167 310.5 435.5 301.5 c 128
 435.833 292.5 436 285.667 436 281 c 2
 436 122 l 2
 436 82 439.5 56.8333 446.5 46.5 c 128
 453.5 36.1667 469.667 31 495 31 c 1
 497 28.3333 498 22.6667 498 14 c 0
 498 6 497 0.666667 495 -2 c 1
 487.667 -2 473.167 -1.66667 451.5 -1 c 128
 429.833 -0.333333 411.666 0 397 0 c 0
 362.333 0 328.333 -0.666667 295 -2 c 1
 292.333 0.666667 291 6 291 14 c 0
 291 22.6667 292.333 28.3333 295 31 c 1
 323 33 340.333 38.6667 347 48 c 128
 353.667 57.3333 357 82 357 122 c 2
 357 296 l 2
 357 355.333 335 385 291 385 c 0
 258.333 385 222.333 366 183 328 c 1
 171.667 315.333 166 301.333 166 286 c 2
 166 122 l 2
 166 82.6666 169.5 58.3333 176.5 49 c 128
 183.5 39.6667 200.333 33.6667 227 31 c 1
 230.333 27.6667 232 22 232 14 c 0
 232 6.66667 230.333 1.33333 227 -2 c 1
 187 -0.666667 153.667 0 127 0 c 0
 95 0 59 -0.666667 19 -2 c 1
 15.6667 1.33333 14 6.66667 14 14 c 0
 14 22 15.6667 27.6667 19 31 c 1
 48.3333 33 67 38.8333 75 48.5 c 128
 83 58.1667 87 82.6667 87 122 c 2
 87 317 l 2
 87 345 83.1667 362.667 75.5 370 c 128
 67.8333 377.333 50 382.333 22 385 c 1
 18 396.335 17.3333 405.668 20 413 c 1
 69.3333 419.667 110.333 429.333 143 442 c 1
 148.333 442 152.333 439.333 155 434 c 1
 157 428 159.667 402.667 163 358 c 0
EndSplineSet
EndChar

StartChar: uni006E
Encoding: 110 110 111
Width: 550
GlyphClass: 2
Flags: W
HStem: -2 33<30.0039 91.3439 194.928 247.996 321.004 375.068 479.064 536.996> 385 54<265.585 366.701> 385 28<36.9751 90.9978>
VStem: 104 79<49.4485 331.507> 387 79<49.4485 350.243>
LayerCount: 3
Fore
SplineSet
192 358 m 0,0,1
 262 439 262 439 356 439 c 0,2,3
 413 439 413 439 439 405 c 0,4,5
 466 369 466 369 466 271 c 2,6,-1
 466 122 l 2,7,8
 466 63 466 63 477.5 49 c 128,-1,9
 489 35 489 35 533 31 c 1,10,11
 537 27 537 27 537 14 c 0,12,13
 537 2 537 2 533 -2 c 1,14,15
 473 0 473 0 427 0 c 0,16,17
 385 0 385 0 325 -2 c 1,18,19
 321 2 321 2 321 14 c 0,20,21
 321 27 321 27 325 31 c 1,22,23
 366 35 366 35 376.5 49 c 128,-1,24
 387 63 387 63 387 122 c 2,25,-1
 387 274 l 2,26,27
 387 327 387 327 375 351 c 0,28,29
 357 385 357 385 322 385 c 0,30,31
 259 385 259 385 200 328 c 1,32,33
 183 309 183 309 183 286 c 2,34,-1
 183 122 l 2,35,36
 183 63 183 63 193.5 49 c 128,-1,37
 204 35 204 35 244 31 c 1,38,39
 248 27 248 27 248 14 c 0,40,41
 248 2 248 2 244 -2 c 1,42,43
 184 0 184 0 144 0 c 0,44,45
 94 0 94 0 34 -2 c 1,46,47
 30 2 30 2 30 14 c 0,48,49
 30 27 30 27 34 31 c 1,50,51
 81 35 81 35 92.5 48.5 c 128,-1,52
 104 62 104 62 104 122 c 2,53,-1
 104 317 l 2,54,55
 104 359 104 359 92.5 370 c 128,-1,56
 81 381 81 381 39 385 c 1,57,58
 33 402 33 402 37 413 c 1,59,60
 111 423 111 423 160 442 c 1,61,62
 168 442 168 442 172 434 c 0,63,64
 178 422 178 422 180 358 c 0,65,66
 180 344 180 344 192 358 c 0,0,1
EndSplineSet
Validated: 1
Layer: 2
SplineSet
192 358 m 0
 238.667 412 293.333 439 356 439 c 0
 394 439 421.667 427.667 439 405 c 0
 457 381 466 336.333 466 271 c 2
 466 122 l 2
 466 82.6666 469.833 58.3333 477.5 49 c 128
 485.167 39.6667 503.667 33.6667 533 31 c 1
 535.667 28.3333 537 22.6667 537 14 c 0
 537 6 535.667 0.666667 533 -2 c 1
 493 -0.666667 457.667 0 427 0 c 0
 399 0 365 -0.666667 325 -2 c 1
 322.333 0.666667 321 6 321 14 c 0
 321 22.6667 322.333 28.3333 325 31 c 1
 352.333 33.6667 369.5 39.6667 376.5 49 c 128
 383.5 58.3333 387 82.6667 387 122 c 2
 387 274 l 2
 387 309.333 383 335 375 351 c 0
 363 373.667 345.333 385 322 385 c 0
 280 385 239.333 366 200 328 c 1
 188.667 315.333 183 301.333 183 286 c 2
 183 122 l 2
 183 82.6666 186.5 58.3333 193.5 49 c 128
 200.5 39.6667 217.333 33.6667 244 31 c 1
 246.667 28.3333 248 22.6667 248 14 c 0
 248 6 246.667 0.666667 244 -2 c 1
 204 -0.666667 170.667 0 144 0 c 0
 110.667 0 74 -0.666667 34 -2 c 1
 31.3333 0.666667 30 6 30 14 c 0
 30 22.6667 31.3333 28.3333 34 31 c 1
 65.3333 33.6667 84.8333 39.5 92.5 48.5 c 128
 100.167 57.5 104 82 104 122 c 2
 104 317 l 2
 104 345 100.167 362.667 92.5 370 c 128
 84.8333 377.333 67 382.333 39 385 c 1
 35 396.335 34.3333 405.668 37 413 c 1
 86.3333 419.667 127.333 429.333 160 442 c 1
 165.333 442 169.333 439.333 172 434 c 0
 176 426 178.667 400.667 180 358 c 0
 180 348.667 184 348.667 192 358 c 0
EndSplineSet
EndChar

